archivonarrow-regular-otf.ufo
<glyph name="exclam" format="1">
  <advance width="228"/>
  <unicode hex="0021"/>
  <outline>
    <contour>
      <point x="60" y="686" type="line"/>
      <point x="70" y="515"/>
      <point x="77" y="342"/>
      <point x="85" y="171" type="curve"/>
      <point x="147" y="171" type="line"/>
      <point x="156" y="352"/>
      <point x="168" y="629"/>
      <point x="173" y="686" type="curve"/>
    </contour>
    <contour>
      <point x="167" y="108" type="line"/>
      <point x="67" y="108" type="line"/>
      <point x="67" y="0" type="line"/>
      <point x="167" y="0" type="line"/>
    </contour>
  </outline>
</glyph>
<glyph name="quotedbl" format="1">
  <advance width="291"/>
  <unicode hex="0022"/>
  <outline>
    <contour>
      <point x="119" y="686" type="line"/>
      <point x="37" y="686" type="line"/>
      <point x="37" y="539" type="line"/>
      <point x="45" y="494"/>
      <point x="51" y="451"/>
      <point x="59" y="407" type="curve"/>
      <point x="98" y="407" type="line"/>
      <point x="119" y="539" type="line"/>
    </contour>
    <contour>
      <point x="252" y="686" type="line"/>
      <point x="170" y="686" type="line"/>
      <point x="170" y="539" type="line"/>
      <point x="191" y="407" type="line"/>
      <point x="230" y="407" type="line"/>
      <point x="252" y="539" type="line"/>
    </contour>
  </outline>
</glyph>
<glyph name="numbersign" format="1">
  <advance width="456"/>
  <unicode hex="0023"/>
  <outline>
    <contour>
      <point x="430" y="696" type="line"/>
      <point x="354" y="696" type="line"/>
      <point x="307" y="486" type="line"/>
      <point x="217" y="486" type="line"/>
      <point x="264" y="696" type="line"/>
      <point x="188" y="696" type="line"/>
      <point x="141" y="486" type="line"/>
      <point x="48" y="486" type="line"/>
      <point x="48" y="410" type="line"/>
      <point x="124" y="410" type="line"/>
      <point x="90" y="255" type="line"/>
      <point x="9" y="255" type="line"/>
      <point x="9" y="179" type="line"/>
      <point x="73" y="179" type="line"/>
      <point x="33" y="0" type="line"/>
      <point x="109" y="0" type="line"/>
      <point x="149" y="179" type="line"/>
      <point x="239" y="179" type="line"/>
      <point x="199" y="0" type="line"/>
      <point x="275" y="0" type="line"/>
      <point x="315" y="179" type="line"/>
      <point x="403" y="179" type="line"/>
      <point x="403" y="255" type="line"/>
      <point x="332" y="255" type="line"/>
      <point x="366" y="410" type="line"/>
      <point x="443" y="410" type="line"/>
      <point x="443" y="486" type="line"/>
      <point x="383" y="486" type="line"/>
    </contour>
    <contour>
      <point x="290" y="410" type="line"/>
      <point x="256" y="255" type="line"/>
      <point x="166" y="255" type="line"/>
      <point x="200" y="410" type="line"/>
    </contour>
  </outline>
</glyph>
<glyph name="dollar" format="1">
  <advance width="456"/>
  <unicode hex="0024"/>
  <outline>
    <contour>
      <point x="251" y="723" type="line"/>
      <point x="202" y="723" type="line"/>
      <point x="202" y="616" type="line"/>
      <point x="117" y="605"/>
      <point x="65" y="551"/>
      <point x="65" y="468" type="curve" smooth="yes"/>
      <point x="65" y="370"/>
      <point x="135" y="342"/>
      <point x="202" y="319" type="curve"/>
      <point x="202" y="140" type="line"/>
      <point x="163" y="149"/>
      <point x="136" y="178"/>
      <point x="136" y="234" type="curve" smooth="yes"/>
      <point x="136" y="244" type="line"/>
      <point x="54" y="244" type="line"/>
      <point x="54" y="242"/>
      <point x="53" y="236"/>
      <point x="53" y="222" type="curve" smooth="yes"/>
      <point x="53" y="149"/>
      <point x="95" y="78"/>
      <point x="202" y="69" type="curve"/>
      <point x="202" y="-49" type="line"/>
      <point x="251" y="-49" type="line"/>
      <point x="251" y="69" type="line"/>
      <point x="338" y="76"/>
      <point x="400" y="126"/>
      <point x="400" y="230" type="curve" smooth="yes"/>
      <point x="400" y="337"/>
      <point x="321" y="365"/>
      <point x="251" y="388" type="curve"/>
      <point x="251" y="546" type="line"/>
      <point x="294" y="536"/>
      <point x="308" y="500"/>
      <point x="308" y="464" type="curve" smooth="yes"/>
      <point x="308" y="455" type="line"/>
      <point x="389" y="455" type="line"/>
      <point x="389" y="457"/>
      <point x="390" y="467"/>
      <point x="390" y="474" type="curve" smooth="yes"/>
      <point x="390" y="547"/>
      <point x="341" y="610"/>
      <point x="251" y="617" type="curve"/>
    </contour>
    <contour>
      <point x="251" y="301" type="line"/>
      <point x="289" y="284"/>
      <point x="318" y="262"/>
      <point x="318" y="218" type="curve" smooth="yes"/>
      <point x="318" y="171"/>
      <point x="289" y="145"/>
      <point x="251" y="139" type="curve"/>
    </contour>
    <contour>
      <point x="202" y="407" type="line"/>
      <point x="170" y="421"/>
      <point x="147" y="439"/>
      <point x="147" y="474" type="curve" smooth="yes"/>
      <point x="147" y="500"/>
      <point x="157" y="537"/>
      <point x="202" y="546" type="curve"/>
    </contour>
  </outline>
</glyph>
<glyph name="percent" format="1">
  <advance width="729"/>
  <unicode hex="0025"/>
  <outline>
    <contour>
      <point x="614" y="686" type="line"/>
      <point x="543" y="686" type="line"/>
      <point x="125" y="0" type="line"/>
      <point x="195" y="0" type="line"/>
    </contour>
    <contour>
      <point x="173" y="698" type="curve" smooth="yes"/>
      <point x="93" y="698"/>
      <point x="45" y="656"/>
      <point x="45" y="517" type="curve" smooth="yes"/>
      <point x="45" y="379"/>
      <point x="93" y="337"/>
      <point x="173" y="337" type="curve" smooth="yes"/>
      <point x="253" y="337"/>
      <point x="301" y="378"/>
      <point x="301" y="517" type="curve" smooth="yes"/>
      <point x="301" y="656"/>
      <point x="253" y="698"/>
    </contour>
    <contour>
      <point x="173" y="639" type="curve" smooth="yes"/>
      <point x="221" y="639"/>
      <point x="232" y="592"/>
      <point x="232" y="525" type="curve" smooth="yes"/>
      <point x="232" y="510" type="line"/>
      <point x="232" y="443"/>
      <point x="221" y="396"/>
      <point x="173" y="396" type="curve" smooth="yes"/>
      <point x="125" y="396"/>
      <point x="114" y="443"/>
      <point x="114" y="510" type="curve" smooth="yes"/>
      <point x="114" y="525" type="line" smooth="yes"/>
      <point x="114" y="592"/>
      <point x="125" y="639"/>
    </contour>
    <contour>
      <point x="565" y="290" type="curve" smooth="yes"/>
      <point x="613" y="290"/>
      <point x="624" y="243"/>
      <point x="624" y="176" type="curve" smooth="yes"/>
      <point x="624" y="161" type="line"/>
      <point x="624" y="94"/>
      <point x="613" y="47"/>
      <point x="565" y="47" type="curve" smooth="yes"/>
      <point x="517" y="47"/>
      <point x="506" y="94"/>
      <point x="506" y="161" type="curve" smooth="yes"/>
      <point x="506" y="176" type="line" smooth="yes"/>
      <point x="506" y="243"/>
      <point x="517" y="290"/>
    </contour>
    <contour>
      <point x="565" y="349" type="curve" smooth="yes"/>
      <point x="485" y="349"/>
      <point x="437" y="307"/>
      <point x="437" y="168" type="curve" smooth="yes"/>
      <point x="437" y="30"/>
      <point x="485" y="-12"/>
      <point x="565" y="-12" type="curve" smooth="yes"/>
      <point x="645" y="-12"/>
      <point x="693" y="29"/>
      <point x="693" y="168" type="curve" smooth="yes"/>
      <point x="693" y="307"/>
      <point x="645" y="349"/>
    </contour>
  </outline>
</glyph>
<glyph name="ampersand" format="1">
  <advance width="547"/>
  <unicode hex="0026"/>
  <outline>
    <contour>
      <point x="256" y="698" type="curve" smooth="yes"/>
      <point x="131" y="698"/>
      <point x="47" y="632"/>
      <point x="47" y="510" type="curve" smooth="yes"/>
      <point x="47" y="429"/>
      <point x="85" y="385"/>
      <point x="136" y="356" type="curve"/>
      <point x="136" y="352" type="line"/>
      <point x="78" y="330"/>
      <point x="35" y="275"/>
      <point x="35" y="184" type="curve" smooth="yes"/>
      <point x="35" y="62"/>
      <point x="123" y="-12"/>
      <point x="248" y="-12" type="curve" smooth="yes"/>
      <point x="390" y="-12"/>
      <point x="464" y="69"/>
      <point x="464" y="194" type="curve" smooth="yes"/>
      <point x="464" y="311" type="line"/>
      <point x="534" y="311" type="line"/>
      <point x="534" y="385" type="line"/>
      <point x="382" y="385" type="line"/>
      <point x="382" y="191" type="line"/>
      <point x="382" y="106"/>
      <point x="339" y="63"/>
      <point x="254" y="63" type="curve" smooth="yes"/>
      <point x="176" y="63"/>
      <point x="123" y="100"/>
      <point x="123" y="190" type="curve" smooth="yes"/>
      <point x="123" y="287"/>
      <point x="181" y="312"/>
      <point x="242" y="312" type="curve" smooth="yes"/>
      <point x="291" y="312" type="line"/>
      <point x="291" y="385" type="line"/>
      <point x="240" y="385" type="line" smooth="yes"/>
      <point x="184" y="385"/>
      <point x="135" y="424"/>
      <point x="135" y="505" type="curve" smooth="yes"/>
      <point x="135" y="590"/>
      <point x="190" y="623"/>
      <point x="255" y="623" type="curve" smooth="yes"/>
      <point x="328" y="623"/>
      <point x="382" y="586"/>
      <point x="382" y="501" type="curve" smooth="yes"/>
      <point x="382" y="492" type="line"/>
      <point x="464" y="492" type="line"/>
      <point x="464" y="510" type="line" smooth="yes"/>
      <point x="464" y="624"/>
      <point x="378" y="698"/>
    </contour>
  </outline>
</glyph>
<glyph name="quotesingle" format="1">
  <advance width="157"/>
  <unicode hex="0027"/>
  <outline>
    <contour>
      <point x="117" y="686" type="line"/>
      <point x="35" y="686" type="line"/>
      <point x="35" y="539" type="line"/>
      <point x="43" y="494"/>
      <point x="49" y="451"/>
      <point x="57" y="407" type="curve"/>
      <point x="96" y="407" type="line"/>
      <point x="117" y="539" type="line"/>
    </contour>
  </outline>
</glyph>
<glyph name="parenleft" format="1">
  <advance width="273"/>
  <unicode hex="0028"/>
  <outline>
    <contour>
      <point x="204" y="735" type="line"/>
      <point x="99" y="612"/>
      <point x="40" y="452"/>
      <point x="40" y="288" type="curve" smooth="yes"/>
      <point x="40" y="124"/>
      <point x="99" y="-34"/>
      <point x="204" y="-157" type="curve"/>
      <point x="258" y="-157" type="line"/>
      <point x="183" y="-35"/>
      <point x="125" y="134"/>
      <point x="125" y="290" type="curve" smooth="yes"/>
      <point x="125" y="446"/>
      <point x="183" y="613"/>
      <point x="258" y="735" type="curve"/>
    </contour>
  </outline>
</glyph>
<glyph name="parenright" format="1">
  <advance width="273"/>
  <unicode hex="0029"/>
  <outline>
    <contour>
      <point x="15" y="735" type="line"/>
      <point x="90" y="613"/>
      <point x="148" y="446"/>
      <point x="148" y="290" type="curve" smooth="yes"/>
      <point x="148" y="134"/>
      <point x="90" y="-35"/>
      <point x="15" y="-157" type="curve"/>
      <point x="69" y="-157" type="line"/>
      <point x="174" y="-34"/>
      <point x="233" y="124"/>
      <point x="233" y="288" type="curve" smooth="yes"/>
      <point x="233" y="452"/>
      <point x="174" y="612"/>
      <point x="69" y="735" type="curve"/>
    </contour>
  </outline>
</glyph>
<glyph name="asterisk" format="1">
  <advance width="319"/>
  <unicode hex="002A"/>
  <outline>
    <contour>
      <point x="193" y="686" type="line"/>
      <point x="125" y="686" type="line"/>
      <point x="134" y="597" type="line"/>
      <point x="60" y="649" type="line"/>
      <point x="26" y="591" type="line"/>
      <point x="108" y="553" type="line"/>
      <point x="26" y="515" type="line"/>
      <point x="60" y="456" type="line"/>
      <point x="134" y="508" type="line"/>
      <point x="125" y="419" type="line"/>
      <point x="193" y="419" type="line"/>
      <point x="184" y="508" type="line"/>
      <point x="258" y="456" type="line"/>
      <point x="292" y="515" type="line"/>
      <point x="210" y="553" type="line"/>
      <point x="292" y="591" type="line"/>
      <point x="258" y="649" type="line"/>
      <point x="184" y="598" type="line"/>
    </contour>
  </outline>
</glyph>
<glyph name="plus" format="1">
  <advance width="479"/>
  <unicode hex="002B"/>
  <outline>
    <contour>
      <point x="280" y="511" type="line"/>
      <point x="197" y="511" type="line"/>
      <point x="197" y="297" type="line"/>
      <point x="43" y="297" type="line"/>
      <point x="43" y="213" type="line"/>
      <point x="197" y="213" type="line"/>
      <point x="197" y="0" type="line"/>
      <point x="280" y="0" type="line"/>
      <point x="280" y="213" type="line"/>
      <point x="435" y="213" type="line"/>
      <point x="435" y="297" type="line"/>
      <point x="280" y="297" type="line"/>
    </contour>
  </outline>
</glyph>
<glyph name="comma" format="1">
  <advance width="228"/>
  <unicode hex="002C"/>
  <outline>
    <contour>
      <point x="164" y="108" type="line"/>
      <point x="64" y="108" type="line"/>
      <point x="64" y="0" type="line"/>
      <point x="104" y="0" type="line"/>
      <point x="64" y="-124" type="line"/>
      <point x="116" y="-124" type="line"/>
      <point x="164" y="9" type="line"/>
    </contour>
  </outline>
</glyph>
<glyph name="hyphen" format="1">
  <advance width="273"/>
  <unicode hex="002D"/>
  <outline>
    <contour>
      <point x="262" y="319" type="line"/>
      <point x="10" y="319" type="line"/>
      <point x="10" y="221" type="line"/>
      <point x="262" y="221" type="line"/>
    </contour>
  </outline>
</glyph>
<glyph name="period" format="1">
  <advance width="228"/>
  <unicode hex="002E"/>
  <outline>
    <contour>
      <point x="164" y="108" type="line"/>
      <point x="64" y="108" type="line"/>
      <point x="64" y="0" type="line"/>
      <point x="164" y="0" type="line"/>
    </contour>
  </outline>
</glyph>
<glyph name="slash" format="1">
  <advance width="228"/>
  <unicode hex="002F"/>
  <outline>
    <contour>
      <point x="228" y="735" type="line"/>
      <point x="158" y="735" type="line"/>
      <point x="1" y="-49" type="line"/>
      <point x="72" y="-49" type="line"/>
    </contour>
  </outline>
</glyph>
<glyph name="zero" format="1">
  <advance width="456"/>
  <unicode hex="0030"/>
  <outline>
    <contour>
      <point x="228" y="698" type="curve" smooth="yes"/>
      <point x="110" y="698"/>
      <point x="40" y="622"/>
      <point x="40" y="343" type="curve" smooth="yes"/>
      <point x="40" y="64"/>
      <point x="110" y="-12"/>
      <point x="228" y="-12" type="curve" smooth="yes"/>
      <point x="345" y="-12"/>
      <point x="416" y="64"/>
      <point x="416" y="343" type="curve" smooth="yes"/>
      <point x="416" y="622"/>
      <point x="345" y="698"/>
    </contour>
    <contour>
      <point x="228" y="625" type="curve" smooth="yes"/>
      <point x="310" y="625"/>
      <point x="332" y="521"/>
      <point x="332" y="378" type="curve" smooth="yes"/>
      <point x="332" y="308" type="line"/>
      <point x="332" y="165"/>
      <point x="310" y="61"/>
      <point x="228" y="61" type="curve" smooth="yes"/>
      <point x="146" y="61"/>
      <point x="124" y="165"/>
      <point x="124" y="308" type="curve" smooth="yes"/>
      <point x="124" y="378" type="line" smooth="yes"/>
      <point x="124" y="521"/>
      <point x="146" y="625"/>
    </contour>
  </outline>
</glyph>
<glyph name="one" format="1">
  <advance width="456"/>
  <unicode hex="0031"/>
  <outline>
    <contour>
      <point x="295" y="686" type="line"/>
      <point x="263" y="686" type="line"/>
      <point x="199" y="648"/>
      <point x="105" y="619"/>
      <point x="49" y="613" type="curve"/>
      <point x="49" y="561" type="line"/>
      <point x="213" y="561" type="line"/>
      <point x="213" y="73" type="line"/>
      <point x="50" y="73" type="line"/>
      <point x="50" y="0" type="line"/>
      <point x="445" y="0" type="line"/>
      <point x="445" y="73" type="line"/>
      <point x="295" y="73" type="line"/>
    </contour>
  </outline>
</glyph>
<glyph name="two" format="1">
  <advance width="456"/>
  <unicode hex="0032"/>
  <outline>
    <contour>
      <point x="230" y="698" type="curve" smooth="yes"/>
      <point x="131" y="698"/>
      <point x="45" y="637"/>
      <point x="45" y="490" type="curve" smooth="yes"/>
      <point x="45" y="466"/>
      <point x="48" y="450"/>
      <point x="48" y="450" type="curve"/>
      <point x="133" y="450" type="line"/>
      <point x="133" y="491" type="line" smooth="yes"/>
      <point x="133" y="562"/>
      <point x="158" y="622"/>
      <point x="229" y="622" type="curve" smooth="yes"/>
      <point x="302" y="622"/>
      <point x="322" y="567"/>
      <point x="322" y="521" type="curve" smooth="yes"/>
      <point x="322" y="381"/>
      <point x="169" y="282"/>
      <point x="87" y="162" type="curve" smooth="yes"/>
      <point x="56" y="117"/>
      <point x="39" y="67"/>
      <point x="39" y="13" type="curve" smooth="yes"/>
      <point x="39" y="0" type="line"/>
      <point x="412" y="0" type="line"/>
      <point x="412" y="84" type="line"/>
      <point x="140" y="84" type="line"/>
      <point x="144" y="95"/>
      <point x="150" y="107"/>
      <point x="158" y="119" type="curve" smooth="yes"/>
      <point x="235" y="237"/>
      <point x="409" y="348"/>
      <point x="409" y="520" type="curve" smooth="yes"/>
      <point x="409" y="646"/>
      <point x="329" y="698"/>
    </contour>
  </outline>
</glyph>
<glyph name="three" format="1">
  <advance width="456"/>
  <unicode hex="0033"/>
  <outline>
    <contour>
      <point x="225" y="698" type="curve" smooth="yes"/>
      <point x="121" y="698"/>
      <point x="47" y="624"/>
      <point x="47" y="510" type="curve" smooth="yes"/>
      <point x="47" y="492" type="line"/>
      <point x="131" y="492" type="line"/>
      <point x="131" y="501" type="line" smooth="yes"/>
      <point x="131" y="586"/>
      <point x="171" y="625"/>
      <point x="226" y="625" type="curve" smooth="yes"/>
      <point x="276" y="625"/>
      <point x="320" y="590"/>
      <point x="320" y="505" type="curve" smooth="yes"/>
      <point x="320" y="424"/>
      <point x="274" y="385"/>
      <point x="221" y="385" type="curve" smooth="yes"/>
      <point x="162" y="385" type="line"/>
      <point x="162" y="312" type="line"/>
      <point x="219" y="312" type="line" smooth="yes"/>
      <point x="277" y="312"/>
      <point x="332" y="287"/>
      <point x="332" y="190" type="curve" smooth="yes"/>
      <point x="332" y="100"/>
      <point x="287" y="61"/>
      <point x="222" y="61" type="curve" smooth="yes"/>
      <point x="155" y="61"/>
      <point x="119" y="106"/>
      <point x="119" y="191" type="curve" smooth="yes"/>
      <point x="119" y="202" type="line"/>
      <point x="35" y="202" type="line"/>
      <point x="35" y="194" type="line" smooth="yes"/>
      <point x="35" y="69"/>
      <point x="103" y="-12"/>
      <point x="228" y="-12" type="curve" smooth="yes"/>
      <point x="338" y="-12"/>
      <point x="416" y="62"/>
      <point x="416" y="184" type="curve" smooth="yes"/>
      <point x="416" y="275"/>
      <point x="373" y="330"/>
      <point x="315" y="352" type="curve"/>
      <point x="315" y="356" type="line"/>
      <point x="366" y="385"/>
      <point x="404" y="429"/>
      <point x="404" y="510" type="curve" smooth="yes"/>
      <point x="404" y="632"/>
      <point x="332" y="698"/>
    </contour>
  </outline>
</glyph>
<glyph name="four" format="1">
  <advance width="456"/>
  <unicode hex="0034"/>
  <outline>
    <contour>
      <point x="198" y="698" type="line"/>
      <point x="158" y="542"/>
      <point x="92" y="374"/>
      <point x="20" y="243" type="curve"/>
      <point x="20" y="169" type="line"/>
      <point x="285" y="169" type="line"/>
      <point x="285" y="0" type="line"/>
      <point x="367" y="0" type="line"/>
      <point x="367" y="169" type="line"/>
      <point x="437" y="169" type="line"/>
      <point x="437" y="242" type="line"/>
      <point x="367" y="242" type="line"/>
      <point x="367" y="596" type="line"/>
      <point x="327" y="596" type="line"/>
      <point x="314" y="543"/>
      <point x="305" y="507"/>
      <point x="285" y="458" type="curve"/>
      <point x="285" y="242" type="line"/>
      <point x="97" y="242" type="line"/>
      <point x="135" y="297"/>
      <point x="243" y="514"/>
      <point x="281" y="698" type="curve"/>
    </contour>
  </outline>
</glyph>
<glyph name="five" format="1">
  <advance width="456"/>
  <unicode hex="0035"/>
  <outline>
    <contour>
      <point x="394" y="686" type="line"/>
      <point x="82" y="686" type="line"/>
      <point x="59" y="306" type="line"/>
      <point x="137" y="293" type="line"/>
      <point x="157" y="340"/>
      <point x="195" y="372"/>
      <point x="239" y="372" type="curve" smooth="yes"/>
      <point x="297" y="372"/>
      <point x="338" y="319"/>
      <point x="338" y="224" type="curve" smooth="yes"/>
      <point x="338" y="113"/>
      <point x="293" y="60"/>
      <point x="232" y="60" type="curve" smooth="yes"/>
      <point x="172" y="60"/>
      <point x="125" y="119"/>
      <point x="125" y="213" type="curve"/>
      <point x="40" y="213" type="line"/>
      <point x="40" y="73"/>
      <point x="116" y="-12"/>
      <point x="232" y="-12" type="curve" smooth="yes"/>
      <point x="350" y="-12"/>
      <point x="423" y="73"/>
      <point x="423" y="224" type="curve" smooth="yes"/>
      <point x="423" y="375"/>
      <point x="351" y="446"/>
      <point x="261" y="446" type="curve" smooth="yes"/>
      <point x="202" y="446"/>
      <point x="162" y="415"/>
      <point x="140" y="393" type="curve"/>
      <point x="153" y="602" type="line"/>
      <point x="394" y="602" type="line"/>
    </contour>
  </outline>
</glyph>
<glyph name="six" format="1">
  <advance width="456"/>
  <unicode hex="0036"/>
  <outline>
    <contour>
      <point x="232" y="698" type="curve" smooth="yes"/>
      <point x="111" y="698"/>
      <point x="40" y="609"/>
      <point x="40" y="323" type="curve" smooth="yes"/>
      <point x="40" y="69"/>
      <point x="114" y="-12"/>
      <point x="237" y="-12" type="curve" smooth="yes"/>
      <point x="340" y="-12"/>
      <point x="416" y="73"/>
      <point x="416" y="210" type="curve" smooth="yes"/>
      <point x="416" y="333"/>
      <point x="361" y="431"/>
      <point x="245" y="431" type="curve" smooth="yes"/>
      <point x="195" y="431"/>
      <point x="153" y="406"/>
      <point x="124" y="366" type="curve"/>
      <point x="125" y="525"/>
      <point x="145" y="625"/>
      <point x="228" y="625" type="curve" smooth="yes"/>
      <point x="286" y="625"/>
      <point x="315" y="570"/>
      <point x="315" y="475" type="curve"/>
      <point x="398" y="475" type="line"/>
      <point x="398" y="602"/>
      <point x="349" y="698"/>
    </contour>
    <contour>
      <point x="232" y="359" type="curve" smooth="yes"/>
      <point x="301" y="359"/>
      <point x="332" y="292"/>
      <point x="332" y="210" type="curve" smooth="yes"/>
      <point x="332" y="128"/>
      <point x="301" y="61"/>
      <point x="232" y="61" type="curve" smooth="yes"/>
      <point x="163" y="61"/>
      <point x="131" y="128"/>
      <point x="131" y="210" type="curve" smooth="yes"/>
      <point x="131" y="292"/>
      <point x="163" y="359"/>
    </contour>
  </outline>
</glyph>
<glyph name="seven" format="1">
  <advance width="456"/>
  <unicode hex="0037"/>
  <outline>
    <contour>
      <point x="423" y="686" type="line"/>
      <point x="33" y="686" type="line"/>
      <point x="33" y="602" type="line"/>
      <point x="320" y="602" type="line"/>
      <point x="231" y="459"/>
      <point x="119" y="236"/>
      <point x="119" y="0" type="curve"/>
      <point x="212" y="0" type="line"/>
      <point x="211" y="24"/>
      <point x="211" y="32"/>
      <point x="211" y="51" type="curve" smooth="yes"/>
      <point x="211" y="273"/>
      <point x="329" y="491"/>
      <point x="423" y="633" type="curve"/>
    </contour>
  </outline>
</glyph>
<glyph name="eight" format="1">
  <advance width="456"/>
  <unicode hex="0038"/>
  <outline>
    <contour>
      <point x="228" y="698" type="curve" smooth="yes"/>
      <point x="113" y="698"/>
      <point x="54" y="612"/>
      <point x="54" y="507" type="curve" smooth="yes"/>
      <point x="54" y="442"/>
      <point x="79" y="385"/>
      <point x="128" y="352" type="curve"/>
      <point x="66" y="321"/>
      <point x="40" y="262"/>
      <point x="40" y="188" type="curve" smooth="yes"/>
      <point x="40" y="78"/>
      <point x="95" y="-12"/>
      <point x="228" y="-12" type="curve" smooth="yes"/>
      <point x="361" y="-12"/>
      <point x="416" y="78"/>
      <point x="416" y="188" type="curve" smooth="yes"/>
      <point x="416" y="262"/>
      <point x="390" y="321"/>
      <point x="327" y="352" type="curve"/>
      <point x="377" y="385"/>
      <point x="402" y="442"/>
      <point x="402" y="507" type="curve" smooth="yes"/>
      <point x="402" y="612"/>
      <point x="343" y="698"/>
    </contour>
    <contour>
      <point x="228" y="314" type="curve" smooth="yes"/>
      <point x="296" y="314"/>
      <point x="332" y="266"/>
      <point x="332" y="188" type="curve" smooth="yes"/>
      <point x="332" y="110"/>
      <point x="296" y="61"/>
      <point x="228" y="61" type="curve" smooth="yes"/>
      <point x="160" y="61"/>
      <point x="124" y="110"/>
      <point x="124" y="188" type="curve" smooth="yes"/>
      <point x="124" y="266"/>
      <point x="160" y="314"/>
    </contour>
    <contour>
      <point x="228" y="625" type="curve" smooth="yes"/>
      <point x="284" y="625"/>
      <point x="321" y="580"/>
      <point x="321" y="506" type="curve" smooth="yes"/>
      <point x="321" y="432"/>
      <point x="284" y="387"/>
      <point x="228" y="387" type="curve" smooth="yes"/>
      <point x="172" y="387"/>
      <point x="136" y="432"/>
      <point x="136" y="506" type="curve" smooth="yes"/>
      <point x="136" y="580"/>
      <point x="172" y="625"/>
    </contour>
  </outline>
</glyph>
<glyph name="nine" format="1">
  <advance width="456"/>
  <unicode hex="0039"/>
  <outline>
    <contour>
      <point x="219" y="698" type="curve" smooth="yes"/>
      <point x="116" y="698"/>
      <point x="40" y="613"/>
      <point x="40" y="476" type="curve" smooth="yes"/>
      <point x="40" y="353"/>
      <point x="95" y="255"/>
      <point x="211" y="255" type="curve" smooth="yes"/>
      <point x="261" y="255"/>
      <point x="302" y="279"/>
      <point x="332" y="319" type="curve"/>
      <point x="330" y="161"/>
      <point x="312" y="61"/>
      <point x="232" y="61" type="curve" smooth="yes"/>
      <point x="171" y="61"/>
      <point x="141" y="116"/>
      <point x="141" y="211" type="curve"/>
      <point x="58" y="211" type="line"/>
      <point x="58" y="84"/>
      <point x="108" y="-12"/>
      <point x="228" y="-12" type="curve" smooth="yes"/>
      <point x="346" y="-12"/>
      <point x="416" y="77"/>
      <point x="416" y="363" type="curve" smooth="yes"/>
      <point x="416" y="617"/>
      <point x="342" y="698"/>
    </contour>
    <contour>
      <point x="224" y="625" type="curve" smooth="yes"/>
      <point x="293" y="625"/>
      <point x="325" y="558"/>
      <point x="325" y="476" type="curve" smooth="yes"/>
      <point x="325" y="394"/>
      <point x="293" y="327"/>
      <point x="224" y="327" type="curve" smooth="yes"/>
      <point x="155" y="327"/>
      <point x="124" y="394"/>
      <point x="124" y="476" type="curve" smooth="yes"/>
      <point x="124" y="558"/>
      <point x="155" y="625"/>
    </contour>
  </outline>
</glyph>
<glyph name="colon" format="1">
  <advance width="228"/>
  <unicode hex="003A"/>
  <outline>
    <contour>
      <point x="164" y="108" type="line"/>
      <point x="64" y="108" type="line"/>
      <point x="64" y="0" type="line"/>
      <point x="164" y="0" type="line"/>
    </contour>
    <contour>
      <point x="164" y="526" type="line"/>
      <point x="64" y="526" type="line"/>
      <point x="64" y="418" type="line"/>
      <point x="164" y="418" type="line"/>
    </contour>
  </outline>
</glyph>
<glyph name="less" format="1">
  <advance width="479"/>
  <unicode hex="003C"/>
  <outline>
    <contour>
      <point x="436" y="504" type="line"/>
      <point x="44" y="307" type="line"/>
      <point x="44" y="200" type="line"/>
      <point x="436" y="4" type="line"/>
      <point x="436" y="94" type="line"/>
      <point x="125" y="254" type="line"/>
      <point x="436" y="414" type="line"/>
    </contour>
  </outline>
</glyph>
<glyph name="equal" format="1">
  <advance width="479"/>
  <unicode hex="003D"/>
  <outline>
    <contour>
      <point x="435" y="402" type="line"/>
      <point x="43" y="402" type="line"/>
      <point x="43" y="318" type="line"/>
      <point x="435" y="318" type="line"/>
    </contour>
    <contour>
      <point x="435" y="189" type="line"/>
      <point x="43" y="189" type="line"/>
      <point x="43" y="106" type="line"/>
      <point x="435" y="106" type="line"/>
    </contour>
  </outline>
</glyph>
<glyph name="greater" format="1">
  <advance width="479"/>
  <unicode hex="003E"/>
  <outline>
    <contour>
      <point x="44" y="504" type="line"/>
      <point x="44" y="414" type="line"/>
      <point x="355" y="254" type="line"/>
      <point x="44" y="94" type="line"/>
      <point x="44" y="4" type="line"/>
      <point x="436" y="200" type="line"/>
      <point x="436" y="307" type="line"/>
    </contour>
  </outline>
</glyph>
<glyph name="question" format="1">
  <advance width="456"/>
  <unicode hex="003F"/>
  <outline>
    <contour>
      <point x="236" y="698" type="curve" smooth="yes"/>
      <point x="107" y="698"/>
      <point x="43" y="606"/>
      <point x="43" y="494" type="curve" smooth="yes"/>
      <point x="43" y="482"/>
      <point x="46" y="459"/>
      <point x="46" y="459" type="curve"/>
      <point x="135" y="459" type="line"/>
      <point x="135" y="459"/>
      <point x="134" y="470"/>
      <point x="134" y="486" type="curve" smooth="yes"/>
      <point x="134" y="532"/>
      <point x="144" y="621"/>
      <point x="229" y="621" type="curve" smooth="yes"/>
      <point x="309" y="621"/>
      <point x="318" y="537"/>
      <point x="318" y="509" type="curve" smooth="yes"/>
      <point x="318" y="378"/>
      <point x="192" y="370"/>
      <point x="192" y="236" type="curve" smooth="yes"/>
      <point x="192" y="180" type="line"/>
      <point x="279" y="180" type="line"/>
      <point x="279" y="221" type="line" smooth="yes"/>
      <point x="279" y="340"/>
      <point x="409" y="327"/>
      <point x="409" y="520" type="curve" smooth="yes"/>
      <point x="409" y="625"/>
      <point x="335" y="698"/>
    </contour>
    <contour>
      <point x="285" y="108" type="line"/>
      <point x="185" y="108" type="line"/>
      <point x="185" y="0" type="line"/>
      <point x="285" y="0" type="line"/>
    </contour>
  </outline>
</glyph>
<glyph name="at" format="1">
  <advance width="832"/>
  <unicode hex="0040"/>
  <outline>
    <contour>
      <point x="427" y="698" type="curve" smooth="yes"/>
      <point x="221" y="698"/>
      <point x="45" y="581"/>
      <point x="45" y="262" type="curve" smooth="yes"/>
      <point x="45" y="-27"/>
      <point x="179" y="-153"/>
      <point x="395" y="-153" type="curve" smooth="yes"/>
      <point x="434" y="-153"/>
      <point x="507" y="-142"/>
      <point x="545" y="-126" type="curve"/>
      <point x="545" y="-66" type="line"/>
      <point x="512" y="-84"/>
      <point x="437" y="-98"/>
      <point x="395" y="-98" type="curve" smooth="yes"/>
      <point x="196" y="-98"/>
      <point x="103" y="22"/>
      <point x="103" y="261" type="curve" smooth="yes"/>
      <point x="103" y="519"/>
      <point x="227" y="643"/>
      <point x="426" y="643" type="curve" smooth="yes"/>
      <point x="604" y="643"/>
      <point x="728" y="549"/>
      <point x="728" y="322" type="curve" smooth="yes"/>
      <point x="728" y="137"/>
      <point x="664" y="87"/>
      <point x="612" y="87" type="curve" smooth="yes"/>
      <point x="590" y="87"/>
      <point x="578" y="98"/>
      <point x="578" y="125" type="curve" smooth="yes"/>
      <point x="578" y="387" type="line" smooth="yes"/>
      <point x="578" y="472"/>
      <point x="530" y="521"/>
      <point x="434" y="521" type="curve" smooth="yes"/>
      <point x="344" y="521"/>
      <point x="280" y="476"/>
      <point x="280" y="388" type="curve" smooth="yes"/>
      <point x="280" y="380"/>
      <point x="280" y="374"/>
      <point x="281" y="368" type="curve"/>
      <point x="355" y="368" type="line"/>
      <point x="355" y="379" type="line" smooth="yes"/>
      <point x="355" y="416"/>
      <point x="372" y="455"/>
      <point x="428" y="455" type="curve" smooth="yes"/>
      <point x="489" y="455"/>
      <point x="504" y="423"/>
      <point x="504" y="377" type="curve" smooth="yes"/>
      <point x="504" y="315" type="line"/>
      <point x="365" y="315"/>
      <point x="262" y="287"/>
      <point x="262" y="155" type="curve" smooth="yes"/>
      <point x="262" y="40"/>
      <point x="341" y="21"/>
      <point x="387" y="21" type="curve" smooth="yes"/>
      <point x="437" y="21"/>
      <point x="479" y="45"/>
      <point x="504" y="84" type="curve"/>
      <point x="508" y="84" type="line"/>
      <point x="517" y="47"/>
      <point x="540" y="22"/>
      <point x="597" y="22" type="curve" smooth="yes"/>
      <point x="676" y="22"/>
      <point x="786" y="94"/>
      <point x="786" y="321" type="curve" smooth="yes"/>
      <point x="786" y="589"/>
      <point x="633" y="698"/>
    </contour>
    <contour>
      <point x="504" y="205" type="line"/>
      <point x="504" y="126"/>
      <point x="452" y="87"/>
      <point x="405" y="87" type="curve" smooth="yes"/>
      <point x="363" y="87"/>
      <point x="340" y="105"/>
      <point x="340" y="160" type="curve" smooth="yes"/>
      <point x="340" y="235"/>
      <point x="407" y="249"/>
      <point x="504" y="249" type="curve"/>
    </contour>
  </outline>
</glyph>
<glyph name="B" format="1">
  <advance width="547"/>
  <unicode hex="0042"/>
  <outline>
    <contour>
      <point x="65" y="0" type="line"/>
      <point x="325" y="0" type="line" smooth="yes"/>
      <point x="430" y="0"/>
      <point x="518" y="67"/>
      <point x="518" y="182" type="curve" smooth="yes"/>
      <point x="518" y="270"/>
      <point x="465" y="335"/>
      <point x="397" y="356" type="curve"/>
      <point x="397" y="360" type="line"/>
      <point x="456" y="381"/>
      <point x="502" y="439"/>
      <point x="502" y="518" type="curve" smooth="yes"/>
      <point x="502" y="619"/>
      <point x="427" y="686"/>
      <point x="325" y="686" type="curve" smooth="yes"/>
      <point x="65" y="686" type="line"/>
    </contour>
    <contour>
      <point x="307" y="311" type="line"/>
      <point x="380" y="311"/>
      <point x="426" y="256"/>
      <point x="426" y="194" type="curve" smooth="yes"/>
      <point x="426" y="120"/>
      <point x="378" y="80"/>
      <point x="313" y="80" type="curve" smooth="yes"/>
      <point x="153" y="80" type="line"/>
      <point x="153" y="311" type="line"/>
    </contour>
    <contour>
      <point x="305" y="606" type="line"/>
      <point x="368" y="606"/>
      <point x="410" y="571"/>
      <point x="410" y="499" type="curve" smooth="yes"/>
      <point x="410" y="441"/>
      <point x="366" y="391"/>
      <point x="299" y="391" type="curve" smooth="yes"/>
      <point x="153" y="391" type="line"/>
      <point x="153" y="606" type="line"/>
    </contour>
  </outline>
</glyph>
<glyph name="F" format="1">
  <advance width="501"/>
  <unicode hex="0046"/>
  <outline>
    <contour>
      <point x="158" y="0" type="line"/>
      <point x="158" y="304" type="line"/>
      <point x="430" y="304" type="line"/>
      <point x="430" y="384" type="line"/>
      <point x="158" y="384" type="line"/>
      <point x="158" y="606" type="line"/>
      <point x="466" y="606" type="line"/>
      <point x="466" y="686" type="line"/>
      <point x="70" y="686" type="line"/>
      <point x="70" y="0" type="line"/>
    </contour>
  </outline>
</glyph>
<glyph name="G" format="1">
  <advance width="638"/>
  <unicode hex="0047"/>
  <outline>
    <contour>
      <point x="515" y="0" type="line"/>
      <point x="573" y="0" type="line"/>
      <point x="573" y="357" type="line"/>
      <point x="305" y="357" type="line"/>
      <point x="305" y="280" type="line"/>
      <point x="483" y="280" type="line"/>
      <point x="483" y="264" type="line" smooth="yes"/>
      <point x="483" y="133"/>
      <point x="433" y="69"/>
      <point x="319" y="69" type="curve" smooth="yes"/>
      <point x="204" y="69"/>
      <point x="141" y="151"/>
      <point x="141" y="318" type="curve" smooth="yes"/>
      <point x="141" y="368" type="line" smooth="yes"/>
      <point x="141" y="535"/>
      <point x="211" y="617"/>
      <point x="324" y="617" type="curve" smooth="yes"/>
      <point x="418" y="617"/>
      <point x="483" y="566"/>
      <point x="483" y="452" type="curve"/>
      <point x="573" y="452" type="line"/>
      <point x="573" y="618"/>
      <point x="467" y="698"/>
      <point x="324" y="698" type="curve" smooth="yes"/>
      <point x="153" y="698"/>
      <point x="49" y="581"/>
      <point x="49" y="343" type="curve" smooth="yes"/>
      <point x="49" y="105"/>
      <point x="146" y="-12"/>
      <point x="319" y="-12" type="curve" smooth="yes"/>
      <point x="393" y="-12"/>
      <point x="454" y="14"/>
      <point x="496" y="76" type="curve"/>
    </contour>
    <contour>
      <point x="319" y="686" type="move" name="top"/>
    </contour>
    <contour>
      <point x="319" y="0" type="move" name="bottom"/>
    </contour>
  </outline>
</glyph>
<glyph name="H" format="1">
  <advance width="592"/>
  <unicode hex="0048"/>
  <outline>
    <contour>
      <point x="522" y="686" type="line"/>
      <point x="434" y="686" type="line"/>
      <point x="434" y="391" type="line"/>
      <point x="158" y="391" type="line"/>
      <point x="158" y="686" type="line"/>
      <point x="70" y="686" type="line"/>
      <point x="70" y="0" type="line"/>
      <point x="158" y="0" type="line"/>
      <point x="158" y="311" type="line"/>
      <point x="434" y="311" type="line"/>
      <point x="434" y="0" type="line"/>
      <point x="522" y="0" type="line"/>
    </contour>
    <contour>
      <point x="296" y="686" type="move" name="top"/>
    </contour>
    <contour>
      <point x="296" y="343" type="move" name="center"/>
    </contour>
  </outline>
</glyph>
<glyph name="I" format="1">
  <advance width="228"/>
  <unicode hex="0049"/>
  <outline>
    <contour>
      <point x="158" y="686" type="line"/>
      <point x="70" y="686" type="line"/>
      <point x="70" y="0" type="line"/>
      <point x="158" y="0" type="line"/>
    </contour>
    <contour>
      <point x="114" y="686" type="move" name="top"/>
    </contour>
    <contour>
      <point x="156" y="5" type="move" name="ogonek"/>
    </contour>
  </outline>
</glyph>
<glyph name="J" format="1">
  <advance width="410"/>
  <unicode hex="004A"/>
  <outline>
    <contour>
      <point x="345" y="686" type="line"/>
      <point x="257" y="686" type="line"/>
      <point x="257" y="158" type="line" smooth="yes"/>
      <point x="257" y="100"/>
      <point x="229" y="69"/>
      <point x="179" y="69" type="curve" smooth="yes"/>
      <point x="129" y="69"/>
      <point x="101" y="100"/>
      <point x="101" y="158" type="curve" smooth="yes"/>
      <point x="101" y="208" type="line"/>
      <point x="13" y="208" type="line"/>
      <point x="13" y="163" type="line" smooth="yes"/>
      <point x="13" y="49"/>
      <point x="74" y="-12"/>
      <point x="179" y="-12" type="curve" smooth="yes"/>
      <point x="284" y="-12"/>
      <point x="345" y="49"/>
      <point x="345" y="163" type="curve" smooth="yes"/>
    </contour>
    <contour>
      <point x="302" y="686" type="move" name="top"/>
    </contour>
  </outline>
</glyph>
<glyph name="K" format="1">
  <advance width="547"/>
  <unicode hex="004B"/>
  <outline>
    <contour>
      <point x="158" y="686" type="line"/>
      <point x="70" y="686" type="line"/>
      <point x="70" y="0" type="line"/>
      <point x="158" y="0" type="line"/>
      <point x="158" y="213" type="line"/>
      <point x="268" y="335" type="line"/>
      <point x="435" y="0" type="line"/>
      <point x="535" y="0" type="line"/>
      <point x="322" y="409" type="line"/>
      <point x="528" y="686" type="line"/>
      <point x="430" y="686" type="line"/>
      <point x="158" y="323" type="line"/>
    </contour>
    <contour>
      <point x="273" y="686" type="move" name="top"/>
    </contour>
    <contour>
      <point x="273" y="0" type="move" name="bottom"/>
    </contour>
  </outline>
</glyph>
<glyph name="L" format="1">
  <advance width="456"/>
  <unicode hex="004C"/>
  <outline>
    <contour>
      <point x="438" y="0" type="line"/>
      <point x="438" y="80" type="line"/>
      <point x="158" y="80" type="line"/>
      <point x="158" y="686" type="line"/>
      <point x="70" y="686" type="line"/>
      <point x="70" y="0" type="line"/>
    </contour>
    <contour>
      <point x="125" y="686" type="move" name="top"/>
    </contour>
    <contour>
      <point x="228" y="0" type="move" name="bottom"/>
    </contour>
  </outline>
</glyph>
<glyph name="M" format="1">
  <advance width="683"/>
  <unicode hex="004D"/>
  <outline>
    <contour>
      <point x="621" y="0" type="line"/>
      <point x="621" y="686" type="line"/>
      <point x="488" y="686" type="line"/>
      <point x="366" y="236" type="line" smooth="yes"/>
      <point x="353" y="188"/>
      <point x="344" y="82"/>
      <point x="344" y="82" type="curve"/>
      <point x="340" y="82" type="line"/>
      <point x="340" y="82"/>
      <point x="330" y="186"/>
      <point x="317" y="236" type="curve" smooth="yes"/>
      <point x="196" y="686" type="line"/>
      <point x="62" y="686" type="line"/>
      <point x="62" y="0" type="line"/>
      <point x="141" y="0" type="line"/>
      <point x="141" y="498" type="line" smooth="yes"/>
      <point x="141" y="518"/>
      <point x="135" y="604"/>
      <point x="135" y="604" type="curve"/>
      <point x="139" y="604" type="line"/>
      <point x="139" y="604"/>
      <point x="155" y="517"/>
      <point x="160" y="498" type="curve" smooth="yes"/>
      <point x="297" y="0" type="line"/>
      <point x="376" y="0" type="line"/>
      <point x="513" y="498" type="line" smooth="yes"/>
      <point x="520" y="522"/>
      <point x="536" y="604"/>
      <point x="536" y="604" type="curve"/>
      <point x="540" y="604" type="line"/>
      <point x="540" y="604"/>
      <point x="533" y="522"/>
      <point x="533" y="498" type="curve" smooth="yes"/>
      <point x="533" y="0" type="line"/>
    </contour>
  </outline>
</glyph>
<glyph name="N" format="1">
  <advance width="592"/>
  <unicode hex="004E"/>
  <outline>
    <contour>
      <point x="522" y="686" type="line"/>
      <point x="443" y="686" type="line"/>
      <point x="443" y="255" type="line" smooth="yes"/>
      <point x="443" y="233"/>
      <point x="446" y="164"/>
      <point x="446" y="164" type="curve"/>
      <point x="443" y="163" type="line"/>
      <point x="443" y="163"/>
      <point x="416" y="229"/>
      <point x="401" y="255" type="curve" smooth="yes"/>
      <point x="146" y="686" type="line"/>
      <point x="70" y="686" type="line"/>
      <point x="70" y="0" type="line"/>
      <point x="149" y="0" type="line"/>
      <point x="149" y="437" type="line" smooth="yes"/>
      <point x="149" y="465"/>
      <point x="145" y="528"/>
      <point x="145" y="528" type="curve"/>
      <point x="148" y="529" type="line"/>
      <point x="148" y="529"/>
      <point x="175" y="466"/>
      <point x="192" y="437" type="curve" smooth="yes"/>
      <point x="449" y="0" type="line"/>
      <point x="522" y="0" type="line"/>
    </contour>
    <contour>
      <point x="296" y="686" type="move" name="top"/>
    </contour>
    <contour>
      <point x="296" y="0" type="move" name="bottom"/>
    </contour>
  </outline>
</glyph>
<glyph name="P" format="1">
  <advance width="547"/>
  <unicode hex="0050"/>
  <outline>
    <contour>
      <point x="315" y="283" type="line"/>
      <point x="442" y="283"/>
      <point x="520" y="365"/>
      <point x="520" y="486" type="curve" smooth="yes"/>
      <point x="520" y="605"/>
      <point x="450" y="686"/>
      <point x="315" y="686" type="curve" smooth="yes"/>
      <point x="70" y="686" type="line"/>
      <point x="70" y="0" type="line"/>
      <point x="158" y="0" type="line"/>
      <point x="158" y="283" type="line"/>
    </contour>
    <contour>
      <point x="312" y="606" type="line"/>
      <point x="387" y="606"/>
      <point x="428" y="560"/>
      <point x="428" y="486" type="curve" smooth="yes"/>
      <point x="428" y="412"/>
      <point x="382" y="363"/>
      <point x="312" y="363" type="curve" smooth="yes"/>
      <point x="158" y="363" type="line"/>
      <point x="158" y="606" type="line"/>
    </contour>
  </outline>
</glyph>
<glyph name="Q" format="1">
  <advance width="638"/>
  <unicode hex="0051"/>
  <outline>
    <contour>
      <point x="49" y="343" type="curve" smooth="yes"/>
      <point x="49" y="105"/>
      <point x="151" y="-12"/>
      <point x="319" y="-12" type="curve" smooth="yes"/>
      <point x="331" y="-12" type="line"/>
      <point x="450" y="-124" type="line"/>
      <point x="568" y="-124" type="line"/>
      <point x="426" y="7" type="line"/>
      <point x="529" y="49"/>
      <point x="589" y="161"/>
      <point x="589" y="343" type="curve" smooth="yes"/>
      <point x="589" y="581"/>
      <point x="487" y="698"/>
      <point x="319" y="698" type="curve" smooth="yes"/>
      <point x="151" y="698"/>
      <point x="49" y="581"/>
    </contour>
    <contour>
      <point x="141" y="368" type="line" smooth="yes"/>
      <point x="141" y="535"/>
      <point x="209" y="617"/>
      <point x="319" y="617" type="curve" smooth="yes"/>
      <point x="429" y="617"/>
      <point x="497" y="535"/>
      <point x="497" y="368" type="curve" smooth="yes"/>
      <point x="497" y="318" type="line" smooth="yes"/>
      <point x="497" y="151"/>
      <point x="429" y="69"/>
      <point x="319" y="69" type="curve" smooth="yes"/>
      <point x="209" y="69"/>
      <point x="141" y="151"/>
      <point x="141" y="318" type="curve" smooth="yes"/>
    </contour>
  </outline>
</glyph>
<glyph name="R" format="1">
  <advance width="592"/>
  <unicode hex="0052"/>
  <outline>
    <contour>
      <point x="551" y="496" type="curve" smooth="yes"/>
      <point x="551" y="609"/>
      <point x="481" y="686"/>
      <point x="346" y="686" type="curve" smooth="yes"/>
      <point x="70" y="686" type="line"/>
      <point x="70" y="0" type="line"/>
      <point x="158" y="0" type="line"/>
      <point x="158" y="303" type="line"/>
      <point x="342" y="303" type="line"/>
      <point x="469" y="0" type="line"/>
      <point x="567" y="0" type="line"/>
      <point x="429" y="319" type="line"/>
      <point x="506" y="345"/>
      <point x="551" y="411"/>
    </contour>
    <contour>
      <point x="343" y="606" type="line" smooth="yes"/>
      <point x="418" y="606"/>
      <point x="459" y="564"/>
      <point x="459" y="496" type="curve" smooth="yes"/>
      <point x="459" y="428"/>
      <point x="413" y="383"/>
      <point x="343" y="383" type="curve" smooth="yes"/>
      <point x="158" y="383" type="line"/>
      <point x="158" y="606" type="line"/>
    </contour>
    <contour>
      <point x="296" y="686" type="move" name="top"/>
    </contour>
    <contour>
      <point x="296" y="0" type="move" name="bottom"/>
    </contour>
  </outline>
</glyph>
<glyph name="S" format="1">
  <advance width="547"/>
  <unicode hex="0053"/>
  <outline>
    <contour>
      <point x="273" y="698" type="curve" smooth="yes"/>
      <point x="153" y="698"/>
      <point x="55" y="640"/>
      <point x="55" y="514" type="curve" smooth="yes"/>
      <point x="55" y="266"/>
      <point x="412" y="356"/>
      <point x="412" y="183" type="curve" smooth="yes"/>
      <point x="412" y="109"/>
      <point x="360" y="69"/>
      <point x="268" y="69" type="curve" smooth="yes"/>
      <point x="190" y="69"/>
      <point x="132" y="109"/>
      <point x="132" y="193" type="curve" smooth="yes"/>
      <point x="132" y="199"/>
      <point x="133" y="213"/>
      <point x="133" y="214" type="curve"/>
      <point x="42" y="214" type="line"/>
      <point x="42" y="211"/>
      <point x="41" y="201"/>
      <point x="41" y="194" type="curve" smooth="yes"/>
      <point x="41" y="43"/>
      <point x="147" y="-12"/>
      <point x="272" y="-12" type="curve" smooth="yes"/>
      <point x="405" y="-12"/>
      <point x="504" y="44"/>
      <point x="504" y="198" type="curve" smooth="yes"/>
      <point x="504" y="439"/>
      <point x="148" y="357"/>
      <point x="148" y="521" type="curve" smooth="yes"/>
      <point x="148" y="587"/>
      <point x="203" y="617"/>
      <point x="275" y="617" type="curve" smooth="yes"/>
      <point x="344" y="617"/>
      <point x="397" y="578"/>
      <point x="397" y="508" type="curve" smooth="yes"/>
      <point x="397" y="493" type="line"/>
      <point x="488" y="493" type="line"/>
      <point x="488" y="505" type="line" smooth="yes"/>
      <point x="488" y="642"/>
      <point x="392" y="698"/>
    </contour>
    <contour>
      <point x="273" y="686" type="move" name="top"/>
    </contour>
    <contour>
      <point x="273" y="0" type="move" name="bottom"/>
    </contour>
  </outline>
</glyph>
<glyph name="T" format="1">
  <advance width="501"/>
  <unicode hex="0054"/>
  <outline>
    <contour>
      <point x="19" y="606" type="line"/>
      <point x="206" y="606" type="line"/>
      <point x="206" y="0" type="line"/>
      <point x="294" y="0" type="line"/>
      <point x="294" y="606" type="line"/>
      <point x="481" y="606" type="line"/>
      <point x="481" y="686" type="line"/>
      <point x="19" y="686" type="line"/>
    </contour>
    <contour>
      <point x="250" y="686" type="move" name="top"/>
    </contour>
    <contour>
      <point x="250" y="0" type="move" name="bottom"/>
    </contour>
    <contour>
      <point x="250" y="343" type="move" name="center"/>
    </contour>
  </outline>
</glyph>
<glyph name="U" format="1">
  <advance width="592"/>
  <unicode hex="0055"/>
  <outline>
    <contour>
      <point x="522" y="686" type="line"/>
      <point x="434" y="686" type="line"/>
      <point x="434" y="218" type="line" smooth="yes"/>
      <point x="434" y="121"/>
      <point x="382" y="69"/>
      <point x="296" y="69" type="curve" smooth="yes"/>
      <point x="210" y="69"/>
      <point x="158" y="121"/>
      <point x="158" y="218" type="curve" smooth="yes"/>
      <point x="158" y="686" type="line"/>
      <point x="70" y="686" type="line"/>
      <point x="70" y="223" type="line"/>
      <point x="70" y="69"/>
      <point x="155" y="-12"/>
      <point x="296" y="-12" type="curve" smooth="yes"/>
      <point x="437" y="-12"/>
      <point x="522" y="69"/>
      <point x="522" y="223" type="curve" smooth="yes"/>
    </contour>
    <contour>
      <point x="296" y="686" type="move" name="top"/>
    </contour>
    <contour>
      <point x="398" y="5" type="move" name="ogonek"/>
    </contour>
  </outline>
</glyph>
<glyph name="V" format="1">
  <advance width="547"/>
  <unicode hex="0056"/>
  <outline>
    <contour>
      <point x="539" y="686" type="line"/>
      <point x="454" y="686" type="line"/>
      <point x="279" y="97" type="line"/>
      <point x="275" y="97" type="line"/>
      <point x="105" y="686" type="line"/>
      <point x="8" y="686" type="line"/>
      <point x="217" y="0" type="line"/>
      <point x="330" y="0" type="line"/>
    </contour>
  </outline>
</glyph>
<glyph name="X" format="1">
  <advance width="547"/>
  <unicode hex="0058"/>
  <outline>
    <contour>
      <point x="427" y="686" type="line"/>
      <point x="427" y="685"/>
      <point x="276" y="441"/>
      <point x="276" y="441" type="curve"/>
      <point x="128" y="686" type="line"/>
      <point x="24" y="686" type="line"/>
      <point x="223" y="356" type="line"/>
      <point x="4" y="0" type="line"/>
      <point x="98" y="0" type="line"/>
      <point x="270" y="280" type="line"/>
      <point x="439" y="0" type="line"/>
      <point x="543" y="0" type="line"/>
      <point x="322" y="364" type="line"/>
      <point x="322" y="364"/>
      <point x="521" y="685"/>
      <point x="521" y="686" type="curve"/>
    </contour>
  </outline>
</glyph>
<glyph name="Y" format="1">
  <advance width="547"/>
  <unicode hex="0059"/>
  <outline>
    <contour>
      <point x="539" y="686" type="line"/>
      <point x="454" y="686" type="line"/>
      <point x="283" y="368" type="line"/>
      <point x="279" y="368" type="line"/>
      <point x="105" y="686" type="line"/>
      <point x="8" y="686" type="line"/>
      <point x="230" y="284" type="line"/>
      <point x="230" y="0" type="line"/>
      <point x="318" y="0" type="line"/>
      <point x="318" y="284" type="line"/>
    </contour>
    <contour>
      <point x="273" y="686" type="move" name="top"/>
    </contour>
  </outline>
</glyph>
<glyph name="Z" format="1">
  <advance width="501"/>
  <unicode hex="005A"/>
  <outline>
    <contour>
      <point x="479" y="0" type="line"/>
      <point x="479" y="80" type="line"/>
      <point x="145" y="80" type="line"/>
      <point x="472" y="648" type="line"/>
      <point x="472" y="686" type="line"/>
      <point x="41" y="686" type="line"/>
      <point x="41" y="606" type="line"/>
      <point x="346" y="606" type="line"/>
      <point x="20" y="38" type="line"/>
      <point x="20" y="0" type="line"/>
    </contour>
    <contour>
      <point x="250" y="686" type="move" name="top"/>
    </contour>
  </outline>
</glyph>
<glyph name="bracketleft" format="1">
  <advance width="228"/>
  <unicode hex="005B"/>
  <outline>
    <contour>
      <point x="208" y="735" type="line"/>
      <point x="49" y="735" type="line"/>
      <point x="49" y="-161" type="line"/>
      <point x="208" y="-161" type="line"/>
      <point x="208" y="-96" type="line"/>
      <point x="125" y="-96" type="line"/>
      <point x="125" y="670" type="line"/>
      <point x="208" y="670" type="line"/>
    </contour>
  </outline>
</glyph>
<glyph name="backslash" format="1">
  <advance width="228"/>
  <unicode hex="005C"/>
  <outline>
    <contour>
      <point x="71" y="735" type="line"/>
      <point x="1" y="735" type="line"/>
      <point x="157" y="-49" type="line"/>
      <point x="228" y="-49" type="line"/>
    </contour>
  </outline>
</glyph>
<glyph name="bracketright" format="1">
  <advance width="228"/>
  <unicode hex="005D"/>
  <outline>
    <contour>
      <point x="179" y="735" type="line"/>
      <point x="20" y="735" type="line"/>
      <point x="20" y="670" type="line"/>
      <point x="103" y="670" type="line"/>
      <point x="103" y="-96" type="line"/>
      <point x="20" y="-96" type="line"/>
      <point x="20" y="-161" type="line"/>
      <point x="179" y="-161" type="line"/>
    </contour>
  </outline>
</glyph>
<glyph name="asciicircum" format="1">
  <advance width="385"/>
  <unicode hex="005E"/>
  <outline>
    <contour>
      <point x="247" y="686" type="line"/>
      <point x="140" y="686" type="line"/>
      <point x="4" y="294" type="line"/>
      <point x="94" y="294" type="line"/>
      <point x="193" y="609" type="line"/>
      <point x="294" y="294" type="line"/>
      <point x="384" y="294" type="line"/>
    </contour>
  </outline>
</glyph>
<glyph name="underscore" format="1">
  <advance width="456"/>
  <unicode hex="005F"/>
  <outline>
    <contour>
      <point x="455" y="-71" type="line"/>
      <point x="0" y="-71" type="line"/>
      <point x="0" y="-124" type="line"/>
      <point x="455" y="-124" type="line"/>
    </contour>
  </outline>
</glyph>
<glyph name="grave" format="1">
  <advance width="273"/>
  <unicode hex="0060"/>
  <outline>
    <contour>
      <point x="118" y="723" type="line"/>
      <point x="28" y="723" type="line"/>
      <point x="27" y="720" type="line"/>
      <point x="135" y="591" type="line"/>
      <point x="204" y="591" type="line"/>
    </contour>
    <contour>
      <point x="151" y="526" type="move" name="_top"/>
    </contour>
  </outline>
</glyph>
<glyph name="a" format="1">
  <advance width="456"/>
  <unicode hex="0061"/>
  <outline>
    <contour>
      <point x="223" y="538" type="curve" smooth="yes"/>
      <point x="124" y="538"/>
      <point x="54" y="488"/>
      <point x="54" y="392" type="curve" smooth="yes"/>
      <point x="54" y="383"/>
      <point x="54" y="376"/>
      <point x="55" y="370" type="curve"/>
      <point x="136" y="370" type="line"/>
      <point x="136" y="382" type="line" smooth="yes"/>
      <point x="136" y="422"/>
      <point x="155" y="465"/>
      <point x="217" y="465" type="curve" smooth="yes"/>
      <point x="284" y="465"/>
      <point x="300" y="430"/>
      <point x="300" y="380" type="curve" smooth="yes"/>
      <point x="300" y="312" type="line"/>
      <point x="147" y="312"/>
      <point x="34" y="281"/>
      <point x="34" y="136" type="curve" smooth="yes"/>
      <point x="34" y="9"/>
      <point x="120" y="-12"/>
      <point x="172" y="-12" type="curve" smooth="yes"/>
      <point x="227" y="-12"/>
      <point x="273" y="14"/>
      <point x="300" y="57" type="curve"/>
      <point x="305" y="57" type="line"/>
      <point x="315" y="18"/>
      <point x="345" y="-8"/>
      <point x="388" y="-8" type="curve" smooth="yes"/>
      <point x="414" y="-8"/>
      <point x="433" y="-1"/>
      <point x="442" y="4" type="curve"/>
      <point x="442" y="61" type="line"/>
      <point x="410" y="61" type="line" smooth="yes"/>
      <point x="396" y="61"/>
      <point x="382" y="71"/>
      <point x="382" y="96" type="curve" smooth="yes"/>
      <point x="382" y="391" type="line" smooth="yes"/>
      <point x="382" y="484"/>
      <point x="329" y="538"/>
    </contour>
    <contour>
      <point x="300" y="191" type="line"/>
      <point x="300" y="104"/>
      <point x="243" y="61"/>
      <point x="191" y="61" type="curve" smooth="yes"/>
      <point x="145" y="61"/>
      <point x="120" y="81"/>
      <point x="120" y="141" type="curve" smooth="yes"/>
      <point x="120" y="223"/>
      <point x="193" y="239"/>
      <point x="300" y="239" type="curve"/>
    </contour>
    <contour>
      <point x="228" y="526" type="move" name="top"/>
    </contour>
    <contour>
      <point x="438" y="5" type="move" name="ogonek"/>
    </contour>
  </outline>
</glyph>
<glyph name="b" format="1">
  <advance width="456"/>
  <unicode hex="0062"/>
  <outline>
    <contour>
      <point x="138" y="61" type="line"/>
      <point x="163" y="13"/>
      <point x="205" y="-12"/>
      <point x="253" y="-12" type="curve" smooth="yes"/>
      <point x="353" y="-12"/>
      <point x="416" y="71"/>
      <point x="416" y="264" type="curve" smooth="yes"/>
      <point x="416" y="455"/>
      <point x="346" y="538"/>
      <point x="259" y="538" type="curve" smooth="yes"/>
      <point x="208" y="538"/>
      <point x="165" y="515"/>
      <point x="147" y="476" type="curve"/>
      <point x="142" y="476" type="line"/>
      <point x="142" y="723" type="line"/>
      <point x="60" y="723" type="line"/>
      <point x="60" y="0" type="line"/>
      <point x="122" y="0" type="line"/>
      <point x="133" y="61" type="line"/>
    </contour>
    <contour>
      <point x="330" y="244" type="line"/>
      <point x="330" y="113"/>
      <point x="299" y="61"/>
      <point x="236" y="61" type="curve" smooth="yes"/>
      <point x="173" y="61"/>
      <point x="142" y="123"/>
      <point x="142" y="244" type="curve" smooth="yes"/>
      <point x="142" y="278" type="line" smooth="yes"/>
      <point x="142" y="402"/>
      <point x="173" y="465"/>
      <point x="236" y="465" type="curve" smooth="yes"/>
      <point x="299" y="465"/>
      <point x="330" y="413"/>
      <point x="330" y="282" type="curve" smooth="yes"/>
    </contour>
  </outline>
</glyph>
<glyph name="e" format="1">
  <advance width="456"/>
  <unicode hex="0065"/>
  <outline>
    <contour>
      <point x="240" y="538" type="curve" smooth="yes"/>
      <point x="108" y="538"/>
      <point x="42" y="452"/>
      <point x="42" y="263" type="curve" smooth="yes"/>
      <point x="42" y="68"/>
      <point x="110" y="-12"/>
      <point x="241" y="-12" type="curve" smooth="yes"/>
      <point x="343" y="-12"/>
      <point x="413" y="61"/>
      <point x="413" y="179" type="curve"/>
      <point x="332" y="179" type="line"/>
      <point x="332" y="106"/>
      <point x="295" y="61"/>
      <point x="243" y="61" type="curve" smooth="yes"/>
      <point x="165" y="61"/>
      <point x="129" y="116"/>
      <point x="128" y="239" type="curve"/>
      <point x="413" y="239" type="line"/>
      <point x="413" y="291" type="line" smooth="yes"/>
      <point x="413" y="467"/>
      <point x="355" y="538"/>
    </contour>
    <contour>
      <point x="240" y="465" type="curve" smooth="yes"/>
      <point x="297" y="465"/>
      <point x="327" y="412"/>
      <point x="327" y="312" type="curve"/>
      <point x="129" y="312" type="line"/>
      <point x="136" y="413"/>
      <point x="167" y="465"/>
    </contour>
    <contour>
      <point x="228" y="526" type="move" name="top"/>
    </contour>
    <contour>
      <point x="228" y="0" type="move" name="bottom"/>
    </contour>
    <contour>
      <point x="322" y="5" type="move" name="ogonek"/>
    </contour>
  </outline>
</glyph>
<glyph name="f" format="1">
  <advance width="228"/>
  <unicode hex="0066"/>
  <outline>
    <contour>
      <point x="159" y="731" type="curve" smooth="yes"/>
      <point x="79" y="731"/>
      <point x="55" y="670"/>
      <point x="55" y="610" type="curve" smooth="yes"/>
      <point x="55" y="526" type="line"/>
      <point x="9" y="526" type="line"/>
      <point x="9" y="453" type="line"/>
      <point x="55" y="453" type="line"/>
      <point x="55" y="0" type="line"/>
      <point x="137" y="0" type="line"/>
      <point x="137" y="453" type="line"/>
      <point x="228" y="453" type="line"/>
      <point x="228" y="526" type="line"/>
      <point x="137" y="526" type="line"/>
      <point x="137" y="614" type="line"/>
      <point x="137" y="645"/>
      <point x="153" y="662"/>
      <point x="184" y="662" type="curve" smooth="yes"/>
      <point x="228" y="662" type="line"/>
      <point x="228" y="719" type="line"/>
      <point x="211" y="725"/>
      <point x="183" y="731"/>
    </contour>
  </outline>
</glyph>
<glyph name="g" format="1">
  <advance width="456"/>
  <unicode hex="0067"/>
  <outline>
    <contour>
      <point x="364" y="611" type="line"/>
      <point x="359" y="578"/>
      <point x="346" y="544"/>
      <point x="299" y="519" type="curve"/>
      <point x="277" y="531"/>
      <point x="250" y="538"/>
      <point x="223" y="538" type="curve" smooth="yes"/>
      <point x="116" y="538"/>
      <point x="51" y="471"/>
      <point x="51" y="361" type="curve" smooth="yes"/>
      <point x="51" y="302"/>
      <point x="74" y="256"/>
      <point x="112" y="225" type="curve"/>
      <point x="68" y="209"/>
      <point x="38" y="177"/>
      <point x="38" y="134" type="curve" smooth="yes"/>
      <point x="38" y="103"/>
      <point x="54" y="72"/>
      <point x="81" y="55" type="curve"/>
      <point x="39" y="39"/>
      <point x="13" y="-6"/>
      <point x="13" y="-57" type="curve" smooth="yes"/>
      <point x="13" y="-126"/>
      <point x="57" y="-182"/>
      <point x="143" y="-182" type="curve" smooth="yes"/>
      <point x="292" y="-182" type="line" smooth="yes"/>
      <point x="392" y="-182"/>
      <point x="446" y="-116"/>
      <point x="446" y="-33" type="curve" smooth="yes"/>
      <point x="446" y="34"/>
      <point x="398" y="90"/>
      <point x="322" y="90" type="curve" smooth="yes"/>
      <point x="172" y="90" type="line" smooth="yes"/>
      <point x="146" y="90"/>
      <point x="124" y="111"/>
      <point x="124" y="137" type="curve" smooth="yes"/>
      <point x="124" y="163"/>
      <point x="145" y="184"/>
      <point x="172" y="184" type="curve" smooth="yes"/>
      <point x="227" y="184" type="line" smooth="yes"/>
      <point x="329" y="185"/>
      <point x="395" y="252"/>
      <point x="395" y="361" type="curve" smooth="yes"/>
      <point x="395" y="413"/>
      <point x="377" y="455"/>
      <point x="348" y="485" type="curve"/>
      <point x="403" y="499"/>
      <point x="436" y="548"/>
      <point x="436" y="611" type="curve"/>
    </contour>
    <contour>
      <point x="301" y="12" type="line"/>
      <point x="343" y="12"/>
      <point x="363" y="-15"/>
      <point x="363" y="-49" type="curve" smooth="yes"/>
      <point x="363" y="-83"/>
      <point x="336" y="-111"/>
      <point x="301" y="-111" type="curve" smooth="yes"/>
      <point x="156" y="-111" type="line"/>
      <point x="115" y="-111"/>
      <point x="95" y="-83"/>
      <point x="95" y="-49" type="curve" smooth="yes"/>
      <point x="95" y="-15"/>
      <point x="114" y="12"/>
      <point x="156" y="12" type="curve" smooth="yes"/>
    </contour>
    <contour>
      <point x="222" y="470" type="curve" smooth="yes"/>
      <point x="280" y="470"/>
      <point x="312" y="431"/>
      <point x="312" y="361" type="curve" smooth="yes"/>
      <point x="312" y="294"/>
      <point x="280" y="252"/>
      <point x="222" y="252" type="curve" smooth="yes"/>
      <point x="164" y="252"/>
      <point x="133" y="291"/>
      <point x="133" y="361" type="curve" smooth="yes"/>
      <point x="133" y="428"/>
      <point x="164" y="470"/>
    </contour>
    <contour>
      <point x="228" y="526" type="move" name="top"/>
    </contour>
  </outline>
</glyph>
<glyph name="h" format="1">
  <advance width="456"/>
  <unicode hex="0068"/>
  <outline>
    <contour>
      <point x="142" y="723" type="line"/>
      <point x="60" y="723" type="line"/>
      <point x="60" y="0" type="line"/>
      <point x="142" y="0" type="line"/>
      <point x="142" y="321" type="line" smooth="yes"/>
      <point x="142" y="412"/>
      <point x="188" y="465"/>
      <point x="240" y="465" type="curve" smooth="yes"/>
      <point x="284" y="465"/>
      <point x="314" y="446"/>
      <point x="314" y="373" type="curve" smooth="yes"/>
      <point x="314" y="0" type="line"/>
      <point x="396" y="0" type="line"/>
      <point x="396" y="379" type="line" smooth="yes"/>
      <point x="396" y="496"/>
      <point x="345" y="538"/>
      <point x="266" y="538" type="curve" smooth="yes"/>
      <point x="214" y="538"/>
      <point x="175" y="518"/>
      <point x="148" y="471" type="curve"/>
      <point x="142" y="471" type="line"/>
    </contour>
    <contour>
      <point x="103" y="686" type="move" name="top"/>
    </contour>
    <contour>
      <point x="228" y="263" type="move" name="center"/>
    </contour>
  </outline>
</glyph>
<glyph name="i" format="1">
  <advance width="182"/>
  <unicode hex="0069"/>
  <outline>
    <contour>
      <point x="132" y="526" type="line"/>
      <point x="50" y="526" type="line"/>
      <point x="50" y="0" type="line"/>
      <point x="132" y="0" type="line"/>
    </contour>
    <contour>
      <point x="132" y="723" type="line"/>
      <point x="50" y="723" type="line"/>
      <point x="50" y="625" type="line"/>
      <point x="132" y="625" type="line"/>
    </contour>
  </outline>
</glyph>
<glyph name="j" format="1">
  <advance width="182"/>
  <unicode hex="006A"/>
  <outline>
    <contour>
      <point x="132" y="526" type="line"/>
      <point x="50" y="526" type="line"/>
      <point x="50" y="-65" type="line"/>
      <point x="50" y="-96"/>
      <point x="34" y="-113"/>
      <point x="3" y="-113" type="curve" smooth="yes"/>
      <point x="-41" y="-113" type="line"/>
      <point x="-41" y="-170" type="line"/>
      <point x="-24" y="-176"/>
      <point x="4" y="-182"/>
      <point x="28" y="-182" type="curve" smooth="yes"/>
      <point x="108" y="-182"/>
      <point x="132" y="-121"/>
      <point x="132" y="-61" type="curve" smooth="yes"/>
    </contour>
    <contour>
      <point x="132" y="723" type="line"/>
      <point x="50" y="723" type="line"/>
      <point x="50" y="625" type="line"/>
      <point x="132" y="625" type="line"/>
    </contour>
  </outline>
</glyph>
<glyph name="k" format="1">
  <advance width="410"/>
  <unicode hex="006B"/>
  <outline>
    <contour>
      <point x="142" y="723" type="line"/>
      <point x="60" y="723" type="line"/>
      <point x="60" y="0" type="line"/>
      <point x="142" y="0" type="line"/>
      <point x="142" y="179" type="line"/>
      <point x="198" y="240" type="line"/>
      <point x="318" y="0" type="line"/>
      <point x="411" y="0" type="line"/>
      <point x="248" y="310" type="line"/>
      <point x="403" y="526" type="line"/>
      <point x="312" y="526" type="line"/>
      <point x="142" y="282" type="line"/>
    </contour>
    <contour>
      <point x="205" y="0" type="move" name="bottom"/>
    </contour>
  </outline>
</glyph>
<glyph name="l" format="1">
  <advance width="182"/>
  <unicode hex="006C"/>
  <outline>
    <contour>
      <point x="132" y="723" type="line"/>
      <point x="50" y="723" type="line"/>
      <point x="50" y="0" type="line"/>
      <point x="132" y="0" type="line"/>
    </contour>
    <contour>
      <point x="91" y="686" type="move" name="top"/>
    </contour>
    <contour>
      <point x="91" y="0" type="move" name="bottom"/>
    </contour>
    <contour>
      <point x="172" y="526" type="move" name="topright"/>
    </contour>
  </outline>
</glyph>
<glyph name="m" format="1">
  <advance width="683"/>
  <unicode hex="006D"/>
  <outline>
    <contour>
      <point x="499" y="538" type="curve" smooth="yes"/>
      <point x="449" y="538"/>
      <point x="399" y="512"/>
      <point x="371" y="462" type="curve"/>
      <point x="352" y="516"/>
      <point x="311" y="538"/>
      <point x="259" y="538" type="curve" smooth="yes"/>
      <point x="209" y="538"/>
      <point x="167" y="517"/>
      <point x="139" y="465" type="curve"/>
      <point x="133" y="465" type="line"/>
      <point x="122" y="526" type="line"/>
      <point x="60" y="526" type="line"/>
      <point x="60" y="0" type="line"/>
      <point x="142" y="0" type="line"/>
      <point x="142" y="321" type="line" smooth="yes"/>
      <point x="142" y="412"/>
      <point x="184" y="465"/>
      <point x="233" y="465" type="curve" smooth="yes"/>
      <point x="272" y="465"/>
      <point x="301" y="446"/>
      <point x="301" y="373" type="curve" smooth="yes"/>
      <point x="301" y="0" type="line"/>
      <point x="383" y="0" type="line"/>
      <point x="383" y="321" type="line"/>
      <point x="383" y="412"/>
      <point x="424" y="465"/>
      <point x="473" y="465" type="curve" smooth="yes"/>
      <point x="512" y="465"/>
      <point x="541" y="446"/>
      <point x="541" y="373" type="curve" smooth="yes"/>
      <point x="541" y="0" type="line"/>
      <point x="623" y="0" type="line"/>
      <point x="623" y="379" type="line" smooth="yes"/>
      <point x="623" y="496"/>
      <point x="573" y="538"/>
    </contour>
  </outline>
</glyph>
<glyph name="p" format="1">
  <advance width="456"/>
  <unicode hex="0070"/>
  <outline>
    <contour>
      <point x="253" y="538" type="curve" smooth="yes"/>
      <point x="205" y="538"/>
      <point x="163" y="513"/>
      <point x="138" y="465" type="curve"/>
      <point x="133" y="465" type="line"/>
      <point x="122" y="526" type="line"/>
      <point x="60" y="526" type="line"/>
      <point x="60" y="-173" type="line"/>
      <point x="142" y="-173" type="line"/>
      <point x="142" y="46" type="line"/>
      <point x="147" y="46" type="line"/>
      <point x="165" y="10"/>
      <point x="208" y="-12"/>
      <point x="259" y="-12" type="curve" smooth="yes"/>
      <point x="346" y="-12"/>
      <point x="416" y="71"/>
      <point x="416" y="262" type="curve" smooth="yes"/>
      <point x="416" y="455"/>
      <point x="353" y="538"/>
    </contour>
    <contour>
      <point x="236" y="465" type="curve" smooth="yes"/>
      <point x="299" y="465"/>
      <point x="330" y="413"/>
      <point x="330" y="282" type="curve"/>
      <point x="330" y="244" type="line" smooth="yes"/>
      <point x="330" y="113"/>
      <point x="299" y="61"/>
      <point x="236" y="61" type="curve" smooth="yes"/>
      <point x="173" y="61"/>
      <point x="142" y="123"/>
      <point x="142" y="244" type="curve" smooth="yes"/>
      <point x="142" y="282" type="line" smooth="yes"/>
      <point x="142" y="403"/>
      <point x="173" y="465"/>
    </contour>
  </outline>
</glyph>
<glyph name="q" format="1">
  <advance width="456"/>
  <unicode hex="0071"/>
  <outline>
    <contour>
      <point x="318" y="465" type="line"/>
      <point x="293" y="513"/>
      <point x="251" y="538"/>
      <point x="203" y="538" type="curve" smooth="yes"/>
      <point x="103" y="538"/>
      <point x="40" y="455"/>
      <point x="40" y="262" type="curve" smooth="yes"/>
      <point x="40" y="71"/>
      <point x="110" y="-12"/>
      <point x="197" y="-12" type="curve" smooth="yes"/>
      <point x="248" y="-12"/>
      <point x="291" y="10"/>
      <point x="309" y="46" type="curve"/>
      <point x="314" y="46" type="line"/>
      <point x="314" y="-173" type="line"/>
      <point x="396" y="-173" type="line"/>
      <point x="396" y="526" type="line"/>
      <point x="334" y="526" type="line"/>
      <point x="323" y="465" type="line"/>
    </contour>
    <contour>
      <point x="126" y="282" type="line"/>
      <point x="126" y="413"/>
      <point x="157" y="465"/>
      <point x="220" y="465" type="curve" smooth="yes"/>
      <point x="283" y="465"/>
      <point x="314" y="403"/>
      <point x="314" y="282" type="curve" smooth="yes"/>
      <point x="314" y="244" type="line" smooth="yes"/>
      <point x="314" y="123"/>
      <point x="283" y="61"/>
      <point x="220" y="61" type="curve" smooth="yes"/>
      <point x="157" y="61"/>
      <point x="126" y="113"/>
      <point x="126" y="244" type="curve" smooth="yes"/>
    </contour>
  </outline>
</glyph>
<glyph name="r" format="1">
  <advance width="273"/>
  <unicode hex="0072"/>
  <outline>
    <contour>
      <point x="228" y="538" type="curve" smooth="yes"/>
      <point x="178" y="538"/>
      <point x="152" y="497"/>
      <point x="139" y="457" type="curve"/>
      <point x="133" y="457" type="line"/>
      <point x="122" y="526" type="line"/>
      <point x="60" y="526" type="line"/>
      <point x="60" y="0" type="line"/>
      <point x="142" y="0" type="line"/>
      <point x="142" y="321" type="line" smooth="yes"/>
      <point x="142" y="414"/>
      <point x="188" y="445"/>
      <point x="240" y="445" type="curve" smooth="yes"/>
      <point x="267" y="445" type="line"/>
      <point x="267" y="530" type="line"/>
      <point x="267" y="530"/>
      <point x="250" y="538"/>
    </contour>
    <contour>
      <point x="122" y="526" type="move" name="top"/>
    </contour>
    <contour>
      <point x="109" y="0" type="move" name="bottom"/>
    </contour>
  </outline>
</glyph>
<glyph name="t" format="1">
  <advance width="228"/>
  <unicode hex="0074"/>
  <outline>
    <contour>
      <point x="141" y="672" type="line"/>
      <point x="77" y="672" type="line"/>
      <point x="59" y="526" type="line"/>
      <point x="14" y="526" type="line"/>
      <point x="14" y="453" type="line"/>
      <point x="59" y="453" type="line"/>
      <point x="59" y="111" type="line" smooth="yes"/>
      <point x="59" y="51"/>
      <point x="81" y="-10"/>
      <point x="153" y="-10" type="curve" smooth="yes"/>
      <point x="173" y="-10"/>
      <point x="198" y="-4"/>
      <point x="212" y="4" type="curve"/>
      <point x="212" y="61" type="line"/>
      <point x="188" y="61" type="line" smooth="yes"/>
      <point x="157" y="61"/>
      <point x="141" y="78"/>
      <point x="141" y="109" type="curve" smooth="yes"/>
      <point x="141" y="453" type="line"/>
      <point x="212" y="453" type="line"/>
      <point x="212" y="526" type="line"/>
      <point x="141" y="526" type="line"/>
    </contour>
    <contour>
      <point x="114" y="0" type="move" name="bottom"/>
    </contour>
    <contour>
      <point x="114" y="263" type="move" name="center"/>
    </contour>
  </outline>
</glyph>
<glyph name="v" format="1">
  <advance width="410"/>
  <unicode hex="0076"/>
  <outline>
    <contour>
      <point x="401" y="526" type="line"/>
      <point x="318" y="526" type="line"/>
      <point x="211" y="126" type="line"/>
      <point x="207" y="126" type="line"/>
      <point x="100" y="526" type="line"/>
      <point x="10" y="526" type="line"/>
      <point x="161" y="0" type="line"/>
      <point x="250" y="0" type="line"/>
    </contour>
  </outline>
</glyph>
<glyph name="w" format="1">
  <advance width="592"/>
  <unicode hex="0077"/>
  <outline>
    <contour>
      <point x="590" y="526" type="line"/>
      <point x="507" y="526" type="line"/>
      <point x="441" y="230" type="line" smooth="yes"/>
      <point x="428" y="170"/>
      <point x="420" y="105"/>
      <point x="420" y="105" type="curve"/>
      <point x="416" y="105" type="line"/>
      <point x="416" y="105"/>
      <point x="409" y="177"/>
      <point x="400" y="230" type="curve" smooth="yes"/>
      <point x="346" y="526" type="line"/>
      <point x="251" y="526" type="line"/>
      <point x="198" y="230" type="line" smooth="yes"/>
      <point x="189" y="176"/>
      <point x="182" y="105"/>
      <point x="182" y="105" type="curve"/>
      <point x="178" y="105" type="line"/>
      <point x="178" y="105"/>
      <point x="167" y="187"/>
      <point x="157" y="230" type="curve" smooth="yes"/>
      <point x="91" y="526" type="line"/>
      <point x="1" y="526" type="line"/>
      <point x="132" y="0" type="line"/>
      <point x="223" y="0" type="line"/>
      <point x="277" y="300" type="line" smooth="yes"/>
      <point x="287" y="355"/>
      <point x="293" y="421"/>
      <point x="293" y="421" type="curve"/>
      <point x="297" y="421" type="line"/>
      <point x="297" y="421"/>
      <point x="303" y="354"/>
      <point x="313" y="300" type="curve" smooth="yes"/>
      <point x="368" y="0" type="line"/>
      <point x="459" y="0" type="line"/>
    </contour>
    <contour>
      <point x="296" y="526" type="move" name="top"/>
    </contour>
  </outline>
</glyph>
<glyph name="x" format="1">
  <advance width="410"/>
  <unicode hex="0078"/>
  <outline>
    <contour>
      <point x="397" y="526" type="line"/>
      <point x="305" y="526" type="line"/>
      <point x="207" y="346" type="line"/>
      <point x="112" y="526" type="line"/>
      <point x="13" y="526" type="line"/>
      <point x="159" y="266" type="line"/>
      <point x="6" y="0" type="line"/>
      <point x="96" y="0" type="line"/>
      <point x="202" y="192" type="line"/>
      <point x="305" y="0" type="line"/>
      <point x="404" y="0" type="line"/>
      <point x="250" y="273" type="line"/>
    </contour>
  </outline>
</glyph>
<glyph name="z" format="1">
  <advance width="410"/>
  <unicode hex="007A"/>
  <outline>
    <contour>
      <point x="370" y="526" type="line"/>
      <point x="42" y="526" type="line"/>
      <point x="42" y="453" type="line"/>
      <point x="257" y="453" type="line"/>
      <point x="26" y="39" type="line"/>
      <point x="26" y="0" type="line"/>
      <point x="383" y="0" type="line"/>
      <point x="383" y="73" type="line"/>
      <point x="138" y="73" type="line"/>
      <point x="370" y="488" type="line"/>
    </contour>
    <contour>
      <point x="205" y="526" type="move" name="top"/>
    </contour>
  </outline>
</glyph>
<glyph name="braceleft" format="1">
  <advance width="274"/>
  <unicode hex="007B"/>
  <outline>
    <contour>
      <point x="254" y="735" type="line"/>
      <point x="171" y="735"/>
      <point x="97" y="713"/>
      <point x="97" y="587" type="curve" smooth="yes"/>
      <point x="97" y="390" type="line" smooth="yes"/>
      <point x="97" y="345"/>
      <point x="56" y="330"/>
      <point x="20" y="330" type="curve"/>
      <point x="20" y="246" type="line"/>
      <point x="56" y="246"/>
      <point x="97" y="231"/>
      <point x="97" y="186" type="curve" smooth="yes"/>
      <point x="97" y="-11" type="line" smooth="yes"/>
      <point x="97" y="-137"/>
      <point x="171" y="-159"/>
      <point x="254" y="-159" type="curve"/>
      <point x="254" y="-102" type="line"/>
      <point x="218" y="-102"/>
      <point x="175" y="-90"/>
      <point x="175" y="-31" type="curve" smooth="yes"/>
      <point x="175" y="38"/>
      <point x="171" y="105"/>
      <point x="168" y="175" type="curve" smooth="yes"/>
      <point x="166" y="243"/>
      <point x="144" y="283"/>
      <point x="80" y="283" type="curve"/>
      <point x="80" y="293" type="line"/>
      <point x="144" y="293"/>
      <point x="166" y="333"/>
      <point x="168" y="401" type="curve" smooth="yes"/>
      <point x="171" y="471"/>
      <point x="175" y="538"/>
      <point x="175" y="607" type="curve" smooth="yes"/>
      <point x="175" y="666"/>
      <point x="218" y="678"/>
      <point x="254" y="678" type="curve"/>
    </contour>
  </outline>
</glyph>
<glyph name="braceright" format="1">
  <advance width="274"/>
  <unicode hex="007D"/>
  <outline>
    <contour>
      <point x="20" y="678" type="line"/>
      <point x="56" y="678"/>
      <point x="99" y="666"/>
      <point x="99" y="607" type="curve" smooth="yes"/>
      <point x="99" y="538"/>
      <point x="103" y="471"/>
      <point x="106" y="401" type="curve" smooth="yes"/>
      <point x="108" y="333"/>
      <point x="130" y="293"/>
      <point x="194" y="293" type="curve"/>
      <point x="194" y="283" type="line"/>
      <point x="130" y="283"/>
      <point x="108" y="243"/>
      <point x="106" y="175" type="curve" smooth="yes"/>
      <point x="103" y="105"/>
      <point x="99" y="38"/>
      <point x="99" y="-31" type="curve" smooth="yes"/>
      <point x="99" y="-90"/>
      <point x="56" y="-102"/>
      <point x="20" y="-102" type="curve"/>
      <point x="20" y="-159" type="line"/>
      <point x="103" y="-159"/>
      <point x="177" y="-137"/>
      <point x="177" y="-11" type="curve" smooth="yes"/>
      <point x="177" y="186" type="line" smooth="yes"/>
      <point x="177" y="231"/>
      <point x="218" y="246"/>
      <point x="254" y="246" type="curve"/>
      <point x="254" y="330" type="line"/>
      <point x="218" y="330"/>
      <point x="177" y="345"/>
      <point x="177" y="390" type="curve" smooth="yes"/>
      <point x="177" y="587" type="line" smooth="yes"/>
      <point x="177" y="713"/>
      <point x="103" y="735"/>
      <point x="20" y="735" type="curve"/>
    </contour>
  </outline>
</glyph>
<glyph name="asciitilde" format="1">
  <advance width="479"/>
  <unicode hex="007E"/>
  <outline>
    <contour>
      <point x="444" y="388" type="line"/>
      <point x="444" y="388"/>
      <point x="395" y="315"/>
      <point x="326" y="315" type="curve" smooth="yes"/>
      <point x="262" y="315"/>
      <point x="215" y="376"/>
      <point x="153" y="376" type="curve" smooth="yes"/>
      <point x="74" y="376"/>
      <point x="35" y="303"/>
      <point x="35" y="303" type="curve"/>
      <point x="35" y="211" type="line"/>
      <point x="35" y="211"/>
      <point x="84" y="284"/>
      <point x="153" y="284" type="curve" smooth="yes"/>
      <point x="217" y="284"/>
      <point x="264" y="223"/>
      <point x="326" y="223" type="curve" smooth="yes"/>
      <point x="405" y="223"/>
      <point x="444" y="296"/>
      <point x="444" y="296" type="curve"/>
    </contour>
  </outline>
</glyph>
<glyph name="exclamdown" format="1">
  <advance width="273"/>
  <unicode hex="00A1"/>
  <outline>
    <contour>
      <point x="125" y="355" type="line"/>
      <point x="117" y="184"/>
      <point x="110" y="11"/>
      <point x="100" y="-160" type="curve"/>
      <point x="213" y="-160" type="line"/>
      <point x="208" y="-103"/>
      <point x="196" y="174"/>
      <point x="187" y="355" type="curve"/>
    </contour>
    <contour>
      <point x="207" y="526" type="line"/>
      <point x="107" y="526" type="line"/>
      <point x="107" y="418" type="line"/>
      <point x="207" y="418" type="line"/>
    </contour>
  </outline>
</glyph>
<glyph name="cent" format="1">
  <advance width="456"/>
  <unicode hex="00A2"/>
  <outline>
    <contour>
      <point x="259" y="723" type="line"/>
      <point x="210" y="723" type="line"/>
      <point x="210" y="616" type="line"/>
      <point x="99" y="605"/>
      <point x="48" y="518"/>
      <point x="48" y="343" type="curve" smooth="yes"/>
      <point x="48" y="167"/>
      <point x="99" y="81"/>
      <point x="210" y="69" type="curve"/>
      <point x="210" y="-49" type="line"/>
      <point x="259" y="-49" type="line"/>
      <point x="259" y="69" type="line"/>
      <point x="365" y="80"/>
      <point x="407" y="172"/>
      <point x="407" y="275" type="curve"/>
      <point x="326" y="275" type="line"/>
      <point x="326" y="198"/>
      <point x="308" y="153"/>
      <point x="259" y="143" type="curve"/>
      <point x="259" y="543" type="line"/>
      <point x="307" y="533"/>
      <point x="322" y="491"/>
      <point x="322" y="411" type="curve"/>
      <point x="407" y="411" type="line"/>
      <point x="407" y="536"/>
      <point x="364" y="608"/>
      <point x="259" y="617" type="curve"/>
    </contour>
    <contour>
      <point x="210" y="144" type="line"/>
      <point x="156" y="159"/>
      <point x="134" y="219"/>
      <point x="134" y="324" type="curve"/>
      <point x="134" y="362" type="line" smooth="yes"/>
      <point x="134" y="466"/>
      <point x="157" y="527"/>
      <point x="210" y="541" type="curve"/>
    </contour>
  </outline>
</glyph>
<glyph name="sterling" format="1">
  <advance width="456"/>
  <unicode hex="00A3"/>
  <outline>
    <contour>
      <point x="252" y="698" type="curve" smooth="yes"/>
      <point x="151" y="698"/>
      <point x="91" y="632"/>
      <point x="91" y="499" type="curve" smooth="yes"/>
      <point x="91" y="376" type="line"/>
      <point x="19" y="376" type="line"/>
      <point x="19" y="304" type="line"/>
      <point x="91" y="304" type="line"/>
      <point x="91" y="79" type="line"/>
      <point x="30" y="79" type="line"/>
      <point x="30" y="0" type="line"/>
      <point x="413" y="0" type="line"/>
      <point x="413" y="79" type="line"/>
      <point x="164" y="79" type="line"/>
      <point x="173" y="304" type="line"/>
      <point x="307" y="304" type="line"/>
      <point x="307" y="376" type="line"/>
      <point x="174" y="376" type="line"/>
      <point x="174" y="515" type="line" smooth="yes"/>
      <point x="174" y="591"/>
      <point x="201" y="625"/>
      <point x="252" y="625" type="curve" smooth="yes"/>
      <point x="303" y="625"/>
      <point x="331" y="588"/>
      <point x="331" y="507" type="curve"/>
      <point x="331" y="491" type="line"/>
      <point x="413" y="491" type="line"/>
      <point x="413" y="504" type="line"/>
      <point x="413" y="647"/>
      <point x="350" y="698"/>
    </contour>
  </outline>
</glyph>
<glyph name="currency" format="1">
  <advance width="456"/>
  <unicode hex="00A4"/>
  <outline>
    <contour>
      <point x="228" y="589" type="curve" smooth="yes"/>
      <point x="174" y="589"/>
      <point x="125" y="567"/>
      <point x="87" y="530" type="curve"/>
      <point x="45" y="573" type="line"/>
      <point x="-3" y="525" type="line"/>
      <point x="46" y="476" type="line"/>
      <point x="24" y="437"/>
      <point x="11" y="391"/>
      <point x="11" y="342" type="curve" smooth="yes"/>
      <point x="11" y="292"/>
      <point x="24" y="246"/>
      <point x="46" y="208" type="curve"/>
      <point x="-3" y="159" type="line"/>
      <point x="45" y="111" type="line"/>
      <point x="88" y="154" type="line"/>
      <point x="126" y="118"/>
      <point x="174" y="96"/>
      <point x="228" y="96" type="curve" smooth="yes"/>
      <point x="281" y="96"/>
      <point x="330" y="118"/>
      <point x="368" y="154" type="curve"/>
      <point x="411" y="111" type="line"/>
      <point x="459" y="159" type="line"/>
      <point x="410" y="208" type="line"/>
      <point x="432" y="246"/>
      <point x="445" y="292"/>
      <point x="445" y="342" type="curve" smooth="yes"/>
      <point x="445" y="391"/>
      <point x="432" y="437"/>
      <point x="410" y="476" type="curve"/>
      <point x="459" y="525" type="line"/>
      <point x="411" y="573" type="line"/>
      <point x="368" y="530" type="line"/>
      <point x="330" y="567"/>
      <point x="281" y="589"/>
    </contour>
    <contour>
      <point x="228" y="520" type="curve" smooth="yes"/>
      <point x="310" y="520"/>
      <point x="376" y="441"/>
      <point x="376" y="342" type="curve" smooth="yes"/>
      <point x="376" y="244"/>
      <point x="310" y="165"/>
      <point x="228" y="165" type="curve" smooth="yes"/>
      <point x="145" y="165"/>
      <point x="79" y="244"/>
      <point x="79" y="342" type="curve" smooth="yes"/>
      <point x="79" y="441"/>
      <point x="145" y="520"/>
    </contour>
  </outline>
</glyph>
<glyph name="yen" format="1">
  <advance width="456"/>
  <unicode hex="00A5"/>
  <outline>
    <contour>
      <point x="453" y="686" type="line"/>
      <point x="370" y="686" type="line"/>
      <point x="237" y="393" type="line"/>
      <point x="233" y="393" type="line"/>
      <point x="97" y="686" type="line"/>
      <point x="2" y="686" type="line"/>
      <point x="153" y="369" type="line"/>
      <point x="25" y="369" type="line"/>
      <point x="25" y="304" type="line"/>
      <point x="184" y="304" type="line"/>
      <point x="184" y="234" type="line"/>
      <point x="25" y="234" type="line"/>
      <point x="25" y="169" type="line"/>
      <point x="184" y="169" type="line"/>
      <point x="184" y="0" type="line"/>
      <point x="272" y="0" type="line"/>
      <point x="272" y="169" type="line"/>
      <point x="431" y="169" type="line"/>
      <point x="431" y="234" type="line"/>
      <point x="272" y="234" type="line"/>
      <point x="272" y="304" type="line"/>
      <point x="431" y="304" type="line"/>
      <point x="431" y="369" type="line"/>
      <point x="303" y="369" type="line"/>
    </contour>
  </outline>
</glyph>
<glyph name="section" format="1">
  <advance width="456"/>
  <unicode hex="00A7"/>
  <outline>
    <contour>
      <point x="242" y="698" type="curve" smooth="yes"/>
      <point x="138" y="698"/>
      <point x="78" y="641"/>
      <point x="78" y="548" type="curve" smooth="yes"/>
      <point x="78" y="482"/>
      <point x="103" y="441"/>
      <point x="138" y="411" type="curve"/>
      <point x="103" y="387"/>
      <point x="68" y="342"/>
      <point x="68" y="277" type="curve" smooth="yes"/>
      <point x="68" y="75"/>
      <point x="308" y="111"/>
      <point x="308" y="-38" type="curve" smooth="yes"/>
      <point x="308" y="-67"/>
      <point x="294" y="-110"/>
      <point x="237" y="-110" type="curve" smooth="yes"/>
      <point x="181" y="-110"/>
      <point x="164" y="-69"/>
      <point x="164" y="-28" type="curve" smooth="yes"/>
      <point x="164" y="-19" type="line"/>
      <point x="79" y="-19" type="line"/>
      <point x="79" y="-21"/>
      <point x="78" y="-31"/>
      <point x="78" y="-38" type="curve" smooth="yes"/>
      <point x="78" y="-116"/>
      <point x="131" y="-182"/>
      <point x="229" y="-182" type="curve" smooth="yes"/>
      <point x="333" y="-182"/>
      <point x="393" y="-125"/>
      <point x="393" y="-32" type="curve" smooth="yes"/>
      <point x="393" y="34"/>
      <point x="367" y="74"/>
      <point x="333" y="104" type="curve"/>
      <point x="368" y="129"/>
      <point x="403" y="174"/>
      <point x="403" y="239" type="curve" smooth="yes"/>
      <point x="403" y="441"/>
      <point x="163" y="405"/>
      <point x="163" y="554" type="curve" smooth="yes"/>
      <point x="163" y="583"/>
      <point x="177" y="626"/>
      <point x="234" y="626" type="curve" smooth="yes"/>
      <point x="290" y="626"/>
      <point x="307" y="585"/>
      <point x="307" y="544" type="curve" smooth="yes"/>
      <point x="307" y="535" type="line"/>
      <point x="392" y="535" type="line"/>
      <point x="392" y="537"/>
      <point x="393" y="547"/>
      <point x="393" y="554" type="curve" smooth="yes"/>
      <point x="393" y="632"/>
      <point x="340" y="698"/>
    </contour>
    <contour>
      <point x="182" y="379" type="curve"/>
      <point x="249" y="338"/>
      <point x="323" y="309"/>
      <point x="323" y="218" type="curve" smooth="yes"/>
      <point x="323" y="181"/>
      <point x="309" y="153"/>
      <point x="288" y="136" type="curve"/>
      <point x="222" y="178"/>
      <point x="148" y="207"/>
      <point x="148" y="298" type="curve" smooth="yes"/>
      <point x="148" y="335"/>
      <point x="161" y="363"/>
    </contour>
  </outline>
</glyph>
<glyph name="dieresis" format="1">
  <advance width="273"/>
  <unicode hex="00A8"/>
  <outline>
    <contour>
      <point x="255" y="723" type="line"/>
      <point x="168" y="723" type="line"/>
      <point x="168" y="628" type="line"/>
      <point x="255" y="628" type="line"/>
    </contour>
    <contour>
      <point x="105" y="723" type="line"/>
      <point x="18" y="723" type="line"/>
      <point x="18" y="628" type="line"/>
      <point x="105" y="628" type="line"/>
    </contour>
    <contour>
      <point x="137" y="526" type="move" name="_top"/>
    </contour>
  </outline>
</glyph>
<glyph name="copyright" format="1">
  <advance width="604"/>
  <unicode hex="00A9"/>
  <outline>
    <contour>
      <point x="302" y="698" type="curve" smooth="yes"/>
      <point x="127" y="698"/>
      <point x="21" y="559"/>
      <point x="21" y="343" type="curve" smooth="yes"/>
      <point x="21" y="127"/>
      <point x="127" y="-12"/>
      <point x="302" y="-12" type="curve" smooth="yes"/>
      <point x="477" y="-12"/>
      <point x="583" y="127"/>
      <point x="583" y="343" type="curve" smooth="yes"/>
      <point x="583" y="559"/>
      <point x="477" y="698"/>
    </contour>
    <contour>
      <point x="304" y="558" type="curve" smooth="yes"/>
      <point x="199" y="558"/>
      <point x="145" y="489"/>
      <point x="145" y="348" type="curve" smooth="yes"/>
      <point x="145" y="208"/>
      <point x="199" y="139"/>
      <point x="304" y="139" type="curve" smooth="yes"/>
      <point x="386" y="139"/>
      <point x="445" y="187"/>
      <point x="445" y="291" type="curve"/>
      <point x="389" y="291" type="line"/>
      <point x="389" y="224"/>
      <point x="355" y="191"/>
      <point x="304" y="191" type="curve" smooth="yes"/>
      <point x="236" y="191"/>
      <point x="204" y="239"/>
      <point x="204" y="334" type="curve" smooth="yes"/>
      <point x="204" y="364" type="line" smooth="yes"/>
      <point x="204" y="459"/>
      <point x="236" y="506"/>
      <point x="304" y="506" type="curve" smooth="yes"/>
      <point x="354" y="506"/>
      <point x="387" y="473"/>
      <point x="387" y="405" type="curve"/>
      <point x="445" y="405" type="line"/>
      <point x="445" y="508"/>
      <point x="386" y="558"/>
    </contour>
    <contour>
      <point x="302" y="651" type="curve" smooth="yes"/>
      <point x="448" y="651"/>
      <point x="537" y="530"/>
      <point x="537" y="343" type="curve" smooth="yes"/>
      <point x="537" y="156"/>
      <point x="448" y="35"/>
      <point x="302" y="35" type="curve" smooth="yes"/>
      <point x="156" y="35"/>
      <point x="67" y="156"/>
      <point x="67" y="343" type="curve" smooth="yes"/>
      <point x="67" y="530"/>
      <point x="156" y="651"/>
    </contour>
  </outline>
</glyph>
<glyph name="ordfeminine" format="1">
  <advance width="303"/>
  <unicode hex="00AA"/>
  <outline>
    <contour>
      <point x="149" y="735" type="curve" smooth="yes"/>
      <point x="82" y="735"/>
      <point x="34" y="701"/>
      <point x="34" y="635" type="curve"/>
      <point x="34" y="618" type="line"/>
      <point x="93" y="618" type="line"/>
      <point x="93" y="628" type="line"/>
      <point x="93" y="655"/>
      <point x="106" y="683"/>
      <point x="146" y="683" type="curve" smooth="yes"/>
      <point x="188" y="683"/>
      <point x="199" y="660"/>
      <point x="199" y="627" type="curve"/>
      <point x="199" y="584" type="line"/>
      <point x="96" y="584"/>
      <point x="20" y="563"/>
      <point x="20" y="463" type="curve" smooth="yes"/>
      <point x="20" y="376"/>
      <point x="79" y="362"/>
      <point x="115" y="362" type="curve" smooth="yes"/>
      <point x="152" y="362"/>
      <point x="183" y="379"/>
      <point x="202" y="408" type="curve"/>
      <point x="210" y="382"/>
      <point x="231" y="365"/>
      <point x="260" y="365" type="curve" smooth="yes"/>
      <point x="277" y="365"/>
      <point x="291" y="369"/>
      <point x="298" y="374" type="curve"/>
      <point x="298" y="415" type="line"/>
      <point x="275" y="415" type="line"/>
      <point x="267" y="415"/>
      <point x="258" y="421"/>
      <point x="258" y="437" type="curve"/>
      <point x="258" y="635" type="line"/>
      <point x="258" y="698"/>
      <point x="222" y="735"/>
    </contour>
    <contour>
      <point x="199" y="500" type="line"/>
      <point x="199" y="443"/>
      <point x="161" y="415"/>
      <point x="128" y="415" type="curve" smooth="yes"/>
      <point x="98" y="415"/>
      <point x="82" y="428"/>
      <point x="82" y="466" type="curve" smooth="yes"/>
      <point x="82" y="520"/>
      <point x="130" y="531"/>
      <point x="199" y="531" type="curve"/>
    </contour>
  </outline>
</glyph>
<glyph name="guillemotleft" format="1">
  <advance width="456"/>
  <unicode hex="00AB"/>
  <outline>
    <contour>
      <point x="417" y="526" type="line"/>
      <point x="347" y="526" type="line"/>
      <point x="205" y="326" type="line"/>
      <point x="347" y="126" type="line"/>
      <point x="417" y="126" type="line"/>
      <point x="305" y="326" type="line"/>
    </contour>
    <contour>
      <point x="266" y="526" type="line"/>
      <point x="195" y="526" type="line"/>
      <point x="54" y="326" type="line"/>
      <point x="195" y="126" type="line"/>
      <point x="266" y="126" type="line"/>
      <point x="153" y="326" type="line"/>
    </contour>
  </outline>
</glyph>
<glyph name="logicalnot" format="1">
  <advance width="479"/>
  <unicode hex="00AC"/>
  <outline>
    <contour>
      <point x="435" y="453" type="line"/>
      <point x="39" y="453" type="line"/>
      <point x="39" y="360" type="line"/>
      <point x="351" y="360" type="line"/>
      <point x="351" y="197" type="line"/>
      <point x="435" y="197" type="line"/>
    </contour>
  </outline>
</glyph>
<glyph name="macron" format="1">
  <advance width="273"/>
  <unicode hex="00AF"/>
  <outline>
    <contour>
      <point x="262" y="671" type="line"/>
      <point x="12" y="671" type="line"/>
      <point x="12" y="599" type="line"/>
      <point x="262" y="599" type="line"/>
    </contour>
    <contour>
      <point x="137" y="526" type="move" name="_top"/>
    </contour>
  </outline>
</glyph>
<glyph name="degree" format="1">
  <advance width="400"/>
  <unicode hex="00B0"/>
  <outline>
    <contour>
      <point x="198" y="698" type="curve" smooth="yes"/>
      <point x="123" y="698"/>
      <point x="63" y="638"/>
      <point x="63" y="563" type="curve" smooth="yes"/>
      <point x="63" y="488"/>
      <point x="123" y="428"/>
      <point x="198" y="428" type="curve" smooth="yes"/>
      <point x="273" y="428"/>
      <point x="333" y="488"/>
      <point x="333" y="563" type="curve" smooth="yes"/>
      <point x="333" y="638"/>
      <point x="273" y="698"/>
    </contour>
    <contour>
      <point x="198" y="644" type="curve" smooth="yes"/>
      <point x="243" y="644"/>
      <point x="279" y="608"/>
      <point x="279" y="563" type="curve" smooth="yes"/>
      <point x="279" y="518"/>
      <point x="243" y="481"/>
      <point x="198" y="481" type="curve" smooth="yes"/>
      <point x="153" y="481"/>
      <point x="116" y="518"/>
      <point x="116" y="563" type="curve" smooth="yes"/>
      <point x="116" y="608"/>
      <point x="153" y="644"/>
    </contour>
  </outline>
</glyph>
<glyph name="plusminus" format="1">
  <advance width="549"/>
  <unicode hex="00B1"/>
  <outline>
    <contour>
      <point x="315" y="578" type="line"/>
      <point x="232" y="578" type="line"/>
      <point x="232" y="394" type="line"/>
      <point x="78" y="394" type="line"/>
      <point x="78" y="310" type="line"/>
      <point x="232" y="310" type="line"/>
      <point x="232" y="127" type="line"/>
      <point x="315" y="127" type="line"/>
      <point x="315" y="310" type="line"/>
      <point x="470" y="310" type="line"/>
      <point x="470" y="394" type="line"/>
      <point x="315" y="394" type="line"/>
    </contour>
    <contour>
      <point x="470" y="83" type="line"/>
      <point x="78" y="83" type="line"/>
      <point x="78" y="0" type="line"/>
      <point x="470" y="0" type="line"/>
    </contour>
  </outline>
</glyph>
<glyph name="twosuperior" format="1">
  <advance width="273"/>
  <unicode hex="00B2"/>
  <outline>
    <contour>
      <point x="141" y="735" type="curve" smooth="yes"/>
      <point x="81" y="735"/>
      <point x="28" y="698"/>
      <point x="28" y="609" type="curve" smooth="yes"/>
      <point x="28" y="596"/>
      <point x="30" y="579"/>
      <point x="30" y="579" type="curve"/>
      <point x="93" y="579" type="line"/>
      <point x="93" y="610" type="line" smooth="yes"/>
      <point x="93" y="646"/>
      <point x="106" y="676"/>
      <point x="140" y="676" type="curve" smooth="yes"/>
      <point x="176" y="676"/>
      <point x="185" y="648"/>
      <point x="185" y="626" type="curve" smooth="yes"/>
      <point x="185" y="519"/>
      <point x="24" y="462"/>
      <point x="24" y="338" type="curve" smooth="yes"/>
      <point x="24" y="322" type="line"/>
      <point x="252" y="322" type="line"/>
      <point x="252" y="385" type="line"/>
      <point x="101" y="385" type="line"/>
      <point x="113" y="412"/>
      <point x="138" y="434"/>
      <point x="157" y="455" type="curve" smooth="yes"/>
      <point x="200" y="502"/>
      <point x="251" y="560"/>
      <point x="251" y="626" type="curve" smooth="yes"/>
      <point x="251" y="704"/>
      <point x="201" y="735"/>
    </contour>
  </outline>
</glyph>
<glyph name="threesuperior" format="1">
  <advance width="273"/>
  <unicode hex="00B3"/>
  <outline>
    <contour>
      <point x="139" y="735" type="curve" smooth="yes"/>
      <point x="75" y="735"/>
      <point x="30" y="690"/>
      <point x="30" y="620" type="curve" smooth="yes"/>
      <point x="30" y="602" type="line"/>
      <point x="93" y="602" type="line"/>
      <point x="93" y="615" type="line" smooth="yes"/>
      <point x="93" y="658"/>
      <point x="114" y="678"/>
      <point x="140" y="678" type="curve" smooth="yes"/>
      <point x="164" y="678"/>
      <point x="186" y="660"/>
      <point x="186" y="617" type="curve" smooth="yes"/>
      <point x="186" y="576"/>
      <point x="163" y="557"/>
      <point x="137" y="557" type="curve" smooth="yes"/>
      <point x="101" y="557" type="line"/>
      <point x="101" y="500" type="line"/>
      <point x="136" y="500" type="line" smooth="yes"/>
      <point x="165" y="500"/>
      <point x="192" y="487"/>
      <point x="192" y="438" type="curve" smooth="yes"/>
      <point x="192" y="393"/>
      <point x="170" y="373"/>
      <point x="137" y="373" type="curve" smooth="yes"/>
      <point x="104" y="373"/>
      <point x="87" y="395"/>
      <point x="87" y="439" type="curve" smooth="yes"/>
      <point x="87" y="452" type="line"/>
      <point x="23" y="452" type="line"/>
      <point x="23" y="441" type="line" smooth="yes"/>
      <point x="23" y="364"/>
      <point x="65" y="316"/>
      <point x="141" y="316" type="curve" smooth="yes"/>
      <point x="208" y="316"/>
      <point x="255" y="360"/>
      <point x="255" y="435" type="curve" smooth="yes"/>
      <point x="255" y="482"/>
      <point x="232" y="515"/>
      <point x="201" y="531" type="curve"/>
      <point x="231" y="550"/>
      <point x="249" y="575"/>
      <point x="249" y="620" type="curve" smooth="yes"/>
      <point x="249" y="694"/>
      <point x="205" y="735"/>
    </contour>
  </outline>
</glyph>
<glyph name="acute" format="1">
  <advance width="273"/>
  <unicode hex="00B4"/>
  <outline>
    <contour>
      <point x="244" y="723" type="line"/>
      <point x="154" y="723" type="line"/>
      <point x="68" y="591" type="line"/>
      <point x="137" y="591" type="line"/>
      <point x="245" y="720" type="line"/>
    </contour>
    <contour>
      <point x="126" y="526" type="move" name="_top"/>
    </contour>
  </outline>
</glyph>
<glyph name="mu" format="1">
  <advance width="456"/>
  <unicode hex="00B5"/>
  <outline>
    <contour>
      <point x="396" y="526" type="line"/>
      <point x="314" y="526" type="line"/>
      <point x="314" y="205" type="line" smooth="yes"/>
      <point x="314" y="114"/>
      <point x="268" y="61"/>
      <point x="216" y="61" type="curve" smooth="yes"/>
      <point x="174" y="61"/>
      <point x="142" y="78"/>
      <point x="142" y="142" type="curve" smooth="yes"/>
      <point x="142" y="526" type="line"/>
      <point x="60" y="526" type="line"/>
      <point x="60" y="-173" type="line"/>
      <point x="142" y="-173" type="line"/>
      <point x="142" y="-5" type="line"/>
      <point x="156" y="-10"/>
      <point x="172" y="-12"/>
      <point x="190" y="-12" type="curve" smooth="yes"/>
      <point x="242" y="-12"/>
      <point x="288" y="9"/>
      <point x="317" y="61" type="curve"/>
      <point x="323" y="61" type="line"/>
      <point x="334" y="0" type="line"/>
      <point x="396" y="0" type="line"/>
    </contour>
  </outline>
</glyph>
<glyph name="paragraph" format="1">
  <advance width="440"/>
  <unicode hex="00B6"/>
  <outline>
    <contour>
      <point x="419" y="686" type="line"/>
      <point x="210" y="686" type="line" smooth="yes"/>
      <point x="103" y="686"/>
      <point x="18" y="588"/>
      <point x="18" y="467" type="curve" smooth="yes"/>
      <point x="18" y="354"/>
      <point x="91" y="263"/>
      <point x="187" y="250" type="curve"/>
      <point x="187" y="-173" type="line"/>
      <point x="252" y="-173" type="line"/>
      <point x="252" y="625" type="line"/>
      <point x="305" y="625" type="line"/>
      <point x="305" y="-173" type="line"/>
      <point x="371" y="-173" type="line"/>
      <point x="371" y="625" type="line"/>
      <point x="419" y="625" type="line"/>
    </contour>
  </outline>
</glyph>
<glyph name="periodcentered" format="1">
  <advance width="228"/>
  <unicode hex="00B7"/>
  <outline>
    <contour>
      <point x="164" y="399" type="line"/>
      <point x="63" y="399" type="line"/>
      <point x="63" y="288" type="line"/>
      <point x="164" y="288" type="line"/>
    </contour>
  </outline>
</glyph>
<glyph name="cedilla" format="1">
  <advance width="273"/>
  <unicode hex="00B8"/>
  <outline>
    <contour>
      <point x="150" y="11" type="line"/>
      <point x="95" y="11" type="line"/>
      <point x="81" y="-77" type="line"/>
      <point x="114" y="-77" type="line" smooth="yes"/>
      <point x="140" y="-77"/>
      <point x="148" y="-85"/>
      <point x="148" y="-101" type="curve" smooth="yes"/>
      <point x="148" y="-120"/>
      <point x="134" y="-125"/>
      <point x="112" y="-125" type="curve"/>
      <point x="36" y="-125" type="line"/>
      <point x="36" y="-174" type="line"/>
      <point x="60" y="-179"/>
      <point x="92" y="-182"/>
      <point x="120" y="-182" type="curve" smooth="yes"/>
      <point x="161" y="-182"/>
      <point x="224" y="-168"/>
      <point x="224" y="-101" type="curve" smooth="yes"/>
      <point x="224" y="-55"/>
      <point x="186" y="-39"/>
      <point x="143" y="-36" type="curve"/>
    </contour>
    <contour>
      <point x="130" y="0" type="move" name="_bottom"/>
    </contour>
  </outline>
</glyph>
<glyph name="onesuperior" format="1">
  <advance width="273"/>
  <unicode hex="00B9"/>
  <outline>
    <contour>
      <point x="181" y="724" type="line"/>
      <point x="152" y="724" type="line"/>
      <point x="121" y="703"/>
      <point x="70" y="685"/>
      <point x="39" y="681" type="curve"/>
      <point x="39" y="638" type="line"/>
      <point x="119" y="638" type="line"/>
      <point x="119" y="380" type="line"/>
      <point x="40" y="380" type="line"/>
      <point x="40" y="322" type="line"/>
      <point x="254" y="322" type="line"/>
      <point x="254" y="380" type="line"/>
      <point x="181" y="380" type="line"/>
    </contour>
  </outline>
</glyph>
<glyph name="ordmasculine" format="1">
  <advance width="299"/>
  <unicode hex="00BA"/>
  <outline>
    <contour>
      <point x="149" y="735" type="curve" smooth="yes"/>
      <point x="66" y="735"/>
      <point x="21" y="676"/>
      <point x="21" y="548" type="curve" smooth="yes"/>
      <point x="21" y="420"/>
      <point x="66" y="361"/>
      <point x="149" y="361" type="curve" smooth="yes"/>
      <point x="233" y="361"/>
      <point x="277" y="420"/>
      <point x="277" y="548" type="curve" smooth="yes"/>
      <point x="277" y="676"/>
      <point x="233" y="735"/>
    </contour>
    <contour>
      <point x="149" y="682" type="curve" smooth="yes"/>
      <point x="194" y="682"/>
      <point x="216" y="641"/>
      <point x="216" y="561" type="curve" smooth="yes"/>
      <point x="216" y="535" type="line"/>
      <point x="216" y="455"/>
      <point x="194" y="414"/>
      <point x="149" y="414" type="curve" smooth="yes"/>
      <point x="104" y="414"/>
      <point x="83" y="455"/>
      <point x="83" y="535" type="curve" smooth="yes"/>
      <point x="83" y="561" type="line" smooth="yes"/>
      <point x="83" y="641"/>
      <point x="104" y="682"/>
    </contour>
  </outline>
</glyph>
<glyph name="guillemotright" format="1">
  <advance width="456"/>
  <unicode hex="00BB"/>
  <outline>
    <contour>
      <point x="261" y="526" type="line"/>
      <point x="190" y="526" type="line"/>
      <point x="303" y="326" type="line"/>
      <point x="190" y="126" type="line"/>
      <point x="261" y="126" type="line"/>
      <point x="402" y="326" type="line"/>
    </contour>
    <contour>
      <point x="109" y="526" type="line"/>
      <point x="39" y="526" type="line"/>
      <point x="151" y="326" type="line"/>
      <point x="39" y="126" type="line"/>
      <point x="109" y="126" type="line"/>
      <point x="251" y="326" type="line"/>
    </contour>
  </outline>
</glyph>
<glyph name="onequarter" format="1">
  <advance width="684"/>
  <unicode hex="00BC"/>
  <outline>
    <contour>
      <point x="593" y="698" type="line"/>
      <point x="531" y="698" type="line"/>
      <point x="115" y="-12" type="line"/>
      <point x="178" y="-12" type="line"/>
    </contour>
    <contour>
      <point x="173" y="686" type="line"/>
      <point x="144" y="686" type="line"/>
      <point x="113" y="665"/>
      <point x="62" y="647"/>
      <point x="31" y="643" type="curve"/>
      <point x="31" y="600" type="line"/>
      <point x="111" y="600" type="line"/>
      <point x="111" y="342" type="line"/>
      <point x="32" y="342" type="line"/>
      <point x="32" y="284" type="line"/>
      <point x="246" y="284" type="line"/>
      <point x="246" y="342" type="line"/>
      <point x="173" y="342" type="line"/>
    </contour>
    <contour>
      <point x="493" y="413" type="line"/>
      <point x="468" y="321"/>
      <point x="431" y="224"/>
      <point x="389" y="148" type="curve"/>
      <point x="389" y="96" type="line"/>
      <point x="540" y="96" type="line"/>
      <point x="540" y="0" type="line"/>
      <point x="602" y="0" type="line"/>
      <point x="602" y="96" type="line"/>
      <point x="642" y="96" type="line"/>
      <point x="642" y="153" type="line"/>
      <point x="602" y="153" type="line"/>
      <point x="602" y="355" type="line"/>
      <point x="575" y="355" type="line"/>
      <point x="567" y="316"/>
      <point x="549" y="268"/>
      <point x="540" y="244" type="curve"/>
      <point x="540" y="153" type="line"/>
      <point x="455" y="153" type="line"/>
      <point x="481" y="197"/>
      <point x="533" y="311"/>
      <point x="555" y="413" type="curve"/>
    </contour>
  </outline>
</glyph>
<glyph name="onehalf" format="1">
  <advance width="684"/>
  <unicode hex="00BD"/>
  <outline>
    <contour>
      <point x="582" y="698" type="line"/>
      <point x="520" y="698" type="line"/>
      <point x="104" y="-12" type="line"/>
      <point x="167" y="-12" type="line"/>
    </contour>
    <contour>
      <point x="173" y="686" type="line"/>
      <point x="144" y="686" type="line"/>
      <point x="113" y="665"/>
      <point x="62" y="647"/>
      <point x="31" y="643" type="curve"/>
      <point x="31" y="600" type="line"/>
      <point x="111" y="600" type="line"/>
      <point x="111" y="342" type="line"/>
      <point x="32" y="342" type="line"/>
      <point x="32" y="284" type="line"/>
      <point x="246" y="284" type="line"/>
      <point x="246" y="342" type="line"/>
      <point x="173" y="342" type="line"/>
    </contour>
    <contour>
      <point x="530" y="413" type="curve" smooth="yes"/>
      <point x="470" y="413"/>
      <point x="417" y="376"/>
      <point x="417" y="287" type="curve" smooth="yes"/>
      <point x="417" y="274"/>
      <point x="419" y="257"/>
      <point x="419" y="257" type="curve"/>
      <point x="482" y="257" type="line"/>
      <point x="482" y="288" type="line" smooth="yes"/>
      <point x="482" y="324"/>
      <point x="495" y="354"/>
      <point x="529" y="354" type="curve" smooth="yes"/>
      <point x="565" y="354"/>
      <point x="574" y="326"/>
      <point x="574" y="304" type="curve" smooth="yes"/>
      <point x="574" y="197"/>
      <point x="413" y="140"/>
      <point x="413" y="16" type="curve" smooth="yes"/>
      <point x="413" y="0" type="line"/>
      <point x="641" y="0" type="line"/>
      <point x="641" y="63" type="line"/>
      <point x="490" y="63" type="line"/>
      <point x="502" y="90"/>
      <point x="527" y="112"/>
      <point x="546" y="133" type="curve" smooth="yes"/>
      <point x="589" y="180"/>
      <point x="640" y="238"/>
      <point x="640" y="304" type="curve" smooth="yes"/>
      <point x="640" y="382"/>
      <point x="590" y="413"/>
    </contour>
  </outline>
</glyph>
<glyph name="threequarters" format="1">
  <advance width="684"/>
  <unicode hex="00BE"/>
  <outline>
    <contour>
      <point x="585" y="698" type="line"/>
      <point x="523" y="698" type="line"/>
      <point x="107" y="-12" type="line"/>
      <point x="170" y="-12" type="line"/>
    </contour>
    <contour>
      <point x="143" y="698" type="curve" smooth="yes"/>
      <point x="79" y="698"/>
      <point x="34" y="653"/>
      <point x="34" y="583" type="curve" smooth="yes"/>
      <point x="34" y="565" type="line"/>
      <point x="97" y="565" type="line"/>
      <point x="97" y="578" type="line" smooth="yes"/>
      <point x="97" y="621"/>
      <point x="118" y="641"/>
      <point x="144" y="641" type="curve" smooth="yes"/>
      <point x="168" y="641"/>
      <point x="190" y="623"/>
      <point x="190" y="580" type="curve" smooth="yes"/>
      <point x="190" y="539"/>
      <point x="167" y="520"/>
      <point x="141" y="520" type="curve" smooth="yes"/>
      <point x="105" y="520" type="line"/>
      <point x="105" y="463" type="line"/>
      <point x="140" y="463" type="line" smooth="yes"/>
      <point x="169" y="463"/>
      <point x="196" y="450"/>
      <point x="196" y="401" type="curve" smooth="yes"/>
      <point x="196" y="356"/>
      <point x="174" y="336"/>
      <point x="141" y="336" type="curve" smooth="yes"/>
      <point x="108" y="336"/>
      <point x="91" y="358"/>
      <point x="91" y="402" type="curve" smooth="yes"/>
      <point x="91" y="415" type="line"/>
      <point x="27" y="415" type="line"/>
      <point x="27" y="404" type="line" smooth="yes"/>
      <point x="27" y="327"/>
      <point x="69" y="279"/>
      <point x="145" y="279" type="curve" smooth="yes"/>
      <point x="212" y="279"/>
      <point x="259" y="323"/>
      <point x="259" y="398" type="curve" smooth="yes"/>
      <point x="259" y="445"/>
      <point x="236" y="478"/>
      <point x="205" y="494" type="curve"/>
      <point x="235" y="513"/>
      <point x="253" y="538"/>
      <point x="253" y="583" type="curve" smooth="yes"/>
      <point x="253" y="657"/>
      <point x="209" y="698"/>
    </contour>
    <contour>
      <point x="493" y="413" type="line"/>
      <point x="468" y="321"/>
      <point x="431" y="224"/>
      <point x="389" y="148" type="curve"/>
      <point x="389" y="96" type="line"/>
      <point x="540" y="96" type="line"/>
      <point x="540" y="0" type="line"/>
      <point x="602" y="0" type="line"/>
      <point x="602" y="96" type="line"/>
      <point x="642" y="96" type="line"/>
      <point x="642" y="153" type="line"/>
      <point x="602" y="153" type="line"/>
      <point x="602" y="355" type="line"/>
      <point x="575" y="355" type="line"/>
      <point x="567" y="316"/>
      <point x="549" y="268"/>
      <point x="540" y="244" type="curve"/>
      <point x="540" y="153" type="line"/>
      <point x="455" y="153" type="line"/>
      <point x="481" y="197"/>
      <point x="533" y="311"/>
      <point x="555" y="413" type="curve"/>
    </contour>
  </outline>
</glyph>
<glyph name="questiondown" format="1">
  <advance width="501"/>
  <unicode hex="00BF"/>
  <outline>
    <contour>
      <point x="287" y="346" type="line"/>
      <point x="200" y="346" type="line"/>
      <point x="200" y="305" type="line" smooth="yes"/>
      <point x="200" y="184"/>
      <point x="70" y="187"/>
      <point x="70" y="2" type="curve" smooth="yes"/>
      <point x="70" y="-101"/>
      <point x="146" y="-172"/>
      <point x="248" y="-172" type="curve" smooth="yes"/>
      <point x="374" y="-172"/>
      <point x="436" y="-86"/>
      <point x="436" y="32" type="curve" smooth="yes"/>
      <point x="436" y="44"/>
      <point x="433" y="67"/>
      <point x="433" y="67" type="curve"/>
      <point x="344" y="67" type="line"/>
      <point x="344" y="67"/>
      <point x="345" y="56"/>
      <point x="345" y="40" type="curve" smooth="yes"/>
      <point x="345" y="-7"/>
      <point x="336" y="-95"/>
      <point x="255" y="-95" type="curve" smooth="yes"/>
      <point x="171" y="-95"/>
      <point x="161" y="-14"/>
      <point x="161" y="13" type="curve" smooth="yes"/>
      <point x="161" y="146"/>
      <point x="287" y="154"/>
      <point x="287" y="290" type="curve" smooth="yes"/>
    </contour>
    <contour>
      <point x="294" y="526" type="line"/>
      <point x="194" y="526" type="line"/>
      <point x="194" y="418" type="line"/>
      <point x="294" y="418" type="line"/>
    </contour>
  </outline>
</glyph>
<glyph name="Agrave" format="1">
  <advance width="547"/>
  <unicode hex="00C0"/>
  <outline>
    <contour>
      <point x="333" y="751" type="line"/>
      <point x="247" y="883" type="line"/>
      <point x="157" y="883" type="line"/>
      <point x="156" y="880" type="line"/>
      <point x="264" y="751" type="line"/>
    </contour>
    <contour>
      <point x="453" y="0" type="line"/>
      <point x="548" y="0" type="line"/>
      <point x="330" y="686" type="line"/>
      <point x="217" y="686" type="line"/>
      <point x="-1" y="0" type="line"/>
      <point x="87" y="0" type="line"/>
      <point x="134" y="153" type="line"/>
      <point x="406" y="153" type="line"/>
    </contour>
    <contour>
      <point x="252" y="538" type="line" smooth="yes"/>
      <point x="259" y="560"/>
      <point x="268" y="614"/>
      <point x="268" y="614" type="curve"/>
      <point x="272" y="614" type="line"/>
      <point x="272" y="614"/>
      <point x="281" y="561"/>
      <point x="288" y="538" type="curve" smooth="yes"/>
      <point x="381" y="233" type="line"/>
      <point x="158" y="233" type="line"/>
    </contour>
  </outline>
</glyph>
<glyph name="Atilde" format="1">
  <advance width="547"/>
  <unicode hex="00C3"/>
  <outline>
    <contour>
      <point x="361" y="883" type="line"/>
      <point x="358" y="860"/>
      <point x="345" y="853"/>
      <point x="327" y="853" type="curve" smooth="yes"/>
      <point x="288" y="853"/>
      <point x="255" y="883"/>
      <point x="212" y="883" type="curve" smooth="yes"/>
      <point x="152" y="883"/>
      <point x="127" y="825"/>
      <point x="127" y="779" type="curve"/>
      <point x="186" y="779" type="line"/>
      <point x="188" y="802"/>
      <point x="201" y="810"/>
      <point x="219" y="810" type="curve" smooth="yes"/>
      <point x="258" y="810"/>
      <point x="291" y="779"/>
      <point x="334" y="779" type="curve" smooth="yes"/>
      <point x="395" y="779"/>
      <point x="419" y="837"/>
      <point x="419" y="883" type="curve"/>
    </contour>
    <contour>
      <point x="453" y="0" type="line"/>
      <point x="548" y="0" type="line"/>
      <point x="330" y="686" type="line"/>
      <point x="217" y="686" type="line"/>
      <point x="-1" y="0" type="line"/>
      <point x="87" y="0" type="line"/>
      <point x="134" y="153" type="line"/>
      <point x="406" y="153" type="line"/>
    </contour>
    <contour>
      <point x="252" y="538" type="line" smooth="yes"/>
      <point x="259" y="560"/>
      <point x="268" y="614"/>
      <point x="268" y="614" type="curve"/>
      <point x="272" y="614" type="line"/>
      <point x="272" y="614"/>
      <point x="281" y="561"/>
      <point x="288" y="538" type="curve" smooth="yes"/>
      <point x="381" y="233" type="line"/>
      <point x="158" y="233" type="line"/>
    </contour>
  </outline>
</glyph>
<glyph name="Aring" format="1">
  <advance width="547"/>
  <unicode hex="00C5"/>
  <outline>
    <contour>
      <point x="273" y="915" type="curve" smooth="yes"/>
      <point x="220" y="915"/>
      <point x="177" y="872"/>
      <point x="177" y="819" type="curve" smooth="yes"/>
      <point x="177" y="765"/>
      <point x="221" y="723"/>
      <point x="273" y="723" type="curve" smooth="yes"/>
      <point x="327" y="723"/>
      <point x="369" y="766"/>
      <point x="369" y="819" type="curve" smooth="yes"/>
      <point x="369" y="871"/>
      <point x="328" y="915"/>
    </contour>
    <contour>
      <point x="273" y="870" type="curve" smooth="yes"/>
      <point x="300" y="870"/>
      <point x="324" y="847"/>
      <point x="324" y="819" type="curve" smooth="yes"/>
      <point x="324" y="791"/>
      <point x="300" y="768"/>
      <point x="273" y="768" type="curve" smooth="yes"/>
      <point x="246" y="768"/>
      <point x="222" y="791"/>
      <point x="222" y="819" type="curve" smooth="yes"/>
      <point x="222" y="847"/>
      <point x="246" y="870"/>
    </contour>
    <contour>
      <point x="453" y="0" type="line"/>
      <point x="548" y="0" type="line"/>
      <point x="330" y="686" type="line"/>
      <point x="217" y="686" type="line"/>
      <point x="-1" y="0" type="line"/>
      <point x="87" y="0" type="line"/>
      <point x="134" y="153" type="line"/>
      <point x="406" y="153" type="line"/>
    </contour>
    <contour>
      <point x="252" y="538" type="line" smooth="yes"/>
      <point x="259" y="560"/>
      <point x="268" y="614"/>
      <point x="268" y="614" type="curve"/>
      <point x="272" y="614" type="line"/>
      <point x="272" y="614"/>
      <point x="281" y="561"/>
      <point x="288" y="538" type="curve" smooth="yes"/>
      <point x="381" y="233" type="line"/>
      <point x="158" y="233" type="line"/>
    </contour>
  </outline>
</glyph>
<glyph name="AE" format="1">
  <advance width="820"/>
  <unicode hex="00C6"/>
  <outline>
    <contour>
      <point x="783" y="0" type="line"/>
      <point x="783" y="80" type="line"/>
      <point x="529" y="80" type="line"/>
      <point x="477" y="311" type="line"/>
      <point x="733" y="311" type="line"/>
      <point x="733" y="391" type="line"/>
      <point x="459" y="391" type="line"/>
      <point x="410" y="606" type="line"/>
      <point x="777" y="606" type="line"/>
      <point x="777" y="686" type="line"/>
      <point x="279" y="686" type="line"/>
      <point x="-1" y="0" type="line"/>
      <point x="87" y="0" type="line"/>
      <point x="146" y="153" type="line"/>
      <point x="419" y="153" type="line"/>
      <point x="453" y="0" type="line"/>
    </contour>
    <contour>
      <point x="298" y="543" type="line" smooth="yes"/>
      <point x="306" y="565"/>
      <point x="319" y="605"/>
      <point x="319" y="605" type="curve"/>
      <point x="323" y="605" type="line"/>
      <point x="323" y="605"/>
      <point x="327" y="566"/>
      <point x="334" y="543" type="curve"/>
      <point x="402" y="233" type="line"/>
      <point x="177" y="233" type="line"/>
    </contour>
    <contour>
      <point x="472" y="686" type="move" name="top"/>
    </contour>
  </outline>
</glyph>
<glyph name="Ccedilla" format="1">
  <advance width="592"/>
  <unicode hex="00C7"/>
  <outline>
    <contour>
      <point x="312" y="698" type="curve" smooth="yes"/>
      <point x="134" y="698"/>
      <point x="42" y="581"/>
      <point x="42" y="343" type="curve" smooth="yes"/>
      <point x="42" y="130"/>
      <point x="115" y="14"/>
      <point x="258" y="-8" type="curve"/>
      <point x="247" y="-77" type="line"/>
      <point x="280" y="-77" type="line" smooth="yes"/>
      <point x="306" y="-77"/>
      <point x="314" y="-85"/>
      <point x="314" y="-101" type="curve" smooth="yes"/>
      <point x="314" y="-120"/>
      <point x="300" y="-125"/>
      <point x="278" y="-125" type="curve" smooth="yes"/>
      <point x="202" y="-125" type="line"/>
      <point x="202" y="-174" type="line"/>
      <point x="226" y="-179"/>
      <point x="258" y="-182"/>
      <point x="286" y="-182" type="curve" smooth="yes"/>
      <point x="327" y="-182"/>
      <point x="390" y="-168"/>
      <point x="390" y="-101" type="curve" smooth="yes"/>
      <point x="390" y="-55"/>
      <point x="352" y="-39"/>
      <point x="309" y="-36" type="curve"/>
      <point x="312" y="-12" type="line"/>
      <point x="452" y="-12"/>
      <point x="551" y="69"/>
      <point x="551" y="246" type="curve"/>
      <point x="464" y="246" type="line"/>
      <point x="464" y="127"/>
      <point x="404" y="69"/>
      <point x="312" y="69" type="curve" smooth="yes"/>
      <point x="192" y="69"/>
      <point x="134" y="151"/>
      <point x="134" y="318" type="curve" smooth="yes"/>
      <point x="134" y="368" type="line" smooth="yes"/>
      <point x="134" y="535"/>
      <point x="192" y="617"/>
      <point x="312" y="617" type="curve" smooth="yes"/>
      <point x="402" y="617"/>
      <point x="461" y="558"/>
      <point x="461" y="438" type="curve"/>
      <point x="551" y="438" type="line"/>
      <point x="551" y="613"/>
      <point x="452" y="698"/>
    </contour>
  </outline>
</glyph>
<glyph name="Edieresis" format="1">
  <advance width="547"/>
  <unicode hex="00CB"/>
  <outline>
    <contour>
      <point x="392" y="883" type="line"/>
      <point x="305" y="883" type="line"/>
      <point x="305" y="788" type="line"/>
      <point x="392" y="788" type="line"/>
    </contour>
    <contour>
      <point x="242" y="883" type="line"/>
      <point x="155" y="883" type="line"/>
      <point x="155" y="788" type="line"/>
      <point x="242" y="788" type="line"/>
    </contour>
    <contour>
      <point x="499" y="0" type="line"/>
      <point x="499" y="80" type="line"/>
      <point x="158" y="80" type="line"/>
      <point x="158" y="311" type="line"/>
      <point x="449" y="311" type="line"/>
      <point x="449" y="391" type="line"/>
      <point x="158" y="391" type="line"/>
      <point x="158" y="606" type="line"/>
      <point x="493" y="606" type="line"/>
      <point x="493" y="686" type="line"/>
      <point x="70" y="686" type="line"/>
      <point x="70" y="0" type="line"/>
    </contour>
  </outline>
</glyph>
<glyph name="Igrave" format="1">
  <advance width="228"/>
  <unicode hex="00CC"/>
  <outline>
    <contour>
      <point x="158" y="0" type="line"/>
      <point x="158" y="686" type="line"/>
      <point x="70" y="686" type="line"/>
      <point x="70" y="0" type="line"/>
    </contour>
    <contour>
      <point x="174" y="751" type="line"/>
      <point x="88" y="883" type="line"/>
      <point x="-2" y="883" type="line"/>
      <point x="-3" y="880" type="line"/>
      <point x="105" y="751" type="line"/>
    </contour>
  </outline>
</glyph>
<glyph name="Iacute" format="1">
  <advance width="228"/>
  <unicode hex="00CD"/>
  <outline>
    <contour>
      <point x="158" y="0" type="line"/>
      <point x="158" y="686" type="line"/>
      <point x="70" y="686" type="line"/>
      <point x="70" y="0" type="line"/>
    </contour>
    <contour>
      <point x="231" y="880" type="line"/>
      <point x="230" y="883" type="line"/>
      <point x="141" y="883" type="line"/>
      <point x="55" y="751" type="line"/>
      <point x="124" y="751" type="line"/>
    </contour>
  </outline>
</glyph>
<glyph name="Icircumflex" format="1">
  <advance width="228"/>
  <unicode hex="00CE"/>
  <outline>
    <contour>
      <point x="158" y="686" type="line"/>
      <point x="70" y="686" type="line"/>
      <point x="70" y="0" type="line"/>
      <point x="158" y="0" type="line"/>
    </contour>
    <contour>
      <point x="154" y="882" type="line"/>
      <point x="76" y="882" type="line"/>
      <point x="-11" y="747" type="line"/>
      <point x="70" y="747" type="line"/>
      <point x="115" y="826" type="line"/>
      <point x="159" y="747" type="line"/>
      <point x="239" y="747" type="line"/>
    </contour>
  </outline>
</glyph>
<glyph name="Idieresis" format="1">
  <advance width="228"/>
  <unicode hex="00CF"/>
  <outline>
    <contour>
      <point x="158" y="686" type="line"/>
      <point x="70" y="686" type="line"/>
      <point x="70" y="0" type="line"/>
      <point x="158" y="0" type="line"/>
    </contour>
    <contour>
      <point x="233" y="883" type="line"/>
      <point x="146" y="883" type="line"/>
      <point x="146" y="788" type="line"/>
      <point x="233" y="788" type="line"/>
    </contour>
    <contour>
      <point x="83" y="883" type="line"/>
      <point x="-4" y="883" type="line"/>
      <point x="-4" y="788" type="line"/>
      <point x="83" y="788" type="line"/>
    </contour>
  </outline>
</glyph>
<glyph name="Ntilde" format="1">
  <advance width="592"/>
  <unicode hex="00D1"/>
  <outline>
    <contour>
      <point x="522" y="686" type="line"/>
      <point x="443" y="686" type="line"/>
      <point x="443" y="255" type="line" smooth="yes"/>
      <point x="443" y="233"/>
      <point x="446" y="164"/>
      <point x="446" y="164" type="curve"/>
      <point x="443" y="163" type="line"/>
      <point x="443" y="163"/>
      <point x="416" y="229"/>
      <point x="401" y="255" type="curve" smooth="yes"/>
      <point x="146" y="686" type="line"/>
      <point x="70" y="686" type="line"/>
      <point x="70" y="0" type="line"/>
      <point x="149" y="0" type="line"/>
      <point x="149" y="437" type="line" smooth="yes"/>
      <point x="149" y="465"/>
      <point x="145" y="528"/>
      <point x="145" y="528" type="curve"/>
      <point x="148" y="529" type="line"/>
      <point x="148" y="529"/>
      <point x="175" y="466"/>
      <point x="192" y="437" type="curve" smooth="yes"/>
      <point x="449" y="0" type="line"/>
      <point x="522" y="0" type="line"/>
    </contour>
    <contour>
      <point x="384" y="883" type="line"/>
      <point x="381" y="860"/>
      <point x="368" y="853"/>
      <point x="350" y="853" type="curve" smooth="yes"/>
      <point x="311" y="853"/>
      <point x="278" y="883"/>
      <point x="235" y="883" type="curve" smooth="yes"/>
      <point x="175" y="883"/>
      <point x="150" y="825"/>
      <point x="150" y="779" type="curve"/>
      <point x="208" y="779" type="line"/>
      <point x="211" y="802"/>
      <point x="224" y="810"/>
      <point x="242" y="810" type="curve" smooth="yes"/>
      <point x="281" y="810"/>
      <point x="313" y="779"/>
      <point x="357" y="779" type="curve" smooth="yes"/>
      <point x="417" y="779"/>
      <point x="442" y="837"/>
      <point x="442" y="883" type="curve"/>
    </contour>
  </outline>
</glyph>
<glyph name="Oacute" format="1">
  <advance width="638"/>
  <unicode hex="00D3"/>
  <outline>
    <contour>
      <point x="319" y="698" type="curve" smooth="yes"/>
      <point x="151" y="698"/>
      <point x="49" y="581"/>
      <point x="49" y="343" type="curve" smooth="yes"/>
      <point x="49" y="105"/>
      <point x="151" y="-12"/>
      <point x="319" y="-12" type="curve" smooth="yes"/>
      <point x="487" y="-12"/>
      <point x="589" y="105"/>
      <point x="589" y="343" type="curve" smooth="yes"/>
      <point x="589" y="581"/>
      <point x="487" y="698"/>
    </contour>
    <contour>
      <point x="319" y="617" type="curve" smooth="yes"/>
      <point x="429" y="617"/>
      <point x="497" y="535"/>
      <point x="497" y="368" type="curve" smooth="yes"/>
      <point x="497" y="318" type="line" smooth="yes"/>
      <point x="497" y="151"/>
      <point x="429" y="69"/>
      <point x="319" y="69" type="curve" smooth="yes"/>
      <point x="209" y="69"/>
      <point x="141" y="151"/>
      <point x="141" y="318" type="curve" smooth="yes"/>
      <point x="141" y="368" type="line"/>
      <point x="141" y="535"/>
      <point x="209" y="617"/>
    </contour>
    <contour>
      <point x="437" y="880" type="line"/>
      <point x="436" y="883" type="line"/>
      <point x="346" y="883" type="line"/>
      <point x="260" y="751" type="line"/>
      <point x="329" y="751" type="line"/>
    </contour>
  </outline>
</glyph>
<glyph name="Otilde" format="1">
  <advance width="638"/>
  <unicode hex="00D5"/>
  <outline>
    <contour>
      <point x="319" y="698" type="curve" smooth="yes"/>
      <point x="151" y="698"/>
      <point x="49" y="581"/>
      <point x="49" y="343" type="curve" smooth="yes"/>
      <point x="49" y="105"/>
      <point x="151" y="-12"/>
      <point x="319" y="-12" type="curve" smooth="yes"/>
      <point x="487" y="-12"/>
      <point x="589" y="105"/>
      <point x="589" y="343" type="curve" smooth="yes"/>
      <point x="589" y="581"/>
      <point x="487" y="698"/>
    </contour>
    <contour>
      <point x="319" y="617" type="curve" smooth="yes"/>
      <point x="429" y="617"/>
      <point x="497" y="535"/>
      <point x="497" y="368" type="curve" smooth="yes"/>
      <point x="497" y="318" type="line" smooth="yes"/>
      <point x="497" y="151"/>
      <point x="429" y="69"/>
      <point x="319" y="69" type="curve" smooth="yes"/>
      <point x="209" y="69"/>
      <point x="141" y="151"/>
      <point x="141" y="318" type="curve" smooth="yes"/>
      <point x="141" y="368" type="line"/>
      <point x="141" y="535"/>
      <point x="209" y="617"/>
    </contour>
    <contour>
      <point x="407" y="883" type="line"/>
      <point x="404" y="860"/>
      <point x="391" y="853"/>
      <point x="373" y="853" type="curve" smooth="yes"/>
      <point x="334" y="853"/>
      <point x="301" y="883"/>
      <point x="258" y="883" type="curve" smooth="yes"/>
      <point x="198" y="883"/>
      <point x="173" y="825"/>
      <point x="173" y="779" type="curve"/>
      <point x="231" y="779" type="line"/>
      <point x="234" y="802"/>
      <point x="247" y="810"/>
      <point x="265" y="810" type="curve" smooth="yes"/>
      <point x="304" y="810"/>
      <point x="337" y="779"/>
      <point x="380" y="779" type="curve" smooth="yes"/>
      <point x="440" y="779"/>
      <point x="465" y="837"/>
      <point x="465" y="883" type="curve"/>
    </contour>
  </outline>
</glyph>
<glyph name="multiply" format="1">
  <advance width="479"/>
  <unicode hex="00D7"/>
  <outline>
    <contour>
      <point x="247" y="314" type="line"/>
      <point x="93" y="466" type="line"/>
      <point x="38" y="407" type="line"/>
      <point x="191" y="255" type="line"/>
      <point x="38" y="104" type="line"/>
      <point x="93" y="45" type="line"/>
      <point x="247" y="195" type="line"/>
      <point x="297" y="145"/>
      <point x="349" y="95"/>
      <point x="400" y="45" type="curve"/>
      <point x="455" y="104" type="line"/>
      <point x="302" y="255" type="line"/>
      <point x="455" y="407" type="line"/>
      <point x="400" y="466" type="line"/>
    </contour>
  </outline>
</glyph>
<glyph name="Oslash" format="1">
  <advance width="638"/>
  <unicode hex="00D8"/>
  <outline>
    <contour>
      <point x="589" y="723" type="line"/>
      <point x="525" y="723" type="line"/>
      <point x="478" y="648" type="line"/>
      <point x="436" y="681"/>
      <point x="382" y="698"/>
      <point x="319" y="698" type="curve" smooth="yes"/>
      <point x="151" y="698"/>
      <point x="49" y="581"/>
      <point x="49" y="343" type="curve" smooth="yes"/>
      <point x="49" y="224"/>
      <point x="74" y="135"/>
      <point x="121" y="76" type="curve"/>
      <point x="50" y="-37" type="line"/>
      <point x="114" y="-37" type="line"/>
      <point x="160" y="37" type="line"/>
      <point x="202" y="4"/>
      <point x="256" y="-12"/>
      <point x="319" y="-12" type="curve" smooth="yes"/>
      <point x="487" y="-12"/>
      <point x="589" y="105"/>
      <point x="589" y="343" type="curve" smooth="yes"/>
      <point x="589" y="461"/>
      <point x="563" y="550"/>
      <point x="517" y="609" type="curve"/>
    </contour>
    <contour>
      <point x="466" y="527" type="line"/>
      <point x="486" y="487"/>
      <point x="497" y="434"/>
      <point x="497" y="368" type="curve"/>
      <point x="497" y="318" type="line" smooth="yes"/>
      <point x="497" y="151"/>
      <point x="429" y="69"/>
      <point x="319" y="69" type="curve" smooth="yes"/>
      <point x="273" y="69"/>
      <point x="235" y="83"/>
      <point x="206" y="111" type="curve"/>
    </contour>
    <contour>
      <point x="319" y="617" type="curve" smooth="yes"/>
      <point x="364" y="617"/>
      <point x="402" y="603"/>
      <point x="432" y="574" type="curve"/>
      <point x="172" y="158" type="line"/>
      <point x="152" y="198"/>
      <point x="141" y="251"/>
      <point x="141" y="318" type="curve" smooth="yes"/>
      <point x="141" y="368" type="line"/>
      <point x="141" y="535"/>
      <point x="209" y="617"/>
    </contour>
    <contour>
      <point x="319" y="686" type="move" name="top"/>
    </contour>
  </outline>
</glyph>
<glyph name="Ugrave" format="1">
  <advance width="592"/>
  <unicode hex="00D9"/>
  <outline>
    <contour>
      <point x="522" y="686" type="line"/>
      <point x="434" y="686" type="line"/>
      <point x="434" y="218" type="line" smooth="yes"/>
      <point x="434" y="121"/>
      <point x="382" y="69"/>
      <point x="296" y="69" type="curve" smooth="yes"/>
      <point x="210" y="69"/>
      <point x="158" y="121"/>
      <point x="158" y="218" type="curve" smooth="yes"/>
      <point x="158" y="686" type="line"/>
      <point x="70" y="686" type="line"/>
      <point x="70" y="223" type="line"/>
      <point x="70" y="69"/>
      <point x="155" y="-12"/>
      <point x="296" y="-12" type="curve" smooth="yes"/>
      <point x="437" y="-12"/>
      <point x="522" y="69"/>
      <point x="522" y="223" type="curve" smooth="yes"/>
    </contour>
    <contour>
      <point x="355" y="751" type="line"/>
      <point x="270" y="883" type="line"/>
      <point x="179" y="883" type="line"/>
      <point x="178" y="880" type="line"/>
      <point x="287" y="751" type="line"/>
    </contour>
  </outline>
</glyph>
<glyph name="Ucircumflex" format="1">
  <advance width="592"/>
  <unicode hex="00DB"/>
  <outline>
    <contour>
      <point x="522" y="686" type="line"/>
      <point x="434" y="686" type="line"/>
      <point x="434" y="218" type="line" smooth="yes"/>
      <point x="434" y="121"/>
      <point x="382" y="69"/>
      <point x="296" y="69" type="curve" smooth="yes"/>
      <point x="210" y="69"/>
      <point x="158" y="121"/>
      <point x="158" y="218" type="curve" smooth="yes"/>
      <point x="158" y="686" type="line"/>
      <point x="70" y="686" type="line"/>
      <point x="70" y="223" type="line"/>
      <point x="70" y="69"/>
      <point x="155" y="-12"/>
      <point x="296" y="-12" type="curve" smooth="yes"/>
      <point x="437" y="-12"/>
      <point x="522" y="69"/>
      <point x="522" y="223" type="curve" smooth="yes"/>
    </contour>
    <contour>
      <point x="335" y="882" type="line"/>
      <point x="257" y="882" type="line"/>
      <point x="171" y="747" type="line"/>
      <point x="251" y="747" type="line"/>
      <point x="297" y="826" type="line"/>
      <point x="341" y="747" type="line"/>
      <point x="421" y="747" type="line"/>
    </contour>
  </outline>
</glyph>
<glyph name="Udieresis" format="1">
  <advance width="592"/>
  <unicode hex="00DC"/>
  <outline>
    <contour>
      <point x="522" y="686" type="line"/>
      <point x="434" y="686" type="line"/>
      <point x="434" y="218" type="line" smooth="yes"/>
      <point x="434" y="121"/>
      <point x="382" y="69"/>
      <point x="296" y="69" type="curve" smooth="yes"/>
      <point x="210" y="69"/>
      <point x="158" y="121"/>
      <point x="158" y="218" type="curve" smooth="yes"/>
      <point x="158" y="686" type="line"/>
      <point x="70" y="686" type="line"/>
      <point x="70" y="223" type="line"/>
      <point x="70" y="69"/>
      <point x="155" y="-12"/>
      <point x="296" y="-12" type="curve" smooth="yes"/>
      <point x="437" y="-12"/>
      <point x="522" y="69"/>
      <point x="522" y="223" type="curve" smooth="yes"/>
    </contour>
    <contour>
      <point x="415" y="883" type="line"/>
      <point x="327" y="883" type="line"/>
      <point x="327" y="788" type="line"/>
      <point x="415" y="788" type="line"/>
    </contour>
    <contour>
      <point x="264" y="883" type="line"/>
      <point x="177" y="883" type="line"/>
      <point x="177" y="788" type="line"/>
      <point x="264" y="788" type="line"/>
    </contour>
  </outline>
</glyph>
<glyph name="Yacute" format="1">
  <advance width="547"/>
  <unicode hex="00DD"/>
  <outline>
    <contour>
      <point x="318" y="284" type="line"/>
      <point x="539" y="686" type="line"/>
      <point x="454" y="686" type="line"/>
      <point x="283" y="368" type="line"/>
      <point x="279" y="368" type="line"/>
      <point x="105" y="686" type="line"/>
      <point x="8" y="686" type="line"/>
      <point x="230" y="284" type="line"/>
      <point x="230" y="0" type="line"/>
      <point x="318" y="0" type="line"/>
    </contour>
    <contour>
      <point x="391" y="880" type="line"/>
      <point x="390" y="883" type="line"/>
      <point x="300" y="883" type="line"/>
      <point x="214" y="751" type="line"/>
      <point x="283" y="751" type="line"/>
    </contour>
  </outline>
</glyph>
<glyph name="Thorn" format="1">
  <advance width="547"/>
  <unicode hex="00DE"/>
  <outline>
    <contour>
      <point x="158" y="686" type="line"/>
      <point x="70" y="686" type="line"/>
      <point x="70" y="0" type="line"/>
      <point x="158" y="0" type="line"/>
      <point x="158" y="147" type="line"/>
      <point x="315" y="147" type="line" smooth="yes"/>
      <point x="442" y="147"/>
      <point x="520" y="229"/>
      <point x="520" y="350" type="curve" smooth="yes"/>
      <point x="520" y="469"/>
      <point x="450" y="550"/>
      <point x="315" y="550" type="curve" smooth="yes"/>
      <point x="158" y="550" type="line"/>
    </contour>
    <contour>
      <point x="312" y="470" type="line"/>
      <point x="387" y="470"/>
      <point x="428" y="424"/>
      <point x="428" y="350" type="curve" smooth="yes"/>
      <point x="428" y="276"/>
      <point x="382" y="227"/>
      <point x="312" y="227" type="curve" smooth="yes"/>
      <point x="158" y="227" type="line"/>
      <point x="158" y="470" type="line"/>
    </contour>
  </outline>
</glyph>
<glyph name="germandbls" format="1">
  <advance width="501"/>
  <unicode hex="00DF"/>
  <outline>
    <contour>
      <point x="254" y="735" type="curve" smooth="yes"/>
      <point x="140" y="735"/>
      <point x="50" y="672"/>
      <point x="50" y="516" type="curve" smooth="yes"/>
      <point x="50" y="0" type="line"/>
      <point x="132" y="0" type="line"/>
      <point x="132" y="518" type="line" smooth="yes"/>
      <point x="132" y="613"/>
      <point x="178" y="662"/>
      <point x="249" y="662" type="curve" smooth="yes"/>
      <point x="320" y="662"/>
      <point x="358" y="615"/>
      <point x="358" y="545" type="curve" smooth="yes"/>
      <point x="358" y="479"/>
      <point x="308" y="423"/>
      <point x="247" y="423" type="curve" smooth="yes"/>
      <point x="188" y="423" type="line"/>
      <point x="188" y="350" type="line"/>
      <point x="255" y="350" type="line" smooth="yes"/>
      <point x="324" y="350"/>
      <point x="379" y="289"/>
      <point x="379" y="215" type="curve" smooth="yes"/>
      <point x="379" y="137"/>
      <point x="324" y="74"/>
      <point x="255" y="74" type="curve" smooth="yes"/>
      <point x="188" y="74" type="line"/>
      <point x="188" y="0" type="line"/>
      <point x="263" y="0" type="line" smooth="yes"/>
      <point x="375" y="0"/>
      <point x="463" y="85"/>
      <point x="463" y="214" type="curve" smooth="yes"/>
      <point x="463" y="291"/>
      <point x="415" y="366"/>
      <point x="347" y="391" type="curve"/>
      <point x="347" y="395" type="line"/>
      <point x="403" y="417"/>
      <point x="442" y="482"/>
      <point x="442" y="548" type="curve" smooth="yes"/>
      <point x="442" y="665"/>
      <point x="362" y="735"/>
    </contour>
  </outline>
</glyph>
<glyph name="ae" format="1">
  <advance width="729"/>
  <unicode hex="00E6"/>
  <outline>
    <contour>
      <point x="504" y="538" type="curve" smooth="yes"/>
      <point x="443" y="538"/>
      <point x="397" y="519"/>
      <point x="364" y="478" type="curve"/>
      <point x="339" y="517"/>
      <point x="293" y="538"/>
      <point x="229" y="538" type="curve" smooth="yes"/>
      <point x="130" y="538"/>
      <point x="60" y="488"/>
      <point x="60" y="392" type="curve" smooth="yes"/>
      <point x="60" y="383"/>
      <point x="60" y="376"/>
      <point x="61" y="370" type="curve"/>
      <point x="142" y="370" type="line"/>
      <point x="142" y="382" type="line" smooth="yes"/>
      <point x="142" y="422"/>
      <point x="161" y="465"/>
      <point x="223" y="465" type="curve" smooth="yes"/>
      <point x="290" y="465"/>
      <point x="306" y="430"/>
      <point x="306" y="380" type="curve" smooth="yes"/>
      <point x="306" y="312" type="line"/>
      <point x="153" y="312"/>
      <point x="40" y="281"/>
      <point x="40" y="136" type="curve" smooth="yes"/>
      <point x="40" y="9"/>
      <point x="128" y="-12"/>
      <point x="193" y="-12" type="curve" smooth="yes"/>
      <point x="254" y="-12"/>
      <point x="308" y="19"/>
      <point x="345" y="68" type="curve"/>
      <point x="378" y="12"/>
      <point x="432" y="-12"/>
      <point x="505" y="-12" type="curve" smooth="yes"/>
      <point x="607" y="-12"/>
      <point x="677" y="61"/>
      <point x="677" y="179" type="curve"/>
      <point x="596" y="179" type="line"/>
      <point x="596" y="106"/>
      <point x="559" y="61"/>
      <point x="507" y="61" type="curve" smooth="yes"/>
      <point x="429" y="61"/>
      <point x="393" y="116"/>
      <point x="392" y="239" type="curve"/>
      <point x="677" y="239" type="line"/>
      <point x="677" y="291" type="line" smooth="yes"/>
      <point x="677" y="467"/>
      <point x="619" y="538"/>
    </contour>
    <contour>
      <point x="306" y="183" type="line"/>
      <point x="306" y="101"/>
      <point x="249" y="61"/>
      <point x="197" y="61" type="curve" smooth="yes"/>
      <point x="151" y="61"/>
      <point x="126" y="81"/>
      <point x="126" y="141" type="curve" smooth="yes"/>
      <point x="126" y="223"/>
      <point x="199" y="239"/>
      <point x="306" y="239" type="curve"/>
    </contour>
    <contour>
      <point x="504" y="465" type="curve" smooth="yes"/>
      <point x="561" y="465"/>
      <point x="591" y="412"/>
      <point x="591" y="312" type="curve"/>
      <point x="393" y="312" type="line"/>
      <point x="400" y="413"/>
      <point x="431" y="465"/>
    </contour>
    <contour>
      <point x="365" y="526" type="move" name="top"/>
    </contour>
  </outline>
</glyph>
<glyph name="ccedilla" format="1">
  <advance width="410"/>
  <unicode hex="00E7"/>
  <outline>
    <contour>
      <point x="216" y="538" type="curve" smooth="yes"/>
      <point x="93" y="538"/>
      <point x="36" y="452"/>
      <point x="36" y="263" type="curve" smooth="yes"/>
      <point x="36" y="101"/>
      <point x="77" y="15"/>
      <point x="167" y="-6" type="curve"/>
      <point x="156" y="-77" type="line"/>
      <point x="189" y="-77" type="line" smooth="yes"/>
      <point x="215" y="-77"/>
      <point x="223" y="-85"/>
      <point x="223" y="-101" type="curve" smooth="yes"/>
      <point x="223" y="-120"/>
      <point x="209" y="-125"/>
      <point x="187" y="-125" type="curve" smooth="yes"/>
      <point x="111" y="-125" type="line"/>
      <point x="111" y="-174" type="line"/>
      <point x="135" y="-179"/>
      <point x="167" y="-182"/>
      <point x="195" y="-182" type="curve" smooth="yes"/>
      <point x="236" y="-182"/>
      <point x="299" y="-168"/>
      <point x="299" y="-101" type="curve" smooth="yes"/>
      <point x="299" y="-55"/>
      <point x="261" y="-39"/>
      <point x="218" y="-36" type="curve"/>
      <point x="221" y="-12" type="line"/>
      <point x="333" y="-9"/>
      <point x="377" y="87"/>
      <point x="377" y="195" type="curve"/>
      <point x="296" y="195" type="line"/>
      <point x="296" y="108"/>
      <point x="275" y="61"/>
      <point x="216" y="61" type="curve" smooth="yes"/>
      <point x="150" y="61"/>
      <point x="122" y="123"/>
      <point x="122" y="244" type="curve" smooth="yes"/>
      <point x="122" y="282" type="line" smooth="yes"/>
      <point x="122" y="403"/>
      <point x="151" y="465"/>
      <point x="216" y="465" type="curve" smooth="yes"/>
      <point x="275" y="465"/>
      <point x="292" y="422"/>
      <point x="292" y="331" type="curve"/>
      <point x="377" y="331" type="line"/>
      <point x="377" y="465"/>
      <point x="330" y="538"/>
    </contour>
  </outline>
</glyph>
<glyph name="ecircumflex" format="1">
  <advance width="456"/>
  <unicode hex="00EA"/>
  <outline>
    <contour>
      <point x="240" y="538" type="curve" smooth="yes"/>
      <point x="108" y="538"/>
      <point x="42" y="452"/>
      <point x="42" y="263" type="curve" smooth="yes"/>
      <point x="42" y="68"/>
      <point x="110" y="-12"/>
      <point x="241" y="-12" type="curve" smooth="yes"/>
      <point x="343" y="-12"/>
      <point x="413" y="61"/>
      <point x="413" y="179" type="curve"/>
      <point x="332" y="179" type="line"/>
      <point x="332" y="106"/>
      <point x="295" y="61"/>
      <point x="243" y="61" type="curve" smooth="yes"/>
      <point x="165" y="61"/>
      <point x="129" y="116"/>
      <point x="128" y="239" type="curve"/>
      <point x="413" y="239" type="line"/>
      <point x="413" y="291" type="line" smooth="yes"/>
      <point x="413" y="467"/>
      <point x="355" y="538"/>
    </contour>
    <contour>
      <point x="240" y="465" type="curve" smooth="yes"/>
      <point x="297" y="465"/>
      <point x="327" y="412"/>
      <point x="327" y="312" type="curve"/>
      <point x="129" y="312" type="line"/>
      <point x="136" y="413"/>
      <point x="167" y="465"/>
    </contour>
    <contour>
      <point x="268" y="722" type="line"/>
      <point x="189" y="722" type="line"/>
      <point x="104" y="587" type="line"/>
      <point x="184" y="587" type="line"/>
      <point x="229" y="666" type="line"/>
      <point x="273" y="587" type="line"/>
      <point x="353" y="587" type="line"/>
    </contour>
  </outline>
</glyph>
<glyph name="igrave" format="1">
  <advance width="228"/>
  <unicode hex="00EC"/>
  <outline>
    <contour>
      <point x="155" y="0" type="line"/>
      <point x="155" y="526" type="line"/>
      <point x="73" y="526" type="line"/>
      <point x="73" y="0" type="line"/>
    </contour>
    <contour>
      <point x="174" y="591" type="line"/>
      <point x="88" y="723" type="line"/>
      <point x="-2" y="723" type="line"/>
      <point x="-3" y="720" type="line"/>
      <point x="105" y="591" type="line"/>
    </contour>
  </outline>
</glyph>
<glyph name="iacute" format="1">
  <advance width="228"/>
  <unicode hex="00ED"/>
  <outline>
    <contour>
      <point x="155" y="0" type="line"/>
      <point x="155" y="526" type="line"/>
      <point x="73" y="526" type="line"/>
      <point x="73" y="0" type="line"/>
    </contour>
    <contour>
      <point x="231" y="720" type="line"/>
      <point x="230" y="723" type="line"/>
      <point x="141" y="723" type="line"/>
      <point x="55" y="591" type="line"/>
      <point x="124" y="591" type="line"/>
    </contour>
  </outline>
</glyph>
<glyph name="icircumflex" format="1">
  <advance width="228"/>
  <unicode hex="00EE"/>
  <outline>
    <contour>
      <point x="155" y="526" type="line"/>
      <point x="73" y="526" type="line"/>
      <point x="73" y="0" type="line"/>
      <point x="155" y="0" type="line"/>
    </contour>
    <contour>
      <point x="154" y="722" type="line"/>
      <point x="76" y="722" type="line"/>
      <point x="-11" y="587" type="line"/>
      <point x="70" y="587" type="line"/>
      <point x="115" y="666" type="line"/>
      <point x="159" y="587" type="line"/>
      <point x="239" y="587" type="line"/>
    </contour>
  </outline>
</glyph>
<glyph name="idieresis" format="1">
  <advance width="228"/>
  <unicode hex="00EF"/>
  <outline>
    <contour>
      <point x="155" y="526" type="line"/>
      <point x="73" y="526" type="line"/>
      <point x="73" y="0" type="line"/>
      <point x="155" y="0" type="line"/>
    </contour>
    <contour>
      <point x="233" y="723" type="line"/>
      <point x="146" y="723" type="line"/>
      <point x="146" y="628" type="line"/>
      <point x="233" y="628" type="line"/>
    </contour>
    <contour>
      <point x="83" y="723" type="line"/>
      <point x="-4" y="723" type="line"/>
      <point x="-4" y="628" type="line"/>
      <point x="83" y="628" type="line"/>
    </contour>
  </outline>
</glyph>
<glyph name="eth" format="1">
  <advance width="456"/>
  <unicode hex="00F0"/>
  <outline>
    <contour>
      <point x="119" y="723" type="line"/>
      <point x="117" y="719" type="line"/>
      <point x="134" y="701"/>
      <point x="149" y="683"/>
      <point x="164" y="666" type="curve"/>
      <point x="93" y="660" type="line"/>
      <point x="93" y="600" type="line"/>
      <point x="211" y="610" type="line"/>
      <point x="232" y="582"/>
      <point x="251" y="555"/>
      <point x="267" y="526" type="curve"/>
      <point x="252" y="533"/>
      <point x="235" y="538"/>
      <point x="217" y="538" type="curve" smooth="yes"/>
      <point x="114" y="538"/>
      <point x="40" y="457"/>
      <point x="40" y="263" type="curve" smooth="yes"/>
      <point x="40" y="74"/>
      <point x="105" y="-12"/>
      <point x="228" y="-12" type="curve" smooth="yes"/>
      <point x="351" y="-12"/>
      <point x="416" y="74"/>
      <point x="416" y="263" type="curve" smooth="yes"/>
      <point x="416" y="408"/>
      <point x="369" y="521"/>
      <point x="298" y="618" type="curve"/>
      <point x="369" y="625" type="line"/>
      <point x="369" y="685" type="line"/>
      <point x="252" y="674" type="line"/>
      <point x="238" y="691"/>
      <point x="222" y="707"/>
      <point x="207" y="723" type="curve"/>
    </contour>
    <contour>
      <point x="228" y="465" type="curve" smooth="yes"/>
      <point x="295" y="465"/>
      <point x="330" y="403"/>
      <point x="330" y="282" type="curve" smooth="yes"/>
      <point x="330" y="244" type="line" smooth="yes"/>
      <point x="330" y="123"/>
      <point x="296" y="61"/>
      <point x="228" y="61" type="curve" smooth="yes"/>
      <point x="160" y="61"/>
      <point x="126" y="123"/>
      <point x="126" y="244" type="curve" smooth="yes"/>
      <point x="126" y="282" type="line" smooth="yes"/>
      <point x="126" y="403"/>
      <point x="160" y="465"/>
    </contour>
  </outline>
</glyph>
<glyph name="ntilde" format="1">
  <advance width="456"/>
  <unicode hex="00F1"/>
  <outline>
    <contour>
      <point x="266" y="538" type="curve" smooth="yes"/>
      <point x="214" y="538"/>
      <point x="168" y="517"/>
      <point x="139" y="465" type="curve"/>
      <point x="133" y="465" type="line"/>
      <point x="122" y="526" type="line"/>
      <point x="60" y="526" type="line"/>
      <point x="60" y="0" type="line"/>
      <point x="142" y="0" type="line"/>
      <point x="142" y="321" type="line" smooth="yes"/>
      <point x="142" y="412"/>
      <point x="188" y="465"/>
      <point x="240" y="465" type="curve" smooth="yes"/>
      <point x="284" y="465"/>
      <point x="314" y="446"/>
      <point x="314" y="373" type="curve" smooth="yes"/>
      <point x="314" y="0" type="line"/>
      <point x="396" y="0" type="line"/>
      <point x="396" y="379" type="line" smooth="yes"/>
      <point x="396" y="496"/>
      <point x="345" y="538"/>
    </contour>
    <contour>
      <point x="316" y="723" type="line"/>
      <point x="313" y="700"/>
      <point x="300" y="692"/>
      <point x="282" y="692" type="curve" smooth="yes"/>
      <point x="243" y="692"/>
      <point x="210" y="723"/>
      <point x="167" y="723" type="curve" smooth="yes"/>
      <point x="107" y="723"/>
      <point x="82" y="665"/>
      <point x="82" y="619" type="curve"/>
      <point x="140" y="619" type="line"/>
      <point x="143" y="642"/>
      <point x="156" y="650"/>
      <point x="174" y="650" type="curve" smooth="yes"/>
      <point x="213" y="650"/>
      <point x="246" y="619"/>
      <point x="289" y="619" type="curve" smooth="yes"/>
      <point x="349" y="619"/>
      <point x="374" y="677"/>
      <point x="374" y="723" type="curve"/>
    </contour>
  </outline>
</glyph>
<glyph name="oacute" format="1">
  <advance width="456"/>
  <unicode hex="00F3"/>
  <outline>
    <contour>
      <point x="228" y="538" type="curve" smooth="yes"/>
      <point x="105" y="538"/>
      <point x="40" y="452"/>
      <point x="40" y="263" type="curve" smooth="yes"/>
      <point x="40" y="74"/>
      <point x="105" y="-12"/>
      <point x="228" y="-12" type="curve" smooth="yes"/>
      <point x="351" y="-12"/>
      <point x="416" y="74"/>
      <point x="416" y="263" type="curve" smooth="yes"/>
      <point x="416" y="452"/>
      <point x="351" y="538"/>
    </contour>
    <contour>
      <point x="228" y="465" type="curve" smooth="yes"/>
      <point x="296" y="465"/>
      <point x="330" y="403"/>
      <point x="330" y="282" type="curve" smooth="yes"/>
      <point x="330" y="244" type="line"/>
      <point x="330" y="123"/>
      <point x="296" y="61"/>
      <point x="228" y="61" type="curve" smooth="yes"/>
      <point x="160" y="61"/>
      <point x="126" y="123"/>
      <point x="126" y="244" type="curve" smooth="yes"/>
      <point x="126" y="282" type="line" smooth="yes"/>
      <point x="126" y="403"/>
      <point x="160" y="465"/>
    </contour>
    <contour>
      <point x="345" y="720" type="line"/>
      <point x="344" y="723" type="line"/>
      <point x="254" y="723" type="line"/>
      <point x="168" y="591" type="line"/>
      <point x="238" y="591" type="line"/>
    </contour>
  </outline>
</glyph>
<glyph name="ocircumflex" format="1">
  <advance width="456"/>
  <unicode hex="00F4"/>
  <outline>
    <contour>
      <point x="228" y="538" type="curve" smooth="yes"/>
      <point x="105" y="538"/>
      <point x="40" y="452"/>
      <point x="40" y="263" type="curve" smooth="yes"/>
      <point x="40" y="74"/>
      <point x="105" y="-12"/>
      <point x="228" y="-12" type="curve" smooth="yes"/>
      <point x="351" y="-12"/>
      <point x="416" y="74"/>
      <point x="416" y="263" type="curve" smooth="yes"/>
      <point x="416" y="452"/>
      <point x="351" y="538"/>
    </contour>
    <contour>
      <point x="228" y="465" type="curve" smooth="yes"/>
      <point x="296" y="465"/>
      <point x="330" y="403"/>
      <point x="330" y="282" type="curve" smooth="yes"/>
      <point x="330" y="244" type="line"/>
      <point x="330" y="123"/>
      <point x="296" y="61"/>
      <point x="228" y="61" type="curve" smooth="yes"/>
      <point x="160" y="61"/>
      <point x="126" y="123"/>
      <point x="126" y="244" type="curve" smooth="yes"/>
      <point x="126" y="282" type="line" smooth="yes"/>
      <point x="126" y="403"/>
      <point x="160" y="465"/>
    </contour>
    <contour>
      <point x="268" y="722" type="line"/>
      <point x="189" y="722" type="line"/>
      <point x="104" y="587" type="line"/>
      <point x="184" y="587" type="line"/>
      <point x="229" y="666" type="line"/>
      <point x="273" y="587" type="line"/>
      <point x="353" y="587" type="line"/>
    </contour>
  </outline>
</glyph>
<glyph name="otilde" format="1">
  <advance width="456"/>
  <unicode hex="00F5"/>
  <outline>
    <contour>
      <point x="228" y="538" type="curve" smooth="yes"/>
      <point x="105" y="538"/>
      <point x="40" y="452"/>
      <point x="40" y="263" type="curve" smooth="yes"/>
      <point x="40" y="74"/>
      <point x="105" y="-12"/>
      <point x="228" y="-12" type="curve" smooth="yes"/>
      <point x="351" y="-12"/>
      <point x="416" y="74"/>
      <point x="416" y="263" type="curve" smooth="yes"/>
      <point x="416" y="452"/>
      <point x="351" y="538"/>
    </contour>
    <contour>
      <point x="228" y="465" type="curve" smooth="yes"/>
      <point x="296" y="465"/>
      <point x="330" y="403"/>
      <point x="330" y="282" type="curve" smooth="yes"/>
      <point x="330" y="244" type="line"/>
      <point x="330" y="123"/>
      <point x="296" y="61"/>
      <point x="228" y="61" type="curve" smooth="yes"/>
      <point x="160" y="61"/>
      <point x="126" y="123"/>
      <point x="126" y="244" type="curve" smooth="yes"/>
      <point x="126" y="282" type="line" smooth="yes"/>
      <point x="126" y="403"/>
      <point x="160" y="465"/>
    </contour>
    <contour>
      <point x="316" y="723" type="line"/>
      <point x="313" y="700"/>
      <point x="300" y="692"/>
      <point x="282" y="692" type="curve" smooth="yes"/>
      <point x="243" y="692"/>
      <point x="210" y="723"/>
      <point x="167" y="723" type="curve" smooth="yes"/>
      <point x="107" y="723"/>
      <point x="82" y="665"/>
      <point x="82" y="619" type="curve"/>
      <point x="140" y="619" type="line"/>
      <point x="143" y="642"/>
      <point x="156" y="650"/>
      <point x="174" y="650" type="curve" smooth="yes"/>
      <point x="213" y="650"/>
      <point x="246" y="619"/>
      <point x="289" y="619" type="curve" smooth="yes"/>
      <point x="349" y="619"/>
      <point x="374" y="677"/>
      <point x="374" y="723" type="curve"/>
    </contour>
  </outline>
</glyph>
<glyph name="divide" format="1">
  <advance width="549"/>
  <unicode hex="00F7"/>
  <outline>
    <contour>
      <point x="505" y="297" type="line"/>
      <point x="43" y="297" type="line"/>
      <point x="43" y="213" type="line"/>
      <point x="505" y="213" type="line"/>
    </contour>
    <contour>
      <point x="316" y="141" type="line"/>
      <point x="232" y="141" type="line"/>
      <point x="232" y="51" type="line"/>
      <point x="316" y="51" type="line"/>
    </contour>
    <contour>
      <point x="316" y="460" type="line"/>
      <point x="232" y="460" type="line"/>
      <point x="232" y="369" type="line"/>
      <point x="316" y="369" type="line"/>
    </contour>
  </outline>
</glyph>
<glyph name="oslash" format="1">
  <advance width="501"/>
  <unicode hex="00F8"/>
  <outline>
    <contour>
      <point x="438" y="558" type="line"/>
      <point x="383" y="558" type="line"/>
      <point x="355" y="507" type="line"/>
      <point x="327" y="528"/>
      <point x="292" y="538"/>
      <point x="250" y="538" type="curve" smooth="yes"/>
      <point x="127" y="538"/>
      <point x="62" y="452"/>
      <point x="62" y="263" type="curve" smooth="yes"/>
      <point x="62" y="168"/>
      <point x="78" y="100"/>
      <point x="109" y="55" type="curve"/>
      <point x="62" y="-32" type="line"/>
      <point x="117" y="-32" type="line"/>
      <point x="144" y="19" type="line"/>
      <point x="172" y="-2"/>
      <point x="208" y="-12"/>
      <point x="250" y="-12" type="curve" smooth="yes"/>
      <point x="373" y="-12"/>
      <point x="438" y="74"/>
      <point x="438" y="263" type="curve" smooth="yes"/>
      <point x="438" y="357"/>
      <point x="422" y="426"/>
      <point x="390" y="471" type="curve"/>
    </contour>
    <contour>
      <point x="341" y="380" type="line"/>
      <point x="348" y="354"/>
      <point x="352" y="321"/>
      <point x="352" y="282" type="curve" smooth="yes"/>
      <point x="352" y="244" type="line"/>
      <point x="352" y="123"/>
      <point x="318" y="61"/>
      <point x="250" y="61" type="curve" smooth="yes"/>
      <point x="222" y="61"/>
      <point x="200" y="71"/>
      <point x="184" y="91" type="curve"/>
    </contour>
    <contour>
      <point x="250" y="465" type="curve" smooth="yes"/>
      <point x="277" y="465"/>
      <point x="299" y="455"/>
      <point x="316" y="435" type="curve"/>
      <point x="158" y="145" type="line"/>
      <point x="151" y="172"/>
      <point x="148" y="205"/>
      <point x="148" y="244" type="curve"/>
      <point x="148" y="282" type="line" smooth="yes"/>
      <point x="148" y="403"/>
      <point x="182" y="465"/>
    </contour>
    <contour>
      <point x="250" y="526" type="move" name="top"/>
    </contour>
  </outline>
</glyph>
<glyph name="ucircumflex" format="1">
  <advance width="456"/>
  <unicode hex="00FB"/>
  <outline>
    <contour>
      <point x="396" y="526" type="line"/>
      <point x="314" y="526" type="line"/>
      <point x="314" y="205" type="line" smooth="yes"/>
      <point x="314" y="114"/>
      <point x="268" y="61"/>
      <point x="216" y="61" type="curve" smooth="yes"/>
      <point x="172" y="61"/>
      <point x="142" y="80"/>
      <point x="142" y="153" type="curve" smooth="yes"/>
      <point x="142" y="526" type="line"/>
      <point x="60" y="526" type="line"/>
      <point x="60" y="147" type="line" smooth="yes"/>
      <point x="60" y="30"/>
      <point x="111" y="-12"/>
      <point x="190" y="-12" type="curve" smooth="yes"/>
      <point x="242" y="-12"/>
      <point x="288" y="9"/>
      <point x="317" y="61" type="curve"/>
      <point x="323" y="61" type="line"/>
      <point x="334" y="0" type="line"/>
      <point x="396" y="0" type="line"/>
    </contour>
    <contour>
      <point x="268" y="722" type="line"/>
      <point x="189" y="722" type="line"/>
      <point x="104" y="587" type="line"/>
      <point x="184" y="587" type="line"/>
      <point x="229" y="666" type="line"/>
      <point x="273" y="587" type="line"/>
      <point x="353" y="587" type="line"/>
    </contour>
  </outline>
</glyph>
<glyph name="thorn" format="1">
  <advance width="456"/>
  <unicode hex="00FE"/>
  <outline>
    <contour>
      <point x="142" y="723" type="line"/>
      <point x="60" y="723" type="line"/>
      <point x="60" y="-173" type="line"/>
      <point x="142" y="-173" type="line"/>
      <point x="142" y="46" type="line"/>
      <point x="147" y="46" type="line"/>
      <point x="165" y="10"/>
      <point x="208" y="-12"/>
      <point x="259" y="-12" type="curve" smooth="yes"/>
      <point x="346" y="-12"/>
      <point x="416" y="71"/>
      <point x="416" y="262" type="curve" smooth="yes"/>
      <point x="416" y="455"/>
      <point x="353" y="538"/>
      <point x="253" y="538" type="curve" smooth="yes"/>
      <point x="207" y="538"/>
      <point x="167" y="515"/>
      <point x="146" y="479" type="curve"/>
      <point x="142" y="480" type="line"/>
    </contour>
    <contour>
      <point x="236" y="465" type="curve" smooth="yes"/>
      <point x="299" y="465"/>
      <point x="330" y="413"/>
      <point x="330" y="282" type="curve"/>
      <point x="330" y="244" type="line" smooth="yes"/>
      <point x="330" y="113"/>
      <point x="299" y="61"/>
      <point x="236" y="61" type="curve" smooth="yes"/>
      <point x="173" y="61"/>
      <point x="142" y="123"/>
      <point x="142" y="244" type="curve" smooth="yes"/>
      <point x="142" y="282" type="line" smooth="yes"/>
      <point x="142" y="403"/>
      <point x="173" y="465"/>
    </contour>
  </outline>
</glyph>
<glyph name="ydieresis" format="1">
  <advance width="410"/>
  <unicode hex="00FF"/>
  <outline>
    <contour>
      <point x="401" y="526" type="line"/>
      <point x="318" y="526" type="line"/>
      <point x="220" y="118" type="line"/>
      <point x="216" y="118" type="line"/>
      <point x="100" y="526" type="line"/>
      <point x="10" y="526" type="line"/>
      <point x="171" y="0" type="line"/>
      <point x="152" y="-90"/>
      <point x="111" y="-117"/>
      <point x="67" y="-117" type="curve" smooth="yes"/>
      <point x="38" y="-117" type="line"/>
      <point x="38" y="-174" type="line"/>
      <point x="55" y="-180"/>
      <point x="74" y="-182"/>
      <point x="97" y="-182" type="curve" smooth="yes"/>
      <point x="189" y="-182"/>
      <point x="236" y="-88"/>
      <point x="267" y="27" type="curve" smooth="yes"/>
    </contour>
    <contour>
      <point x="324" y="723" type="line"/>
      <point x="236" y="723" type="line"/>
      <point x="236" y="628" type="line"/>
      <point x="324" y="628" type="line"/>
    </contour>
    <contour>
      <point x="173" y="723" type="line"/>
      <point x="86" y="723" type="line"/>
      <point x="86" y="628" type="line"/>
      <point x="173" y="628" type="line"/>
    </contour>
  </outline>
</glyph>
<glyph name="Abreve" format="1">
  <advance width="547"/>
  <unicode hex="0102"/>
  <outline>
    <contour>
      <point x="333" y="883" type="line"/>
      <point x="332" y="869"/>
      <point x="307" y="850"/>
      <point x="273" y="850" type="curve" smooth="yes"/>
      <point x="240" y="850"/>
      <point x="217" y="869"/>
      <point x="214" y="883" type="curve"/>
      <point x="150" y="883" type="line"/>
      <point x="150" y="838"/>
      <point x="197" y="786"/>
      <point x="273" y="786" type="curve" smooth="yes"/>
      <point x="350" y="786"/>
      <point x="397" y="838"/>
      <point x="397" y="883" type="curve"/>
    </contour>
    <contour>
      <point x="453" y="0" type="line"/>
      <point x="548" y="0" type="line"/>
      <point x="330" y="686" type="line"/>
      <point x="217" y="686" type="line"/>
      <point x="-1" y="0" type="line"/>
      <point x="87" y="0" type="line"/>
      <point x="134" y="153" type="line"/>
      <point x="406" y="153" type="line"/>
    </contour>
    <contour>
      <point x="252" y="538" type="line" smooth="yes"/>
      <point x="259" y="560"/>
      <point x="268" y="614"/>
      <point x="268" y="614" type="curve"/>
      <point x="272" y="614" type="line"/>
      <point x="272" y="614"/>
      <point x="281" y="561"/>
      <point x="288" y="538" type="curve" smooth="yes"/>
      <point x="381" y="233" type="line"/>
      <point x="158" y="233" type="line"/>
    </contour>
  </outline>
</glyph>
<glyph name="Aogonek" format="1">
  <advance width="547"/>
  <unicode hex="0104"/>
  <outline>
    <contour>
      <point x="330" y="686" type="line"/>
      <point x="217" y="686" type="line"/>
      <point x="-1" y="0" type="line"/>
      <point x="87" y="0" type="line"/>
      <point x="134" y="153" type="line"/>
      <point x="406" y="153" type="line"/>
      <point x="453" y="0" type="line"/>
      <point x="432" y="-23"/>
      <point x="416" y="-50"/>
      <point x="416" y="-92" type="curve" smooth="yes"/>
      <point x="416" y="-161"/>
      <point x="467" y="-182"/>
      <point x="510" y="-182" type="curve" smooth="yes"/>
      <point x="530" y="-182"/>
      <point x="550" y="-177"/>
      <point x="571" y="-168" type="curve"/>
      <point x="571" y="-117" type="line"/>
      <point x="540" y="-117" type="line" smooth="yes"/>
      <point x="506" y="-117"/>
      <point x="494" y="-90"/>
      <point x="494" y="-62" type="curve" smooth="yes"/>
      <point x="494" y="-38"/>
      <point x="507" y="-15"/>
      <point x="518" y="0" type="curve"/>
      <point x="548" y="0" type="line"/>
    </contour>
    <contour>
      <point x="272" y="614" type="line"/>
      <point x="272" y="614"/>
      <point x="281" y="561"/>
      <point x="288" y="538" type="curve" smooth="yes"/>
      <point x="381" y="233" type="line"/>
      <point x="158" y="233" type="line"/>
      <point x="252" y="538" type="line" smooth="yes"/>
      <point x="259" y="560"/>
      <point x="268" y="614"/>
      <point x="268" y="614" type="curve"/>
    </contour>
  </outline>
</glyph>
<glyph name="aogonek" format="1">
  <advance width="456"/>
  <unicode hex="0105"/>
  <outline>
    <contour>
      <point x="223" y="538" type="curve" smooth="yes"/>
      <point x="124" y="538"/>
      <point x="54" y="488"/>
      <point x="54" y="392" type="curve" smooth="yes"/>
      <point x="54" y="383"/>
      <point x="54" y="376"/>
      <point x="55" y="370" type="curve"/>
      <point x="136" y="370" type="line"/>
      <point x="136" y="382" type="line" smooth="yes"/>
      <point x="136" y="422"/>
      <point x="155" y="465"/>
      <point x="217" y="465" type="curve" smooth="yes"/>
      <point x="284" y="465"/>
      <point x="300" y="430"/>
      <point x="300" y="380" type="curve" smooth="yes"/>
      <point x="300" y="312" type="line"/>
      <point x="147" y="312"/>
      <point x="34" y="281"/>
      <point x="34" y="136" type="curve" smooth="yes"/>
      <point x="34" y="9"/>
      <point x="120" y="-12"/>
      <point x="172" y="-12" type="curve" smooth="yes"/>
      <point x="227" y="-12"/>
      <point x="273" y="14"/>
      <point x="300" y="57" type="curve"/>
      <point x="305" y="57" type="line"/>
      <point x="313" y="25"/>
      <point x="334" y="3"/>
      <point x="364" y="-5" type="curve"/>
      <point x="346" y="-27"/>
      <point x="332" y="-53"/>
      <point x="332" y="-92" type="curve" smooth="yes"/>
      <point x="332" y="-161"/>
      <point x="383" y="-182"/>
      <point x="426" y="-182" type="curve" smooth="yes"/>
      <point x="446" y="-182"/>
      <point x="466" y="-177"/>
      <point x="487" y="-168" type="curve"/>
      <point x="487" y="-117" type="line"/>
      <point x="456" y="-117" type="line" smooth="yes"/>
      <point x="422" y="-117"/>
      <point x="410" y="-90"/>
      <point x="410" y="-62" type="curve" smooth="yes"/>
      <point x="410" y="-38"/>
      <point x="422" y="-15"/>
      <point x="433" y="0" type="curve"/>
      <point x="437" y="1"/>
      <point x="440" y="3"/>
      <point x="442" y="4" type="curve"/>
      <point x="442" y="61" type="line"/>
      <point x="410" y="61" type="line" smooth="yes"/>
      <point x="396" y="61"/>
      <point x="382" y="71"/>
      <point x="382" y="96" type="curve" smooth="yes"/>
      <point x="382" y="391" type="line" smooth="yes"/>
      <point x="382" y="484"/>
      <point x="329" y="538"/>
    </contour>
    <contour>
      <point x="300" y="191" type="line" smooth="yes"/>
      <point x="300" y="104"/>
      <point x="243" y="61"/>
      <point x="191" y="61" type="curve" smooth="yes"/>
      <point x="145" y="61"/>
      <point x="120" y="81"/>
      <point x="120" y="141" type="curve" smooth="yes"/>
      <point x="120" y="223"/>
      <point x="193" y="239"/>
      <point x="300" y="239" type="curve"/>
    </contour>
  </outline>
</glyph>
<glyph name="cacute" format="1">
  <advance width="410"/>
  <unicode hex="0107"/>
  <outline>
    <contour>
      <point x="216" y="538" type="curve" smooth="yes"/>
      <point x="93" y="538"/>
      <point x="36" y="452"/>
      <point x="36" y="263" type="curve" smooth="yes"/>
      <point x="36" y="74"/>
      <point x="92" y="-12"/>
      <point x="216" y="-12" type="curve" smooth="yes"/>
      <point x="332" y="-12"/>
      <point x="377" y="85"/>
      <point x="377" y="195" type="curve"/>
      <point x="296" y="195" type="line"/>
      <point x="296" y="108"/>
      <point x="275" y="61"/>
      <point x="216" y="61" type="curve" smooth="yes"/>
      <point x="150" y="61"/>
      <point x="122" y="123"/>
      <point x="122" y="244" type="curve" smooth="yes"/>
      <point x="122" y="282" type="line" smooth="yes"/>
      <point x="122" y="403"/>
      <point x="151" y="465"/>
      <point x="216" y="465" type="curve" smooth="yes"/>
      <point x="275" y="465"/>
      <point x="292" y="422"/>
      <point x="292" y="331" type="curve"/>
      <point x="377" y="331" type="line"/>
      <point x="377" y="465"/>
      <point x="330" y="538"/>
    </contour>
    <contour>
      <point x="332" y="720" type="line"/>
      <point x="331" y="723" type="line"/>
      <point x="241" y="723" type="line"/>
      <point x="155" y="591" type="line"/>
      <point x="225" y="591" type="line"/>
    </contour>
  </outline>
</glyph>
<glyph name="Ccircumflex" format="1">
  <advance width="592"/>
  <unicode hex="0108"/>
  <outline>
    <contour>
      <point x="312" y="698" type="curve" smooth="yes"/>
      <point x="134" y="698"/>
      <point x="42" y="581"/>
      <point x="42" y="343" type="curve" smooth="yes"/>
      <point x="42" y="105"/>
      <point x="134" y="-12"/>
      <point x="312" y="-12" type="curve" smooth="yes"/>
      <point x="452" y="-12"/>
      <point x="551" y="69"/>
      <point x="551" y="246" type="curve"/>
      <point x="464" y="246" type="line"/>
      <point x="464" y="127"/>
      <point x="404" y="69"/>
      <point x="312" y="69" type="curve" smooth="yes"/>
      <point x="192" y="69"/>
      <point x="134" y="151"/>
      <point x="134" y="318" type="curve" smooth="yes"/>
      <point x="134" y="368" type="line" smooth="yes"/>
      <point x="134" y="535"/>
      <point x="192" y="617"/>
      <point x="312" y="617" type="curve" smooth="yes"/>
      <point x="402" y="617"/>
      <point x="461" y="558"/>
      <point x="461" y="438" type="curve"/>
      <point x="551" y="438" type="line"/>
      <point x="551" y="613"/>
      <point x="452" y="698"/>
    </contour>
    <contour>
      <point x="335" y="882" type="line"/>
      <point x="257" y="882" type="line"/>
      <point x="171" y="747" type="line"/>
      <point x="251" y="747" type="line"/>
      <point x="297" y="826" type="line"/>
      <point x="341" y="747" type="line"/>
      <point x="421" y="747" type="line"/>
    </contour>
  </outline>
</glyph>
<glyph name="Ccaron" format="1">
  <advance width="592"/>
  <unicode hex="010C"/>
  <outline>
    <contour>
      <point x="312" y="698" type="curve" smooth="yes"/>
      <point x="134" y="698"/>
      <point x="42" y="581"/>
      <point x="42" y="343" type="curve" smooth="yes"/>
      <point x="42" y="105"/>
      <point x="134" y="-12"/>
      <point x="312" y="-12" type="curve" smooth="yes"/>
      <point x="452" y="-12"/>
      <point x="551" y="69"/>
      <point x="551" y="246" type="curve"/>
      <point x="464" y="246" type="line"/>
      <point x="464" y="127"/>
      <point x="404" y="69"/>
      <point x="312" y="69" type="curve" smooth="yes"/>
      <point x="192" y="69"/>
      <point x="134" y="151"/>
      <point x="134" y="318" type="curve" smooth="yes"/>
      <point x="134" y="368" type="line" smooth="yes"/>
      <point x="134" y="535"/>
      <point x="192" y="617"/>
      <point x="312" y="617" type="curve" smooth="yes"/>
      <point x="402" y="617"/>
      <point x="461" y="558"/>
      <point x="461" y="438" type="curve"/>
      <point x="551" y="438" type="line"/>
      <point x="551" y="613"/>
      <point x="452" y="698"/>
    </contour>
    <contour>
      <point x="421" y="883" type="line"/>
      <point x="341" y="883" type="line"/>
      <point x="296" y="804" type="line"/>
      <point x="251" y="883" type="line"/>
      <point x="171" y="883" type="line"/>
      <point x="256" y="748" type="line"/>
      <point x="334" y="748" type="line"/>
    </contour>
  </outline>
</glyph>
<glyph name="dcaron" format="1">
  <advance width="504"/>
  <unicode hex="010F"/>
  <outline>
    <contour>
      <point x="396" y="723" type="line"/>
      <point x="314" y="723" type="line"/>
      <point x="314" y="476" type="line"/>
      <point x="309" y="476" type="line"/>
      <point x="291" y="515"/>
      <point x="248" y="538"/>
      <point x="197" y="538" type="curve" smooth="yes"/>
      <point x="110" y="538"/>
      <point x="40" y="455"/>
      <point x="40" y="264" type="curve" smooth="yes"/>
      <point x="40" y="71"/>
      <point x="103" y="-12"/>
      <point x="203" y="-12" type="curve" smooth="yes"/>
      <point x="251" y="-12"/>
      <point x="293" y="13"/>
      <point x="318" y="61" type="curve"/>
      <point x="323" y="61" type="line"/>
      <point x="334" y="0" type="line"/>
      <point x="396" y="0" type="line"/>
    </contour>
    <contour>
      <point x="220" y="465" type="curve" smooth="yes"/>
      <point x="283" y="465"/>
      <point x="314" y="402"/>
      <point x="314" y="278" type="curve" smooth="yes"/>
      <point x="314" y="244" type="line" smooth="yes"/>
      <point x="314" y="123"/>
      <point x="283" y="61"/>
      <point x="220" y="61" type="curve" smooth="yes"/>
      <point x="157" y="61"/>
      <point x="126" y="113"/>
      <point x="126" y="244" type="curve"/>
      <point x="126" y="282" type="line" smooth="yes"/>
      <point x="126" y="413"/>
      <point x="157" y="465"/>
    </contour>
    <contour>
      <point x="536" y="686" type="line"/>
      <point x="436" y="686" type="line"/>
      <point x="436" y="578" type="line"/>
      <point x="476" y="578" type="line"/>
      <point x="436" y="454" type="line"/>
      <point x="487" y="454" type="line"/>
      <point x="536" y="587" type="line"/>
    </contour>
  </outline>
</glyph>
<glyph name="Dcroat" format="1">
  <advance width="592"/>
  <unicode hex="0110"/>
  <outline>
    <contour>
      <point x="5" y="323" type="line"/>
      <point x="70" y="323" type="line"/>
      <point x="70" y="0" type="line"/>
      <point x="283" y="0" type="line" smooth="yes"/>
      <point x="445" y="0"/>
      <point x="543" y="118"/>
      <point x="543" y="353" type="curve" smooth="yes"/>
      <point x="543" y="574"/>
      <point x="445" y="686"/>
      <point x="283" y="686" type="curve" smooth="yes"/>
      <point x="70" y="686" type="line"/>
      <point x="70" y="387" type="line"/>
      <point x="5" y="387" type="line"/>
    </contour>
    <contour>
      <point x="275" y="606" type="line" smooth="yes"/>
      <point x="383" y="606"/>
      <point x="451" y="531"/>
      <point x="451" y="378" type="curve" smooth="yes"/>
      <point x="451" y="328" type="line" smooth="yes"/>
      <point x="451" y="161"/>
      <point x="383" y="80"/>
      <point x="275" y="80" type="curve" smooth="yes"/>
      <point x="158" y="80" type="line"/>
      <point x="158" y="323" type="line"/>
      <point x="315" y="323" type="line"/>
      <point x="315" y="387" type="line"/>
      <point x="158" y="387" type="line"/>
      <point x="158" y="606" type="line"/>
    </contour>
  </outline>
</glyph>
<glyph name="Emacron" format="1">
  <advance width="547"/>
  <unicode hex="0112"/>
  <outline>
    <contour>
      <point x="399" y="831" type="line"/>
      <point x="148" y="831" type="line"/>
      <point x="148" y="759" type="line"/>
      <point x="399" y="759" type="line"/>
    </contour>
    <contour>
      <point x="499" y="0" type="line"/>
      <point x="499" y="80" type="line"/>
      <point x="158" y="80" type="line"/>
      <point x="158" y="311" type="line"/>
      <point x="449" y="311" type="line"/>
      <point x="449" y="391" type="line"/>
      <point x="158" y="391" type="line"/>
      <point x="158" y="606" type="line"/>
      <point x="493" y="606" type="line"/>
      <point x="493" y="686" type="line"/>
      <point x="70" y="686" type="line"/>
      <point x="70" y="0" type="line"/>
    </contour>
  </outline>
</glyph>
<glyph name="Ebreve" format="1">
  <advance width="547"/>
  <unicode hex="0114"/>
  <outline>
    <contour>
      <point x="333" y="883" type="line"/>
      <point x="332" y="869"/>
      <point x="307" y="850"/>
      <point x="273" y="850" type="curve" smooth="yes"/>
      <point x="240" y="850"/>
      <point x="217" y="869"/>
      <point x="214" y="883" type="curve"/>
      <point x="150" y="883" type="line"/>
      <point x="150" y="838"/>
      <point x="197" y="786"/>
      <point x="273" y="786" type="curve" smooth="yes"/>
      <point x="350" y="786"/>
      <point x="397" y="838"/>
      <point x="397" y="883" type="curve"/>
    </contour>
    <contour>
      <point x="499" y="0" type="line"/>
      <point x="499" y="80" type="line"/>
      <point x="158" y="80" type="line"/>
      <point x="158" y="311" type="line"/>
      <point x="449" y="311" type="line"/>
      <point x="449" y="391" type="line"/>
      <point x="158" y="391" type="line"/>
      <point x="158" y="606" type="line"/>
      <point x="493" y="606" type="line"/>
      <point x="493" y="686" type="line"/>
      <point x="70" y="686" type="line"/>
      <point x="70" y="0" type="line"/>
    </contour>
  </outline>
</glyph>
<glyph name="ebreve" format="1">
  <advance width="456"/>
  <unicode hex="0115"/>
  <outline>
    <contour>
      <point x="240" y="538" type="curve" smooth="yes"/>
      <point x="108" y="538"/>
      <point x="42" y="452"/>
      <point x="42" y="263" type="curve" smooth="yes"/>
      <point x="42" y="68"/>
      <point x="110" y="-12"/>
      <point x="241" y="-12" type="curve" smooth="yes"/>
      <point x="343" y="-12"/>
      <point x="413" y="61"/>
      <point x="413" y="179" type="curve"/>
      <point x="332" y="179" type="line"/>
      <point x="332" y="106"/>
      <point x="295" y="61"/>
      <point x="243" y="61" type="curve" smooth="yes"/>
      <point x="165" y="61"/>
      <point x="129" y="116"/>
      <point x="128" y="239" type="curve"/>
      <point x="413" y="239" type="line"/>
      <point x="413" y="291" type="line" smooth="yes"/>
      <point x="413" y="467"/>
      <point x="355" y="538"/>
    </contour>
    <contour>
      <point x="240" y="465" type="curve" smooth="yes"/>
      <point x="297" y="465"/>
      <point x="327" y="412"/>
      <point x="327" y="312" type="curve"/>
      <point x="129" y="312" type="line"/>
      <point x="136" y="413"/>
      <point x="167" y="465"/>
    </contour>
    <contour>
      <point x="288" y="723" type="line"/>
      <point x="286" y="709"/>
      <point x="262" y="690"/>
      <point x="228" y="690" type="curve" smooth="yes"/>
      <point x="194" y="690"/>
      <point x="172" y="709"/>
      <point x="169" y="723" type="curve"/>
      <point x="104" y="723" type="line"/>
      <point x="104" y="678"/>
      <point x="152" y="626"/>
      <point x="228" y="626" type="curve" smooth="yes"/>
      <point x="305" y="626"/>
      <point x="352" y="678"/>
      <point x="352" y="723" type="curve"/>
    </contour>
  </outline>
</glyph>
<glyph name="edotaccent" format="1">
  <advance width="456"/>
  <unicode hex="0117"/>
  <outline>
    <contour>
      <point x="240" y="538" type="curve" smooth="yes"/>
      <point x="108" y="538"/>
      <point x="42" y="452"/>
      <point x="42" y="263" type="curve" smooth="yes"/>
      <point x="42" y="68"/>
      <point x="110" y="-12"/>
      <point x="241" y="-12" type="curve" smooth="yes"/>
      <point x="343" y="-12"/>
      <point x="413" y="61"/>
      <point x="413" y="179" type="curve"/>
      <point x="332" y="179" type="line"/>
      <point x="332" y="106"/>
      <point x="295" y="61"/>
      <point x="243" y="61" type="curve" smooth="yes"/>
      <point x="165" y="61"/>
      <point x="129" y="116"/>
      <point x="128" y="239" type="curve"/>
      <point x="413" y="239" type="line"/>
      <point x="413" y="291" type="line" smooth="yes"/>
      <point x="413" y="467"/>
      <point x="355" y="538"/>
    </contour>
    <contour>
      <point x="240" y="465" type="curve" smooth="yes"/>
      <point x="297" y="465"/>
      <point x="327" y="412"/>
      <point x="327" y="312" type="curve"/>
      <point x="129" y="312" type="line"/>
      <point x="136" y="413"/>
      <point x="167" y="465"/>
    </contour>
    <contour>
      <point x="272" y="723" type="line"/>
      <point x="185" y="723" type="line"/>
      <point x="185" y="628" type="line"/>
      <point x="272" y="628" type="line"/>
    </contour>
  </outline>
</glyph>
<glyph name="Eogonek" format="1">
  <advance width="547"/>
  <unicode hex="0118"/>
  <outline>
    <contour>
      <point x="493" y="686" type="line"/>
      <point x="70" y="686" type="line"/>
      <point x="70" y="0" type="line"/>
      <point x="434" y="0" type="line"/>
      <point x="413" y="-23"/>
      <point x="397" y="-50"/>
      <point x="397" y="-92" type="curve" smooth="yes"/>
      <point x="397" y="-161"/>
      <point x="448" y="-182"/>
      <point x="491" y="-182" type="curve" smooth="yes"/>
      <point x="511" y="-182"/>
      <point x="531" y="-177"/>
      <point x="552" y="-168" type="curve"/>
      <point x="552" y="-117" type="line"/>
      <point x="521" y="-117" type="line" smooth="yes"/>
      <point x="487" y="-117"/>
      <point x="475" y="-90"/>
      <point x="475" y="-62" type="curve" smooth="yes"/>
      <point x="475" y="-38"/>
      <point x="488" y="-15"/>
      <point x="499" y="0" type="curve"/>
      <point x="499" y="80" type="line"/>
      <point x="158" y="80" type="line"/>
      <point x="158" y="311" type="line"/>
      <point x="449" y="311" type="line"/>
      <point x="449" y="391" type="line"/>
      <point x="158" y="391" type="line"/>
      <point x="158" y="606" type="line"/>
      <point x="493" y="606" type="line"/>
    </contour>
  </outline>
</glyph>
<glyph name="eogonek" format="1">
  <advance width="456"/>
  <unicode hex="0119"/>
  <outline>
    <contour>
      <point x="240" y="538" type="curve" smooth="yes"/>
      <point x="108" y="538"/>
      <point x="42" y="452"/>
      <point x="42" y="263" type="curve" smooth="yes"/>
      <point x="42" y="68"/>
      <point x="110" y="-12"/>
      <point x="241" y="-12" type="curve" smooth="yes"/>
      <point x="243" y="-12" type="line"/>
      <point x="227" y="-32"/>
      <point x="216" y="-57"/>
      <point x="216" y="-92" type="curve" smooth="yes"/>
      <point x="216" y="-161"/>
      <point x="267" y="-182"/>
      <point x="310" y="-182" type="curve" smooth="yes"/>
      <point x="330" y="-182"/>
      <point x="350" y="-177"/>
      <point x="371" y="-168" type="curve"/>
      <point x="371" y="-117" type="line"/>
      <point x="339" y="-117" type="line" smooth="yes"/>
      <point x="306" y="-117"/>
      <point x="294" y="-90"/>
      <point x="294" y="-62" type="curve" smooth="yes"/>
      <point x="294" y="-34"/>
      <point x="311" y="-7"/>
      <point x="323" y="7" type="curve"/>
      <point x="378" y="36"/>
      <point x="413" y="96"/>
      <point x="413" y="179" type="curve"/>
      <point x="332" y="179" type="line"/>
      <point x="332" y="106"/>
      <point x="295" y="61"/>
      <point x="243" y="61" type="curve" smooth="yes"/>
      <point x="165" y="61"/>
      <point x="129" y="116"/>
      <point x="128" y="239" type="curve"/>
      <point x="413" y="239" type="line"/>
      <point x="413" y="291" type="line" smooth="yes"/>
      <point x="413" y="467"/>
      <point x="355" y="538"/>
    </contour>
    <contour>
      <point x="240" y="465" type="curve" smooth="yes"/>
      <point x="297" y="465"/>
      <point x="327" y="412"/>
      <point x="327" y="312" type="curve"/>
      <point x="129" y="312" type="line"/>
      <point x="136" y="413"/>
      <point x="167" y="465"/>
    </contour>
  </outline>
</glyph>
<glyph name="Ecaron" format="1">
  <advance width="547"/>
  <unicode hex="011A"/>
  <outline>
    <contour>
      <point x="398" y="883" type="line"/>
      <point x="318" y="883" type="line"/>
      <point x="273" y="804" type="line"/>
      <point x="229" y="883" type="line"/>
      <point x="149" y="883" type="line"/>
      <point x="234" y="748" type="line"/>
      <point x="312" y="748" type="line"/>
    </contour>
    <contour>
      <point x="499" y="0" type="line"/>
      <point x="499" y="80" type="line"/>
      <point x="158" y="80" type="line"/>
      <point x="158" y="311" type="line"/>
      <point x="449" y="311" type="line"/>
      <point x="449" y="391" type="line"/>
      <point x="158" y="391" type="line"/>
      <point x="158" y="606" type="line"/>
      <point x="493" y="606" type="line"/>
      <point x="493" y="686" type="line"/>
      <point x="70" y="686" type="line"/>
      <point x="70" y="0" type="line"/>
    </contour>
  </outline>
</glyph>
<glyph name="ecaron" format="1">
  <advance width="456"/>
  <unicode hex="011B"/>
  <outline>
    <contour>
      <point x="240" y="538" type="curve" smooth="yes"/>
      <point x="108" y="538"/>
      <point x="42" y="452"/>
      <point x="42" y="263" type="curve" smooth="yes"/>
      <point x="42" y="68"/>
      <point x="110" y="-12"/>
      <point x="241" y="-12" type="curve" smooth="yes"/>
      <point x="343" y="-12"/>
      <point x="413" y="61"/>
      <point x="413" y="179" type="curve"/>
      <point x="332" y="179" type="line"/>
      <point x="332" y="106"/>
      <point x="295" y="61"/>
      <point x="243" y="61" type="curve" smooth="yes"/>
      <point x="165" y="61"/>
      <point x="129" y="116"/>
      <point x="128" y="239" type="curve"/>
      <point x="413" y="239" type="line"/>
      <point x="413" y="291" type="line" smooth="yes"/>
      <point x="413" y="467"/>
      <point x="355" y="538"/>
    </contour>
    <contour>
      <point x="240" y="465" type="curve" smooth="yes"/>
      <point x="297" y="465"/>
      <point x="327" y="412"/>
      <point x="327" y="312" type="curve"/>
      <point x="129" y="312" type="line"/>
      <point x="136" y="413"/>
      <point x="167" y="465"/>
    </contour>
    <contour>
      <point x="353" y="723" type="line"/>
      <point x="273" y="723" type="line"/>
      <point x="228" y="644" type="line"/>
      <point x="184" y="723" type="line"/>
      <point x="104" y="723" type="line"/>
      <point x="188" y="588" type="line"/>
      <point x="267" y="588" type="line"/>
    </contour>
  </outline>
</glyph>
<glyph name="Gbreve" format="1">
  <advance width="638"/>
  <unicode hex="011E"/>
  <outline>
    <contour>
      <point x="379" y="883" type="line"/>
      <point x="377" y="869"/>
      <point x="353" y="850"/>
      <point x="319" y="850" type="curve" smooth="yes"/>
      <point x="286" y="850"/>
      <point x="263" y="869"/>
      <point x="260" y="883" type="curve"/>
      <point x="196" y="883" type="line"/>
      <point x="196" y="838"/>
      <point x="243" y="786"/>
      <point x="319" y="786" type="curve" smooth="yes"/>
      <point x="396" y="786"/>
      <point x="443" y="838"/>
      <point x="443" y="883" type="curve"/>
    </contour>
    <contour>
      <point x="515" y="0" type="line"/>
      <point x="573" y="0" type="line"/>
      <point x="573" y="357" type="line"/>
      <point x="305" y="357" type="line"/>
      <point x="305" y="280" type="line"/>
      <point x="483" y="280" type="line"/>
      <point x="483" y="264" type="line" smooth="yes"/>
      <point x="483" y="133"/>
      <point x="433" y="69"/>
      <point x="319" y="69" type="curve" smooth="yes"/>
      <point x="204" y="69"/>
      <point x="141" y="151"/>
      <point x="141" y="318" type="curve" smooth="yes"/>
      <point x="141" y="368" type="line" smooth="yes"/>
      <point x="141" y="535"/>
      <point x="211" y="617"/>
      <point x="324" y="617" type="curve" smooth="yes"/>
      <point x="418" y="617"/>
      <point x="483" y="566"/>
      <point x="483" y="452" type="curve"/>
      <point x="573" y="452" type="line"/>
      <point x="573" y="618"/>
      <point x="467" y="698"/>
      <point x="324" y="698" type="curve" smooth="yes"/>
      <point x="153" y="698"/>
      <point x="49" y="581"/>
      <point x="49" y="343" type="curve" smooth="yes"/>
      <point x="49" y="105"/>
      <point x="146" y="-12"/>
      <point x="319" y="-12" type="curve" smooth="yes"/>
      <point x="393" y="-12"/>
      <point x="454" y="14"/>
      <point x="496" y="76" type="curve"/>
    </contour>
  </outline>
</glyph>
